<svg version="1.1" xmlns="http://www.w3.org/2000/svg" viewBox="0 0 872 546" width="2616" height="1638">
  <!-- svg-source:excalidraw -->
  
  <defs>
    <style>
      @font-face {
        font-family: "Virgil";
        src: url("https://excalidraw.com/Virgil.woff2");
      }
      @font-face {
        font-family: "Cascadia";
        src: url("https://excalidraw.com/Cascadia.woff2");
      }
    </style>
  </defs>
  <g stroke-linecap="round" transform="translate(13.5 10) rotate(0 423.5 46)"><path d="M21.16 1.06 L831.26 -1.26 L838.12 4.72 L839.91 4.61 L845.25 13.55 L845.13 24.12 L846.82 73.91 L840.95 84.6 L834.71 90.6 L825.55 93.49 L19.52 90.31 L4.42 87.41 L2.05 79.75 L0.82 70.72 L-0.86 21.03 L-0.01 12.18 L5.43 5.15 L14.11 0.97 L21.19 0.2" stroke="none" stroke-width="0" fill="#ced4da"></path><path d="M23 0 M23 0 C215.51 2.64, 407.64 3.28, 824 0 M23 0 C234.68 2.14, 445.67 2.21, 824 0 M824 0 C841 0.85, 847.77 9.1, 847 23 M824 0 C839.19 1.12, 847.38 7.88, 847 23 M847 23 C844.92 37.93, 845.01 55.51, 847 69 M847 23 C846.39 35.23, 847.07 47.88, 847 69 M847 69 C847.59 85.93, 841.19 93.09, 824 92 M847 69 C849.17 84.52, 838.42 91.67, 824 92 M824 92 C546.84 94.13, 270.14 93.88, 23 92 M824 92 C637.15 92.14, 449.92 92.66, 23 92 M23 92 C7.26 92.48, 1.5 84.99, 0 69 M23 92 C5.83 93.57, -1.22 86.31, 0 69 M0 69 C-0.63 54.4, -1.14 37.25, 0 23 M0 69 C0.75 51.67, 1.34 35.42, 0 23 M0 23 C1.47 6.17, 7.89 0.01, 23 0 M0 23 C-0.01 7.64, 5.9 -0.2, 23 0" stroke="#000000" stroke-width="4" fill="none"></path></g><g transform="translate(318.5 32) rotate(0 115.54166666666663 23.5)"><text x="0" y="37.99999999999998" font-family="Cascadia, Segoe UI Emoji" font-size="39.166666666666664px" fill="#000000" text-anchor="start" style="white-space: pre;" direction="ltr">SEU CÓDIGO</text></g><g stroke-linecap="round" transform="translate(15 116) rotate(0 423.5 46)"><path d="M21.57 -0.12 L829.1 1.91 L837.46 2.19 L841.62 7.11 L845.31 11.31 L846.95 23.51 L847.54 76.19 L839.78 86.53 L835.22 91.18 L823.99 90.66 L19.13 91.59 L7.73 86.61 L1.21 79.67 L1.93 67.82 L0.5 24.14 L0.49 11.14 L6.81 5.55 L13.29 0.8 L24.58 0.58" stroke="none" stroke-width="0" fill="#228be6"></path><path d="M23 0 M23 0 C207.1 0.98, 391.1 2.02, 824 0 M23 0 C303.32 1.34, 583.56 1.59, 824 0 M824 0 C838.69 0.62, 845.97 8.44, 847 23 M824 0 C838.27 -0.17, 846.95 6.75, 847 23 M847 23 C848.91 41.03, 847.87 59.94, 847 69 M847 23 C846.56 33.71, 847.55 44.88, 847 69 M847 69 C848.44 83.16, 838.62 93.43, 824 92 M847 69 C849.05 85.16, 841.44 94.05, 824 92 M824 92 C535.63 90.96, 249.43 90.56, 23 92 M824 92 C637.24 95.19, 450.26 94.69, 23 92 M23 92 C7.83 92.54, 1.09 86.17, 0 69 M23 92 C7.8 90.93, 1.93 85.67, 0 69 M0 69 C0.79 52.53, 1.26 32.5, 0 23 M0 69 C-0.75 56.5, 0.86 43.04, 0 23 M0 23 C0.18 8.82, 6.39 -0.69, 23 0 M0 23 C0.46 8.64, 5.52 0.64, 23 0" stroke="#000000" stroke-width="4" fill="none"></path></g><g transform="translate(247.95833333333348 139.5) rotate(0 195.5 23.5)"><text x="0" y="38" font-family="Cascadia, Segoe UI Emoji" font-size="39.166666666666664px" fill="#000000" text-anchor="start" style="white-space: pre;" direction="ltr">FLUTTER FRAMEWORK</text></g><g stroke-linecap="round" transform="translate(13 225) rotate(0 423.5 46)"><path d="M24.86 0.68 L828.37 0.38 L838.46 1.25 L841.63 6.79 L846.83 13.56 L845.5 24.79 L845.63 75.98 L842.89 87.74 L834.06 92.36 L822.77 90.15 L18.01 91.54 L7.37 84.82 L1.46 77.38 L-1.38 69.32 L0.41 24.27 L2.36 14.69 L4.57 6.5 L13.34 1.45 L21.24 -1.45" stroke="none" stroke-width="0" fill="#12b886"></path><path d="M23 0 M23 0 C249.48 -1.39, 476.38 -1.93, 824 0 M23 0 C306.29 1.96, 589.67 2.18, 824 0 M824 0 C841.07 -1.31, 848.27 5.77, 847 23 M824 0 C838.25 1.17, 848.56 8.71, 847 23 M847 23 C845.76 37, 846.45 48.03, 847 69 M847 23 C847.32 40.83, 846.15 58.85, 847 69 M847 69 C848.54 82.73, 839.79 91.94, 824 92 M847 69 C848.19 82.18, 840.77 91.81, 824 92 M824 92 C573.62 92.74, 324.23 92.87, 23 92 M824 92 C653.09 94.72, 482.66 94.6, 23 92 M23 92 C8.31 93.34, 1.09 83.61, 0 69 M23 92 C7.75 91.1, -0.72 82.48, 0 69 M0 69 C-1.66 55.66, -0.08 39.53, 0 23 M0 69 C-0.53 52.27, -0.35 36.15, 0 23 M0 23 C-0.89 6.89, 8.77 -0.19, 23 0 M0 23 C-1.48 8, 7.19 -0.94, 23 0" stroke="#000000" stroke-width="4" fill="none"></path></g><g transform="translate(284.9583333333335 252.5) rotate(0 161 23.5)"><text x="0" y="38" font-family="Cascadia, Segoe UI Emoji" font-size="39.166666666666664px" fill="#000000" text-anchor="start" style="white-space: pre;" direction="ltr">FLUTTER ENGINE</text></g><g stroke-linecap="round" transform="translate(13 335) rotate(0 423.5 46)"><path d="M22.59 -0.76 L831.34 1.91 L836.86 2.7 L839.82 6.46 L843.8 11.11 L847.3 23.49 L845.56 74.97 L841.69 84.47 L835.88 91.17 L823.06 92.94 L19.26 90.56 L6.76 85.65 L2.35 79.95 L1.93 67.1 L-0.12 21.59 L-0.32 14.18 L4.36 6.6 L14.08 0.16 L21.95 -0.81" stroke="none" stroke-width="0" fill="#fab005"></path><path d="M23 0 M23 0 C208.19 2.94, 392.29 2.66, 824 0 M23 0 C255.73 -0.24, 488.15 -0.65, 824 0 M824 0 C838.81 -0.95, 848.08 8.53, 847 23 M824 0 C841.37 2.13, 845.18 8.8, 847 23 M847 23 C847.79 31.26, 847.83 41.03, 847 69 M847 23 C846.06 37.83, 847.69 54.31, 847 69 M847 69 C847.71 86.15, 840.15 90.97, 824 92 M847 69 C847.71 85.88, 838.92 90.37, 824 92 M824 92 C646.58 93.52, 469 93.76, 23 92 M824 92 C659.95 90.56, 495.43 90.66, 23 92 M23 92 C9.58 90.1, 1.61 85.84, 0 69 M23 92 C7.18 91.99, -1.24 84.27, 0 69 M0 69 C1.19 54.74, 0.33 39.33, 0 23 M0 69 C0.09 55.75, 0 41.49, 0 23 M0 23 C-1.92 9.6, 9.35 -0.12, 23 0 M0 23 C0.48 6.81, 7.58 -0.85, 23 0" stroke="#000000" stroke-width="4" fill="none"></path></g><g transform="translate(362.9583333333335 359.5) rotate(0 69.5 23.5)"><text x="0" y="38" font-family="Cascadia, Segoe UI Emoji" font-size="39.166666666666664px" fill="#000000" text-anchor="start" style="white-space: pre;" direction="ltr">RUNNER</text></g><g stroke-linecap="round" transform="translate(10 444) rotate(0 423.5 46)"><path d="M22.72 -0.71 L828.64 1.86 L838.82 5.18 L841.71 5.84 L846.19 11.44 L845.65 22.28 L848 72.92 L842.87 85.03 L834.95 89.98 L825.84 93.12 L16.43 91.95 L4.28 87.84 L-0.08 79.21 L-0.36 67.25 L0.92 22.63 L1.24 14.9 L4.63 5.02 L11.34 -0.2 L21.86 1.33" stroke="none" stroke-width="0" fill="#fa5252"></path><path d="M23 0 M23 0 C324.41 1.52, 626.61 1.27, 824 0 M23 0 C212.53 0.64, 402.63 0.52, 824 0 M824 0 C840.02 1.7, 847.22 6.35, 847 23 M824 0 C839.45 0.44, 847.55 9.2, 847 23 M847 23 C845.13 38.4, 848.1 53.54, 847 69 M847 23 C847.72 38.99, 846.73 53.46, 847 69 M847 69 C848.9 85.22, 839.45 93.83, 824 92 M847 69 C848.56 82.38, 838.82 92.32, 824 92 M824 92 C592.69 93.28, 362.13 92.85, 23 92 M824 92 C637.6 91.97, 450.72 91.8, 23 92 M23 92 C6.28 90.16, 0.05 86.21, 0 69 M23 92 C6.2 89.91, -1.91 85.92, 0 69 M0 69 C-1.82 57.06, 1.12 39.48, 0 23 M0 69 C-0.75 54.55, 0.9 40.72, 0 23 M0 23 C-0.34 9.1, 8.47 0.74, 23 0 M0 23 C-0.51 7.92, 7.11 1.67, 23 0" stroke="#000000" stroke-width="4" fill="none"></path></g><g transform="translate(344.9583333333335 468.5) rotate(0 92.5 23.5)"><text x="0" y="38" font-family="Cascadia, Segoe UI Emoji" font-size="39.166666666666664px" fill="#000000" text-anchor="start" style="white-space: pre;" direction="ltr">HARDWARE</text></g></svg>