<svg version="1.1" xmlns="http://www.w3.org/2000/svg" viewBox="0 0 672.4350617161019 342.29488470670043" width="672.4350617161019" height="342.29488470670043">
  <!-- svg-source:excalidraw -->
  
  <defs>
    <style class="style-fonts">
      @font-face {
        font-family: "Virgil";
        src: url("https://excalidraw.com/Virgil.woff2");
      }
      @font-face {
        font-family: "Cascadia";
        src: url("https://excalidraw.com/Cascadia.woff2");
      }
    </style>
    
  </defs>
  <g stroke-linecap="round" transform="translate(13.485737857696563 10) rotate(0 324.30310872860224 28.378218731873346)"><path d="M12.35 1.06 L639.61 -1.4 L645.17 5.04 L646.38 6.84 L648.07 46.5 L643.19 54.32 L640.81 55.39 L634.11 55.11 L11.51 56.57 L7.09 56.25 L2.8 47.45 L-1.33 15.35 L1.5 8.67 L4.37 5.27 L7.12 -1.08 L12.74 -0.75" stroke="none" stroke-width="0" fill="#ced4da"></path><path d="M14.19 0 M14.19 0 C190.03 -2.18, 366.33 -1.94, 634.42 0 M14.19 0 C203.1 -0.65, 392.26 -0.82, 634.42 0 M634.42 0 C643.26 -1.34, 650.57 4.68, 648.61 14.19 M634.42 0 C644.41 0.33, 650.52 5.71, 648.61 14.19 M648.61 14.19 C649.78 24.13, 648.99 34.67, 648.61 42.57 M648.61 14.19 C647.72 19.14, 648.16 25.4, 648.61 42.57 M648.61 42.57 C649.65 51.44, 642.19 55.72, 634.42 56.76 M648.61 42.57 C648.21 50.6, 644.55 58.6, 634.42 56.76 M634.42 56.76 C390.78 58.78, 146.89 59.46, 14.19 56.76 M634.42 56.76 C415.32 54.78, 195.87 54.82, 14.19 56.76 M14.19 56.76 C5.53 56.94, 0.45 51.24, 0 42.57 M14.19 56.76 C3.57 58.85, -0.46 52.58, 0 42.57 M0 42.57 C1.27 30.87, 1.62 22.4, 0 14.19 M0 42.57 C0.77 31.54, 0.37 21.86, 0 14.19 M0 14.19 C-1.88 6.28, 5.36 -1.92, 14.19 0 M0 14.19 C2.09 2.8, 6.42 -1.72, 14.19 0" stroke="#000000" stroke-width="4" fill="none"></path></g><g transform="translate(267.61780154048256 20.34707096271586) rotate(0 53.45791907570697 17.995568016817344)"><text x="0" y="0" font-family="Cascadia, Segoe UI Emoji" font-size="29.992613361362274px" fill="#000000" text-anchor="start" style="white-space: pre;" direction="ltr" dominant-baseline="text-before-edge">CÓDIGO</text></g><g stroke-linecap="round" transform="translate(13.828844258897334 77.28274826512762) rotate(0 324.3031087286023 29.183765608341844)"><path d="M13.16 -0.12 L637.14 1.78 L642.35 1.01 L648.06 9.57 L648.12 45.57 L644.9 55.23 L641.3 59.25 L632.54 58.65 L12.33 58.76 L5.69 54.97 L2.43 50.11 L1.98 14.95 L0.69 8.81 L5.58 2.47 L8.71 2.05 L13.65 -1.8" stroke="none" stroke-width="0" fill="#a5d8ff"></path><path d="M14.59 0 M14.59 0 C233.02 0.19, 452.19 -1, 634.01 0 M14.59 0 C259.07 0.65, 504.39 1.23, 634.01 0 M634.01 0 C645.7 -0.94, 648.6 4.06, 648.61 14.59 M634.01 0 C643.2 0.53, 647.86 5.58, 648.61 14.59 M648.61 14.59 C648.57 21.8, 647.92 31.07, 648.61 43.78 M648.61 14.59 C648.44 25.36, 648.72 34.87, 648.61 43.78 M648.61 43.78 C647.16 53.37, 643.53 58.12, 634.01 58.37 M648.61 43.78 C650.65 53.99, 645.4 57.02, 634.01 58.37 M634.01 58.37 C470.48 61.31, 307.09 61.05, 14.59 58.37 M634.01 58.37 C482.35 56.32, 330.13 55.73, 14.59 58.37 M14.59 58.37 C6.4 60.16, 0.61 55.06, 0 43.78 M14.59 58.37 C5.02 57.3, 0.19 54.12, 0 43.78 M0 43.78 C-1.2 35.1, 0.9 24.96, 0 14.59 M0 43.78 C0.98 35.16, 0.03 24.94, 0 14.59 M0 14.59 C0.41 3.5, 3.55 0.26, 14.59 0 M0 14.59 C2.21 3.25, 5.07 1.33, 14.59 0" stroke="#000000" stroke-width="4" fill="none"></path></g><g transform="translate(267.3556608516816 88.19511313491813) rotate(0 80.1868786135604 17.995568016817373)"><text x="0" y="0" font-family="Cascadia, Segoe UI Emoji" font-size="29.992613361362277px" fill="#000000" text-anchor="start" style="white-space: pre;" direction="ltr" dominant-baseline="text-before-edge">FRAMEWORK</text></g><g stroke-linecap="round" transform="translate(12.29730655533831 146.55709998555744) rotate(0 324.3031087286023 28.780992170107595)"><path d="M16.25 0.68 L636.57 0.25 L645.45 1.61 L648.09 9.14 L649.65 47.16 L643.51 55.75 L639.5 58.25 L635.85 59.05 L11.01 59.14 L4.39 53.69 L1.3 49.36 L1.62 12.96 L0.92 6.41 L2.22 3.92 L8.5 2.17 L15.32 1.76" stroke="none" stroke-width="0" fill="#b2f2bb"></path><path d="M14.39 0 M14.39 0 C163.73 -1.21, 312.47 -0.64, 634.22 0 M14.39 0 C232.2 0.03, 449.35 -0.04, 634.22 0 M634.22 0 C645.21 -1.19, 648.72 5.06, 648.61 14.39 M634.22 0 C644.59 1.55, 650.61 3.29, 648.61 14.39 M648.61 14.39 C649.35 26.2, 649.24 34.66, 648.61 43.17 M648.61 14.39 C649.7 25.03, 649.05 37.55, 648.61 43.17 M648.61 43.17 C647.3 53.8, 645.04 57.11, 634.22 57.56 M648.61 43.17 C647.34 52.15, 645.58 55.72, 634.22 57.56 M634.22 57.56 C433.33 59.35, 233.88 58.94, 14.39 57.56 M634.22 57.56 C409.02 55.27, 184.21 55.11, 14.39 57.56 M14.39 57.56 C4.1 59.21, -0.33 53.21, 0 43.17 M14.39 57.56 C6.82 57.37, 0.74 54.3, 0 43.17 M0 43.17 C-0.68 32.35, -1.51 22.92, 0 14.39 M0 43.17 C0.48 34.31, -0.52 26.1, 0 14.39 M0 14.39 C1.64 3.06, 4.49 -0.37, 14.39 0 M0 14.39 C0.06 5.36, 3.77 -0.9, 14.39 0" stroke="#000000" stroke-width="4" fill="none"></path></g><g transform="translate(266.17195148179803 156.83253408643003) rotate(0 53.45791907570697 17.995568016817373)"><text x="0" y="0" font-family="Cascadia, Segoe UI Emoji" font-size="29.992613361362274px" fill="#000000" text-anchor="start" style="white-space: pre;" direction="ltr" dominant-baseline="text-before-edge">ENGINE</text></g><g stroke-linecap="round" transform="translate(12.29730655533831 214.902923657803) rotate(0 324.3031087286023 27.975445293639154)"><path d="M13.58 -0.76 L639.84 1.77 L641.99 1.43 L646.3 8.58 L646.63 43.42 L646.94 50.98 L642.06 54.56 L635.06 54.17 L12.52 56.34 L2.55 53.39 L2.52 47 L1.01 13.39 L1.79 8.75 L5.43 1.6 L7.75 -0.53 L12.23 1.24" stroke="none" stroke-width="0" fill="#ffec99"></path><path d="M13.99 0 M13.99 0 C156.66 -1.83, 300.03 -1.97, 634.62 0 M13.99 0 C206.47 -2.1, 398.53 -2.34, 634.62 0 M634.62 0 C645.01 0.24, 649.31 5.4, 648.61 13.99 M634.62 0 C643.85 -1.51, 648.01 3.57, 648.61 13.99 M648.61 13.99 C650.58 22.31, 649.71 31.9, 648.61 41.96 M648.61 13.99 C647.82 21.52, 647.97 28.3, 648.61 41.96 M648.61 41.96 C648.55 52.57, 642.08 55.14, 634.62 55.95 M648.61 41.96 C650.21 53.22, 644.76 58.04, 634.62 55.95 M634.62 55.95 C423.58 56.58, 210.89 56.1, 13.99 55.95 M634.62 55.95 C439 56.97, 243.59 56.4, 13.99 55.95 M13.99 55.95 C4.66 55.24, 1.54 49.77, 0 41.96 M13.99 55.95 C5.58 54.8, 2.2 49.1, 0 41.96 M0 41.96 C-0.22 30.24, -0.27 21.31, 0 13.99 M0 41.96 C0.5 33.85, 0.43 25.31, 0 13.99 M0 13.99 C0.36 5.05, 5.02 0.02, 13.99 0 M0 13.99 C0.2 2.4, 2.45 2.23, 13.99 0" stroke="#000000" stroke-width="4" fill="none"></path></g><g transform="translate(266.2616159361519 224.6642605263998) rotate(0 53.220935198672635 17.995568016817344)"><text x="0" y="0" font-family="Cascadia, Segoe UI Emoji" font-size="29.992613361362274px" fill="#000000" text-anchor="start" style="white-space: pre;" direction="ltr" dominant-baseline="text-before-edge">RUNNER</text></g><g stroke-linecap="round" transform="translate(10 280.3717285017644) rotate(0 324.3031087286023 25.961578102468025)"><path d="M12.7 -0.71 L634.87 1.5 L644.34 3.77 L648.25 7.39 L649.23 37.44 L646.45 43.9 L646.72 47.21 L642.92 49.9 L636.52 51.34 L14.82 53.05 L6.13 51.43 L1.78 50.26 L-0.7 44.77 L-0.36 37.19 L1.73 6.93 L4.87 3.79 L11.86 -0.73" stroke="none" stroke-width="0" fill="#ffc9c9"></path><path d="M12.98 0 M12.98 0 C150.59 2.03, 287.9 1.04, 635.63 0 M12.98 0 C195.57 -2.36, 378.27 -2.15, 635.63 0 M635.63 0 C643.74 1.54, 650.33 5.27, 648.61 12.98 M635.63 0 C645.06 1.95, 648.86 2.81, 648.61 12.98 M648.61 12.98 C649.99 21.41, 649.22 27.71, 648.61 38.94 M648.61 12.98 C648.96 18.47, 648.7 22.45, 648.61 38.94 M648.61 38.94 C650.01 49.32, 643.7 52.33, 635.63 51.92 M648.61 38.94 C650.79 48.62, 644.41 54.02, 635.63 51.92 M635.63 51.92 C406.64 51.27, 177.82 51.7, 12.98 51.92 M635.63 51.92 C466.95 52.55, 298.96 52.83, 12.98 51.92 M12.98 51.92 C6.29 51.17, 1.48 46.01, 0 38.94 M12.98 51.92 C2.73 49.81, 0.06 49.76, 0 38.94 M0 38.94 C1.61 32.8, 2.1 25.35, 0 12.98 M0 38.94 C-1.22 32.99, -0.54 27.65, 0 12.98 M0 12.98 C-1.79 3.31, 5.85 -0.8, 12.98 0 M0 12.98 C-0.39 5.97, 5.25 0.85, 12.98 0" stroke="#000000" stroke-width="4" fill="none"></path></g><g transform="translate(266.5006583106292 289.1330653703612) rotate(0 70.83361878960022 17.995568016817344)"><text x="0" y="0" font-family="Cascadia, Segoe UI Emoji" font-size="29.992613361362274px" fill="#000000" text-anchor="start" style="white-space: pre;" direction="ltr" dominant-baseline="text-before-edge">HARDWARE</text></g></svg>