<svg id="_90_code_development_outline" data-name="#90_code_development_outline" xmlns="http://www.w3.org/2000/svg" viewBox="0 0 400 300" width="406" height="306" class="illustration styles_illustrationTablet__1DWOa"><path d="M285,217.82H252.39a1,1,0,0,1,0-2H284V200.64a1,1,0,0,1,2,0v16.18A1,1,0,0,1,285,217.82Z" fill="#093f68"></path><path d="M245.7,217.82H158.23a1,1,0,1,1,0-2H245.7a1,1,0,0,1,0,2Z" fill="#093f68"></path><path d="M152.85,217.82H107.56a1,1,0,0,1-1-1V202.1a1,1,0,1,1,2,0v13.72h44.29a1,1,0,0,1,0,2Z" fill="#093f68"></path><rect x="250.94" y="78.74" width="68.06" height="122.08" rx="10.06" fill="#02569b"></rect><path d="M308.94,201.82H261a11.08,11.08,0,0,1-11.06-11.07V88.8A11.07,11.07,0,0,1,261,77.74h47.94A11.07,11.07,0,0,1,320,88.8v102A11.08,11.08,0,0,1,308.94,201.82ZM261,79.74a9.06,9.06,0,0,0-9.06,9.06v102a9.07,9.07,0,0,0,9.06,9.07h47.94a9.08,9.08,0,0,0,9.06-9.07V88.8a9.07,9.07,0,0,0-9.06-9.06Z" fill="#093f68"></path><rect x="250.94" y="90.64" width="68.06" height="91.69" fill="#fff"></rect><path d="M319,183.33H250.94a1,1,0,0,1-1-1V90.64a1,1,0,0,1,1-1H319a1,1,0,0,1,1,1v91.69A1,1,0,0,1,319,183.33Zm-67.06-2H318V91.64H251.94Z" fill="#093f68"></path><path d="M285,196.86a5.58,5.58,0,1,1,5.58-5.57A5.58,5.58,0,0,1,285,196.86Zm0-9.15a3.58,3.58,0,1,0,3.58,3.58A3.58,3.58,0,0,0,285,187.71Z" fill="#093f68"></path><path d="M290.6,85.48H276.24a1,1,0,0,1,0-2H290.6a1,1,0,0,1,0,2Z" fill="#093f68"></path><path d="M299.66,85.48H295.6a1,1,0,0,1,0-2h4.06a1,1,0,0,1,0,2Z" fill="#093f68"></path><rect x="258.83" y="104.15" width="53.23" height="25.98" fill="#ffbc0e"></rect><path d="M312.06,131.13H258.83a1,1,0,0,1-1-1v-26a1,1,0,0,1,1-1h53.23a1,1,0,0,1,1,1v26A1,1,0,0,1,312.06,131.13Zm-52.23-2h51.23v-24H259.83Z" fill="#093f68"></path><rect x="258.83" y="136.64" width="53.23" height="25.98" fill="#70cc40"></rect><path d="M312.06,163.61H258.83a1,1,0,0,1-1-1v-26a1,1,0,0,1,1-1h53.23a1,1,0,0,1,1,1v26A1,1,0,0,1,312.06,163.61Zm-52.23-2h51.23v-24H259.83Z" fill="#093f68"></path><rect x="258.83" y="169.12" width="53.23" height="12.99" fill="#f56132"></rect><path d="M312.06,183.11H258.83a1,1,0,0,1-1-1v-13a1,1,0,0,1,1-1h53.23a1,1,0,0,1,1,1v13A1,1,0,0,1,312.06,183.11Zm-52.23-2h51.23v-11H259.83Z" fill="#093f68"></path><path d="M270.73,98.49H257.2a1,1,0,0,1,0-2h13.53a1,1,0,0,1,0,2Z" fill="#093f68"></path><path d="M310.76,98.49h-6.7a1,1,0,0,1,0-2h6.7a1,1,0,0,1,0,2Z" fill="#093f68"></path><path d="M222.79,81.06V197.62a3.2,3.2,0,0,1-3.2,3.2H84.2a3.2,3.2,0,0,1-3.2-3.2V81.06a3.2,3.2,0,0,1,3.2-3.2H219.59A3.2,3.2,0,0,1,222.79,81.06Z" fill="#02569b"></path><path d="M219.59,201.82H84.2a4.21,4.21,0,0,1-4.2-4.2V81.06a4.21,4.21,0,0,1,4.2-4.2H219.59a4.21,4.21,0,0,1,4.2,4.2V197.62A4.21,4.21,0,0,1,219.59,201.82ZM84.2,78.86a2.21,2.21,0,0,0-2.2,2.2V197.62a2.21,2.21,0,0,0,2.2,2.2H219.59a2.21,2.21,0,0,0,2.2-2.2V81.06a2.21,2.21,0,0,0-2.2-2.2Z" fill="#093f68"></path><path d="M222.79,81.06V197.62a3.2,3.2,0,0,1-3.2,3.2H129.53v-123h90.06A3.2,3.2,0,0,1,222.79,81.06Z" fill="#fff"></path><path d="M219.59,201.82H129.53a1,1,0,0,1-1-1v-123a1,1,0,0,1,1-1h90.06a4.21,4.21,0,0,1,4.2,4.2V197.62A4.21,4.21,0,0,1,219.59,201.82Zm-89.06-2h89.06a2.21,2.21,0,0,0,2.2-2.2V81.06a2.21,2.21,0,0,0-2.2-2.2H130.53Z" fill="#093f68"></path><path d="M222.79,81.06V94.19H81V81.06a3.2,3.2,0,0,1,3.2-3.2H219.59A3.2,3.2,0,0,1,222.79,81.06Z" fill="#fff"></path><path d="M222.79,95.19H81a1,1,0,0,1-1-1V81.06a4.21,4.21,0,0,1,4.2-4.2H219.59a4.21,4.21,0,0,1,4.2,4.2V94.19A1,1,0,0,1,222.79,95.19ZM82,93.19H221.79V81.06a2.21,2.21,0,0,0-2.2-2.2H84.2a2.21,2.21,0,0,0-2.2,2.2Z" fill="#093f68"></path><circle cx="91.94" cy="85.58" r="2.95" fill="#f56132"></circle><path d="M91.94,89.53a4,4,0,1,1,4-4A4,4,0,0,1,91.94,89.53Zm0-5.91a2,2,0,1,0,2,2A2,2,0,0,0,91.94,83.62Z" fill="#093f68"></path><circle cx="103.88" cy="85.58" r="2.95" fill="#ffbc0e"></circle><path d="M103.88,89.53a4,4,0,1,1,4-4A4,4,0,0,1,103.88,89.53Zm0-5.91a2,2,0,1,0,2,2A2,2,0,0,0,103.88,83.62Z" fill="#093f68"></path><circle cx="115.81" cy="85.58" r="2.95" fill="#70cc40"></circle><path d="M115.81,89.53a4,4,0,1,1,4-4A4,4,0,0,1,115.81,89.53Zm0-5.91a2,2,0,1,0,2,2A2,2,0,0,0,115.81,83.62Z" fill="#093f68"></path><path d="M153.54,105.43H138.85a1,1,0,0,1,0-2h14.69a1,1,0,1,1,0,2Z" fill="#093f68"></path><path d="M173.83,116.28H143.67a1,1,0,0,1,0-2h30.16a1,1,0,0,1,0,2Z" fill="#ffbc0e"></path><path d="M166.34,127.13H143.67a1,1,0,1,1,0-2h22.67a1,1,0,1,1,0,2Z" fill="#ffbc0e"></path><path d="M154.38,138h-13a1,1,0,0,1,0-2h13a1,1,0,0,1,0,2Z" fill="#093f68"></path><path d="M159.56,148.83h-14.7a1,1,0,0,1,0-2h14.7a1,1,0,0,1,0,2Z" fill="#f56132"></path><path d="M167,159.68H144.36a1,1,0,0,1,0-2H167a1,1,0,1,1,0,2Z" fill="#093f68"></path><path d="M149.87,170.53h-11a1,1,0,0,1,0-2h11a1,1,0,0,1,0,2Z" fill="#093f68"></path><path d="M167,181.38H142.9a1,1,0,1,1,0-2H167a1,1,0,0,1,0,2Z" fill="#70cc40"></path><path d="M190.17,181.38H174.32a1,1,0,0,1,0-2h15.85a1,1,0,0,1,0,2Z" fill="#ffbc0e"></path><path d="M185,127.13h-11.2a1,1,0,0,1,0-2H185a1,1,0,0,1,0,2Z" fill="#093f68"></path><path d="M201,116.28H179.43a1,1,0,0,1,0-2H201a1,1,0,0,1,0,2Z" fill="#02569b"></path><path d="M197.41,127.13h-6.3a1,1,0,0,1,0-2h6.3a1,1,0,0,1,0,2Z" fill="#f56132"></path><path d="M170.19,148.83H163.9a1,1,0,0,1,0-2h6.29a1,1,0,0,1,0,2Z" fill="#f56132"></path><path d="M201,148.83H175.37a1,1,0,0,1,0-2H201a1,1,0,0,1,0,2Z" fill="#ffbc0e"></path><path d="M179.43,159.68h-5.6a1,1,0,1,1,0-2h5.6a1,1,0,0,1,0,2Z" fill="#02569b"></path><path d="M201,181.38h-3.57a1,1,0,1,1,0-2H201a1,1,0,1,1,0,2Z" fill="#093f68"></path><g id="ahcQ9Z"><path d="M124.52,136.49a2.21,2.21,0,0,0-1.72-2.07c-.83-.18-1.67-.31-2.51-.44a.55.55,0,0,1-.49-.42c-.25-.66-.53-1.32-.82-2a.44.44,0,0,1,0-.51c.51-.69,1-1.38,1.49-2.1a2.2,2.2,0,0,0-.2-2.69c-.76-.84-1.59-1.63-2.39-2.44a2.35,2.35,0,0,0-3.21-.29c-.63.43-1.25.88-1.87,1.33a.42.42,0,0,1-.5,0c-.71-.31-1.43-.61-2.15-.88a.44.44,0,0,1-.33-.39c-.12-.77-.24-1.54-.38-2.3a2.32,2.32,0,0,0-2.22-2q-1.77,0-3.54,0a2.24,2.24,0,0,0-2.15,1.75c-.19.86-.32,1.73-.46,2.6a.46.46,0,0,1-.33.39c-.69.28-1.37.57-2,.87a.39.39,0,0,1-.48,0c-.68-.5-1.36-1-2.07-1.48a2.22,2.22,0,0,0-2.72.18c-.9.82-1.77,1.68-2.6,2.58a2.26,2.26,0,0,0-.15,3c.46.66.94,1.31,1.39,2a.43.43,0,0,1,0,.35c-.28.74-.58,1.48-.89,2.22A.49.49,0,0,1,91,134c-.77.14-1.53.26-2.3.38a2.34,2.34,0,0,0-2.06,2.16c0,1.23,0,2.47,0,3.7a2.23,2.23,0,0,0,1.71,2.06c.87.2,1.77.33,2.65.48a.41.41,0,0,1,.37.3c.28.71.58,1.4.89,2.09a.41.41,0,0,1,0,.45c-.47.63-.94,1.27-1.38,1.92a2.31,2.31,0,0,0,.27,3.11c.73.75,1.48,1.5,2.24,2.24a2.32,2.32,0,0,0,3.19.24c.64-.45,1.28-.9,1.92-1.37a.36.36,0,0,1,.42,0c.65.28,1.31.56,2,.81a.51.51,0,0,1,.37.46c.11.76.24,1.52.37,2.27a2.3,2.3,0,0,0,2.12,2c1.24,0,2.49,0,3.73,0a2.22,2.22,0,0,0,2.06-1.74c.19-.83.31-1.69.45-2.53a.49.49,0,0,1,.36-.44c.69-.27,1.38-.56,2.06-.86a.39.39,0,0,1,.45.05c.63.46,1.28.91,1.92,1.37a2.38,2.38,0,0,0,1.54.47,2,2,0,0,0,1.38-.56c.82-.77,1.6-1.56,2.39-2.35a2.35,2.35,0,0,0,.29-3.26c-.43-.63-.88-1.26-1.33-1.88a.39.39,0,0,1,0-.44c.31-.7.6-1.39.87-2.1a.44.44,0,0,1,.4-.31l2.3-.38a2.32,2.32,0,0,0,2-2.2C124.55,138.92,124.55,137.71,124.52,136.49Zm-19,10a8.19,8.19,0,1,1,8.2-8.17A8.19,8.19,0,0,1,105.55,146.52Z" fill="#fff" stroke="#093f68" stroke-linecap="round" stroke-linejoin="round" stroke-width="2"></path></g><rect x="87.58" y="169.53" width="36.28" height="6.05" rx="2.06" fill="#fff"></rect><path d="M121.8,176.58H89.65a3.08,3.08,0,0,1-3.07-3.07v-1.92a3.07,3.07,0,0,1,3.07-3.06H121.8a3.06,3.06,0,0,1,3.06,3.06v1.92A3.07,3.07,0,0,1,121.8,176.58Zm-32.15-6.05a1.06,1.06,0,0,0-1.07,1.06v1.92a1.07,1.07,0,0,0,1.07,1.07H121.8a1.07,1.07,0,0,0,1.06-1.07v-1.92a1.06,1.06,0,0,0-1.06-1.06Z" fill="#093f68"></path><path d="M89.18,169.53H109.4a0,0,0,0,1,0,0v6a0,0,0,0,1,0,0H89.18a1.6,1.6,0,0,1-1.6-1.6v-2.85A1.6,1.6,0,0,1,89.18,169.53Z" fill="#ffbc0e"></path><path d="M109.4,176.58H89.18a2.61,2.61,0,0,1-2.6-2.6v-2.85a2.6,2.6,0,0,1,2.6-2.6H109.4a1,1,0,0,1,1,1v6.05A1,1,0,0,1,109.4,176.58Zm-20.22-6.05a.6.6,0,0,0-.6.6V174a.6.6,0,0,0,.6.6H108.4v-4.05Z" fill="#093f68"></path><path d="M145.17,223.14a1,1,0,0,1-.82-.43,1,1,0,0,1,.25-1.4l6.36-4.39-6.27-3.48a1,1,0,1,1,1-1.75l7.68,4.26a1,1,0,0,1,.51.82,1,1,0,0,1-.43.87L145.74,223A1,1,0,0,1,145.17,223.14Z" fill="#093f68"></path><path d="M238,223.14a1,1,0,0,1-.57-1.83l6.35-4.39-6.27-3.48a1,1,0,1,1,1-1.75l7.68,4.26a1,1,0,0,1,.51.82,1,1,0,0,1-.43.87L238.58,223A1,1,0,0,1,238,223.14Z" fill="#093f68"></path></svg>