<svg version="1.1" xmlns="http://www.w3.org/2000/svg" viewBox="0 0 635.5454545454546 804.1388272852465" width="635.5454545454546" height="804.1388272852465">
  <!-- svg-source:excalidraw -->
  
  <defs>
    <style>
      @font-face {
        font-family: "Virgil";
        src: url("https://excalidraw.com/Virgil.woff2");
      }
      @font-face {
        font-family: "Cascadia";
        src: url("https://excalidraw.com/Cascadia.woff2");
      }
    </style>
  </defs>
  <g stroke-linecap="round" transform="translate(10.462724010596048 277.32080220828027) rotate(0 292.48253943142964 95.01721909050437)"><path d="M48.93 0.32 L538.72 1.57 L558.58 3.48 L565.64 4.93 L576 13.1 L581.77 26.23 L584.56 34.77 L583.4 143.48 L582.01 163.15 L577.18 175.21 L566.18 183.12 L557.24 185.9 L542.92 190.3 L48.15 190.41 L28.22 186.25 L18.46 183.69 L7.42 173.21 L3.97 163.5 L1.65 152.39 L1.4 37.77 L6.17 17.49 L13.17 8.45 L33.21 1.63 L48.76 1.45" stroke="none" stroke-width="0" fill="#fab005"></path><path d="M47.51 0 M47.51 0 C178.09 -0.02, 307.79 -1.07, 537.46 0 M47.51 0 C181.15 1.99, 314.35 1.84, 537.46 0 M537.46 0 C569.56 1.84, 586.92 17.41, 584.97 47.51 M537.46 0 C568.2 -1.95, 585.16 18.08, 584.97 47.51 M584.97 47.51 C582.6 82.14, 586.02 118.94, 584.97 142.53 M584.97 47.51 C585.3 73.91, 585.51 100.42, 584.97 142.53 M584.97 142.53 C585.19 173.46, 569.78 190.25, 537.46 190.03 M584.97 142.53 C586.9 174.54, 566.97 190.29, 537.46 190.03 M537.46 190.03 C396.46 190.26, 256.11 190.07, 47.51 190.03 M537.46 190.03 C387.25 188.83, 236.38 188.52, 47.51 190.03 M47.51 190.03 C17.67 188.97, -1.47 175.74, 0 142.53 M47.51 190.03 C16.67 192.25, 1.68 173.23, 0 142.53 M0 142.53 C2.04 107.2, 1.46 76.71, 0 47.51 M0 142.53 C1.62 116.71, 0.42 90.05, 0 47.51 M0 47.51 C0.38 17.53, 17.81 1.97, 47.51 0 M0 47.51 C2.04 16.28, 16.44 -0.11, 47.51 0" stroke="#000000" stroke-width="4" fill="none"></path></g><g transform="translate(170.09446954012196 304.2490552215616) rotate(0 139.5 68)"><text x="139.5" y="27" font-family="Cascadia, Segoe UI Emoji" font-size="28px" fill="#000000" text-anchor="middle" style="white-space: pre;" direction="ltr">O que é Flutter</text><text x="139.5" y="61" font-family="Cascadia, Segoe UI Emoji" font-size="28px" fill="#000000" text-anchor="middle" style="white-space: pre;" direction="ltr">Por que o Flutter</text><text x="139.5" y="95" font-family="Cascadia, Segoe UI Emoji" font-size="28px" fill="#000000" text-anchor="middle" style="white-space: pre;" direction="ltr">Hot Reload</text><text x="139.5" y="129" font-family="Cascadia, Segoe UI Emoji" font-size="28px" fill="#000000" text-anchor="middle" style="white-space: pre;" direction="ltr">Hot Restart</text></g><g stroke-linecap="round" transform="translate(11.378787878787875 10) rotate(0 307.08333333333337 58.11807331628302)"><path d="M27.5 -0.48 L591.37 1.31 L603.44 3.2 L608.7 9.04 L613.78 17.77 L614.82 29.72 L615.09 93.08 L610.64 98.08 L607.88 109.28 L599.76 115.98 L583.81 115.03 L24.08 114.3 L12.37 111.96 L5.22 104.19 L2.14 98 L-2 85.91 L1 29.09 L1.37 14.48 L8.67 8.67 L16.21 1.17 L28.92 1.61" stroke="none" stroke-width="0" fill="#99ccff"></path><path d="M29.06 0 M29.06 0 C140.93 -0.73, 252.11 -0.71, 585.11 0 M29.06 0 C241.87 1.61, 454.26 1.28, 585.11 0 M585.11 0 C603.97 1.79, 613.95 8.79, 614.17 29.06 M585.11 0 C606.67 -1.9, 612.74 9.77, 614.17 29.06 M614.17 29.06 C612.95 44.23, 613.47 61.87, 614.17 87.18 M614.17 29.06 C614.08 50.21, 614.38 71.9, 614.17 87.18 M614.17 87.18 C615.04 107.34, 605.79 114.71, 585.11 116.24 M614.17 87.18 C614.61 105.08, 605.1 116.76, 585.11 116.24 M585.11 116.24 C438.98 115.45, 291.13 115.89, 29.06 116.24 M585.11 116.24 C418.76 117.85, 252.93 117.61, 29.06 116.24 M29.06 116.24 C10.72 116.68, -1.38 105.73, 0 87.18 M29.06 116.24 C7.84 114.33, -0.1 107.28, 0 87.18 M0 87.18 C0.58 75.21, -1.11 62.1, 0 29.06 M0 87.18 C0.37 63.36, 0.29 42.32, 0 29.06 M0 29.06 C-1.34 9.59, 8.4 -1.27, 29.06 0 M0 29.06 C0.54 8.35, 7.56 -2.1, 29.06 0" stroke="#000000" stroke-width="4" fill="none"></path></g><g transform="translate(72.12878787878788 44.98614663256609) rotate(0 243 21.5)"><text x="0" y="35" font-family="Cascadia, Segoe UI Emoji" font-size="36px" fill="#000000" text-anchor="start" style="white-space: pre;" direction="ltr">Flutter para iniciantes</text></g><g stroke-linecap="round"><g transform="translate(313.08333333333337 140.43049395191338) rotate(0 -0.625 65)"><path d="M0 0 C-0.21 21.67, -1.04 108.33, -1.25 130" stroke="#000000" stroke-width="4.5" fill="none" stroke-dasharray="8 12"></path></g></g><g stroke-linecap="round"><g transform="translate(311.20833333333337 481.6804939519134) rotate(0 -0.625 65.00000000000001)"><path d="M0 0 C-0.21 21.67, -1.04 108.33, -1.25 130" stroke="#000000" stroke-width="4.5" fill="none" stroke-dasharray="8 12"></path></g></g><g stroke-linecap="round" transform="translate(10 604.1043891042377) rotate(0 292.48253943142964 95.01721909050437)"><path d="M48.59 -0.3 L538.76 -0.3 L557.79 1.59 L568.1 7.28 L574.21 16.85 L580.8 28.14 L583.45 34.83 L585.6 141.37 L582.96 163.56 L577.04 174.09 L567.66 182.78 L556.59 186.98 L541.99 188.59 L47.6 190.62 L25.91 188.57 L16.85 183.28 L10.18 176.55 L1.75 161.59 L-1.17 154.87 L0.13 35.89 L7.4 19.95 L14.93 10.13 L29.89 1.19 L47.59 -0.21" stroke="none" stroke-width="0" fill="#fab005"></path><path d="M47.51 0 M47.51 0 C242.53 -1.46, 439.83 -2.39, 537.46 0 M47.51 0 C155.01 -1.83, 261.73 -2.09, 537.46 0 M537.46 0 C568.69 1.39, 585.16 14.06, 584.97 47.51 M537.46 0 C570.69 -0.09, 584.1 15.38, 584.97 47.51 M584.97 47.51 C584.46 80.58, 586.37 112.81, 584.97 142.53 M584.97 47.51 C584.25 78.35, 584.82 107.8, 584.97 142.53 M584.97 142.53 C585.61 174.35, 569.2 191.79, 537.46 190.03 M584.97 142.53 C586.03 173.49, 571.08 189.78, 537.46 190.03 M537.46 190.03 C434.9 191.16, 331.55 192.26, 47.51 190.03 M537.46 190.03 C381.23 191.66, 223.82 191.75, 47.51 190.03 M47.51 190.03 C14.7 189.08, 0.43 174.83, 0 142.53 M47.51 190.03 C15.08 188.15, -0.06 171.92, 0 142.53 M0 142.53 C1.26 111, 1.27 79.48, 0 47.51 M0 142.53 C-0.74 116.24, 0.32 91.25, 0 47.51 M0 47.51 C0.68 14.93, 14.68 -0.57, 47.51 0 M0 47.51 C-1.78 14.46, 15.02 1.71, 47.51 0" stroke="#000000" stroke-width="4" fill="none"></path></g><g transform="translate(110.08333333333337 619.22216061858) rotate(0 197 85)"><text x="197" y="27" font-family="Cascadia, Segoe UI Emoji" font-size="28px" fill="#000000" text-anchor="middle" style="white-space: pre;" direction="ltr">Imperativo X Declarativo</text><text x="197" y="61" font-family="Cascadia, Segoe UI Emoji" font-size="28px" fill="#000000" text-anchor="middle" style="white-space: pre;" direction="ltr">Composição x Herança</text><text x="197" y="95" font-family="Cascadia, Segoe UI Emoji" font-size="28px" fill="#000000" text-anchor="middle" style="white-space: pre;" direction="ltr">Navegação</text><text x="197" y="129" font-family="Cascadia, Segoe UI Emoji" font-size="28px" fill="#000000" text-anchor="middle" style="white-space: pre;" direction="ltr">Estrutura</text><text x="197" y="163" font-family="Cascadia, Segoe UI Emoji" font-size="28px" fill="#000000" text-anchor="middle" style="white-space: pre;" direction="ltr">main.dart</text></g></svg>