<svg version="1.1" xmlns="http://www.w3.org/2000/svg" viewBox="0 0 632.0472016408478 260.29233172209524" width="632.0472016408478" height="260.29233172209524">
  <!-- svg-source:excalidraw -->
  
  <defs>
    <style class="style-fonts">
      @font-face {
        font-family: "Virgil";
        src: url("https://excalidraw.com/Virgil.woff2");
      }
      @font-face {
        font-family: "Cascadia";
        src: url("https://excalidraw.com/Cascadia.woff2");
      }
    </style>
    
  </defs>
  <g stroke-linecap="round" transform="translate(10 10) rotate(0 306.0236008204239 120.14616586104762)"><path d="M58.87 1.92 L552.86 0.15 L565.64 2.62 L579.92 2.59 L591.13 10.67 L601.2 20.94 L606.67 28.85 L611.77 44.64 L610.75 181.6 L610.33 193.26 L608.68 208.06 L602.17 216.47 L591.91 227.19 L577.94 234.75 L558.5 241.14 L60.31 239.31 L46.3 239.92 L34.43 235.69 L19.56 228.39 L9.51 219.79 L6.09 210.61 L1.13 196.04 L0.21 44.2 L5.61 28.7 L10.86 19.19 L18.95 9.93 L35.67 2.26 L46.77 0.08 L62.01 0.82" stroke="none" stroke-width="0" fill="#fcdb8d"></path><path d="M60.07 0 M60.07 0 C230.93 1.66, 402.24 1.54, 551.97 0 M60.07 0 C230.95 1.7, 402.52 1.76, 551.97 0 M551.97 0 C591.8 1.45, 612.84 21.38, 612.05 60.07 M551.97 0 C590.02 1.01, 613.96 20.58, 612.05 60.07 M612.05 60.07 C612.97 101.25, 613.62 143.53, 612.05 180.22 M612.05 60.07 C612.2 100.17, 613.36 139.32, 612.05 180.22 M612.05 180.22 C613.69 219.09, 591.16 241.17, 551.97 240.29 M612.05 180.22 C613.07 220.29, 590.45 239.87, 551.97 240.29 M551.97 240.29 C385.39 239.57, 217.25 239.15, 60.07 240.29 M551.97 240.29 C448.66 241.56, 344.48 241.43, 60.07 240.29 M60.07 240.29 C18.44 241.5, 0.64 222.05, 0 180.22 M60.07 240.29 C19.96 242.18, -1.9 220.26, 0 180.22 M0 180.22 C-0.63 140.47, -1.16 100.68, 0 60.07 M0 180.22 C-0.29 135.36, -0.08 91.21, 0 60.07 M0 60.07 C-1.83 19.03, 21.84 -0.03, 60.07 0 M0 60.07 C-1.12 19.38, 20.26 -0.68, 60.07 0" stroke="#000000" stroke-width="4" fill="none"></path></g><g stroke-linecap="round" transform="translate(198.76672151314898 39.374413296689) rotate(0 91.73484808228284 20.947327514851963)"><path d="M12.4 0.89 L177.73 0.25 L184.49 7.55 L181.65 34.09 L176.75 41.89 L174.93 42.38 L6.35 41.9 L-0.7 34.71 L1.38 9.69 L1.58 3 L12.04 -1.43" stroke="none" stroke-width="0" fill="#fab005"></path><path d="M10.47 0 M10.47 0 C55.98 -0.48, 101.38 2.38, 173 0 M10.47 0 C61.44 0.07, 111.42 0.03, 173 0 M173 0 C179.58 -1.99, 181.97 3.72, 183.47 10.47 M173 0 C178.5 0.22, 185.47 2.66, 183.47 10.47 M183.47 10.47 C182.81 15.07, 183.38 17.72, 183.47 31.42 M183.47 10.47 C182.88 19.7, 183.72 27.47, 183.47 31.42 M183.47 31.42 C181.68 36.75, 178.55 41.85, 173 41.89 M183.47 31.42 C181.42 38.02, 181.09 41.77, 173 41.89 M173 41.89 C135.85 43.97, 99.21 44.16, 10.47 41.89 M173 41.89 C118.23 41.31, 62.82 40.98, 10.47 41.89 M10.47 41.89 C3.11 41.17, 1.15 37.54, 0 31.42 M10.47 41.89 C5.56 41.19, 0.69 40.18, 0 31.42 M0 31.42 C0.94 23.61, 1.81 14.92, 0 10.47 M0 31.42 C-0.08 25.36, -0.28 21.06, 0 10.47 M0 10.47 C0.87 2.49, 4.63 0.7, 10.47 0 M0 10.47 C-1.69 3.13, 1.44 0.78, 10.47 0" stroke="#000000" stroke-width="4" fill="none"></path></g><g transform="translate(236.80899447115604 48.76459459645025) rotate(0 56.3410877985674 10.353276817685469)"><text x="0" y="0" font-family="Cascadia, Segoe UI Emoji" font-size="17.449024677686033px" fill="#000000" text-anchor="start" style="white-space: pre;" direction="ltr" dominant-baseline="text-before-edge">App Packing</text></g><g transform="translate(35.040483466030025 45.87530804267749) rotate(0 59.711922111302215 15.168754407306665)"><text x="0" y="0" font-family="Cascadia, Segoe UI Emoji" font-size="25.398844588978502px" fill="#000000" text-anchor="start" style="white-space: pre;" direction="ltr" dominant-baseline="text-before-edge">Embedder</text></g><g transform="translate(36.00357898395413 78.37978177262039) rotate(0 47.43245425776831 24.077387948105752)"><text x="0" y="0" font-family="Cascadia, Segoe UI Emoji" font-size="20.12438395662568px" fill="#000000" text-anchor="start" style="white-space: pre;" direction="ltr" dominant-baseline="text-before-edge">Platform</text><text x="0" y="24.077387948105734" font-family="Cascadia, Segoe UI Emoji" font-size="20.12438395662568px" fill="#000000" text-anchor="start" style="white-space: pre;" direction="ltr" dominant-baseline="text-before-edge">specific</text></g><g stroke-linecap="round" transform="translate(197.3220782362626 92.10389290304056) rotate(0 192.13755582588385 20.947327514851963)"><path d="M12.15 1.66 L372.63 -1.91 L380.83 3.27 L385.55 6.38 L384.73 32.08 L380.3 37.98 L375.18 41.11 L9.44 42.28 L4.18 37.84 L-0.36 30.29 L-0.95 5.57 L0.84 1.87 L11.55 0.24" stroke="none" stroke-width="0" fill="#fab005"></path><path d="M10.47 0 M10.47 0 C102.06 -1.17, 193.19 -0.89, 373.8 0 M10.47 0 C82.96 -0.2, 156.8 -0.49, 373.8 0 M373.8 0 C378.99 -0.26, 384.58 2.85, 384.28 10.47 M373.8 0 C380.99 -0.07, 382.47 5.65, 384.28 10.47 M384.28 10.47 C386.29 16.01, 385.33 18.12, 384.28 31.42 M384.28 10.47 C383.24 14.86, 384.61 19.53, 384.28 31.42 M384.28 31.42 C382.8 36.55, 381.78 41.53, 373.8 41.89 M384.28 31.42 C385.73 38.15, 382.45 42.81, 373.8 41.89 M373.8 41.89 C241.29 43.2, 107.31 42.66, 10.47 41.89 M373.8 41.89 C278.46 40.72, 182.17 41.4, 10.47 41.89 M10.47 41.89 C4.81 40.34, 0.88 39.18, 0 31.42 M10.47 41.89 C3.32 43.79, -1.35 37.41, 0 31.42 M0 31.42 C-1.46 23.85, 0.7 17.88, 0 10.47 M0 31.42 C-0.86 26.03, -1.01 21.28, 0 10.47 M0 10.47 C0.95 5.35, 4.94 -0.51, 10.47 0 M0 10.47 C0.99 1.67, 4.88 0.74, 10.47 0" stroke="#000000" stroke-width="4" fill="none"></path></g><g transform="translate(287.8530569211402 102.69794360020705) rotate(0 102.32889877944939 10.353276817685469)"><text x="0" y="0" font-family="Cascadia, Segoe UI Emoji" font-size="17.449024677686033px" fill="#000000" text-anchor="start" style="white-space: pre;" direction="ltr" dominant-baseline="text-before-edge">Render surfase setup</text></g><g stroke-linecap="round" transform="translate(399.0905892413887 38.65209165824581) rotate(0 90.77175256435862 20.947327514851963)"><path d="M9.64 0.65 L177.58 1.14 L181.35 6.55 L179.54 34.71 L177.03 40.46 L170.03 42.28 L7.45 39.81 L0.29 34.87 L-1.6 10.15 L0.84 1.87 L11.55 0.24" stroke="none" stroke-width="0" fill="#fab005"></path><path d="M10.47 0 M10.47 0 C51.42 -1.3, 91.64 -0.85, 171.07 0 M10.47 0 C42.05 -0.08, 75.78 -0.54, 171.07 0 M171.07 0 C176.26 -0.26, 181.85 2.85, 181.54 10.47 M171.07 0 C178.26 -0.07, 179.74 5.65, 181.54 10.47 M181.54 10.47 C183.56 16.01, 182.6 18.12, 181.54 31.42 M181.54 10.47 C180.5 14.86, 181.88 19.53, 181.54 31.42 M181.54 31.42 C180.07 36.55, 179.05 41.53, 171.07 41.89 M181.54 31.42 C183 38.15, 179.72 42.81, 171.07 41.89 M171.07 41.89 C113.7 43.09, 54 42.22, 10.47 41.89 M171.07 41.89 C129.58 40.9, 86.58 41.98, 10.47 41.89 M10.47 41.89 C4.81 40.34, 0.88 39.18, 0 31.42 M10.47 41.89 C3.32 43.79, -1.35 37.41, 0 31.42 M0 31.42 C-1.46 23.85, 0.7 17.88, 0 10.47 M0 31.42 C-0.86 26.03, -1.01 21.28, 0 10.47 M0 10.47 C0.95 5.35, 4.94 -0.51, 10.47 0 M0 10.47 C0.99 1.67, 4.88 0.74, 10.47 0" stroke="#000000" stroke-width="4" fill="none"></path></g><g transform="translate(429.9096458149641 49.968463993855494) rotate(0 61.63811314715065 10.353276817685469)"><text x="0" y="0" font-family="Cascadia, Segoe UI Emoji" font-size="17.449024677686033px" fill="#000000" text-anchor="start" style="white-space: pre;" direction="ltr" dominant-baseline="text-before-edge">Thread Setup</text></g><g stroke-linecap="round" transform="translate(198.17550449231163 147.47565397562244) rotate(0 190.9336864284785 20.947327514851963)"><path d="M10.35 1.64 L370.98 0.16 L377.73 2 L381.19 4.3 L381.65 32.52 L379.61 39.85 L370.72 43.75 L10.41 40.24 L2.07 37.72 L-0.35 29.53 L-0.11 5.28 L2.89 1.62 L11.07 -1.09" stroke="none" stroke-width="0" fill="#fab005"></path><path d="M10.47 0 M10.47 0 C123.61 0.87, 238.21 2.99, 371.39 0 M10.47 0 C104.74 -0.79, 198.29 -0.04, 371.39 0 M371.39 0 C379.05 -0.42, 381.42 3.4, 381.87 10.47 M371.39 0 C377.76 1.87, 382.95 5.05, 381.87 10.47 M381.87 10.47 C383.74 18.63, 381.99 24.96, 381.87 31.42 M381.87 10.47 C381.25 14.36, 382.31 19.54, 381.87 31.42 M381.87 31.42 C381.13 36.86, 377.88 41.66, 371.39 41.89 M381.87 31.42 C379.99 39.91, 378.32 42.44, 371.39 41.89 M371.39 41.89 C295.07 42.9, 218.88 43.82, 10.47 41.89 M371.39 41.89 C285.97 42, 200.67 42.73, 10.47 41.89 M10.47 41.89 C4.89 43.7, 0.34 37.77, 0 31.42 M10.47 41.89 C5.5 42.49, 0.32 37.78, 0 31.42 M0 31.42 C-0.31 25.78, 1.48 19.88, 0 10.47 M0 31.42 C0.01 24.45, 0.23 15.83, 0 10.47 M0 10.47 C-0.09 2.87, 3.03 -0.61, 10.47 0 M0 10.47 C-2.19 5.25, 5.44 -1.32, 10.47 0" stroke="#000000" stroke-width="4" fill="none"></path></g><g transform="translate(320.4886352686887 158.31047855227007) rotate(0 71.75061608535509 10.353276817685469)"><text x="0" y="0" font-family="Cascadia, Segoe UI Emoji" font-size="17.449024677686033px" fill="#000000" text-anchor="start" style="white-space: pre;" direction="ltr" dominant-baseline="text-before-edge">Native Plugins</text></g><g stroke-linecap="round" transform="translate(196.14612465097122 196.09477949654752) rotate(0 192.13755582588385 20.947327514851963)"><path d="M8.77 1.31 L373.36 -0.15 L381.93 0.74 L385.61 4.6 L385.21 31.36 L380.22 37.7 L371.93 43.32 L9.71 43.2 L1.03 39.29 L-0.34 30.87 L-0.29 7.84 L1.86 3.34 L8.53 0.25" stroke="none" stroke-width="0" fill="#fab005"></path><path d="M10.47 0 M10.47 0 C103.07 -0.17, 194.2 -0.96, 373.8 0 M10.47 0 C117.38 -1.1, 222.7 -1.18, 373.8 0 M373.8 0 C379.57 -1.46, 383.49 1.62, 384.28 10.47 M373.8 0 C381.59 -1.01, 385.5 2.56, 384.28 10.47 M384.28 10.47 C384.68 16.68, 383.59 22, 384.28 31.42 M384.28 10.47 C383.65 17.09, 383.56 21.71, 384.28 31.42 M384.28 31.42 C384.53 38.93, 379.93 43.69, 373.8 41.89 M384.28 31.42 C383.8 37.36, 380.16 42.1, 373.8 41.89 M373.8 41.89 C250.87 40.76, 128.45 40.16, 10.47 41.89 M373.8 41.89 C257.97 43.68, 142.07 44.4, 10.47 41.89 M10.47 41.89 C3.04 41.46, -1.53 39.25, 0 31.42 M10.47 41.89 C1.62 40.25, -0.83 40.14, 0 31.42 M0 31.42 C1.71 25.37, 1.03 14.78, 0 10.47 M0 31.42 C0.98 23.62, 0.77 16.33, 0 10.47 M0 10.47 C-0.23 3.63, 3.51 -1.04, 10.47 0 M0 10.47 C0.37 2.02, 2.18 -2.11, 10.47 0" stroke="#000000" stroke-width="4" fill="none"></path></g><g transform="translate(290.0479376485835 206.20728243475196) rotate(0 92.216395841245 10.353276817685583)"><text x="0" y="0" font-family="Cascadia, Segoe UI Emoji" font-size="17.449024677686033px" fill="#000000" text-anchor="start" style="white-space: pre;" direction="ltr" dominant-baseline="text-before-edge">Event Loop Interop</text></g></svg>