<svg version="1.1" xmlns="http://www.w3.org/2000/svg" viewBox="0 0 632.0472016408478 392.55744951702263" width="632.0472016408478" height="392.55744951702263">
  <!-- svg-source:excalidraw -->
  
  <defs>
    <style class="style-fonts">
      @font-face {
        font-family: "Virgil";
        src: url("https://excalidraw.com/Virgil.woff2");
      }
      @font-face {
        font-family: "Cascadia";
        src: url("https://excalidraw.com/Cascadia.woff2");
      }
    </style>
    
  </defs>
  <g stroke-linecap="round" transform="translate(10 10) rotate(0 306.0236008204239 186.27872475851132)"><path d="M91.35 -0.91 L517.53 1.16 L550.3 2.41 L576.68 13.27 L588.35 23.51 L595.03 27.94 L601.8 45.8 L607.99 60.6 L611.02 79.86 L610.82 289.64 L610.35 310.94 L598.17 334.74 L587.57 350.41 L575.48 359.86 L558.66 367.1 L531.19 370.82 L91.99 371.41 L62.06 370.48 L38.13 358.18 L23.33 349.14 L12.92 337.03 L4.46 320.33 L1.35 300.17 L-0.68 278.81 L1.55 94.51 L0.19 71.95 L4.87 53.82 L14.38 35.17 L22.68 22.39 L30.54 16.3 L52.69 5.01 L71.24 1.6 L93.34 1.27" stroke="none" stroke-width="0" fill="#bcddf7"></path><path d="M93.14 0 M93.14 0 C251.24 0.09, 406.54 -1.16, 518.91 0 M93.14 0 C211.76 -0.35, 331.06 -0.17, 518.91 0 M518.91 0 C580.6 -1.73, 612.36 33.03, 612.05 93.14 M518.91 0 C581.17 1.41, 612.18 31.46, 612.05 93.14 M612.05 93.14 C611.83 160.71, 609.91 229.88, 612.05 279.42 M612.05 93.14 C612.18 153.88, 613.29 214.19, 612.05 279.42 M612.05 279.42 C613.31 341.96, 582.36 370.71, 518.91 372.56 M612.05 279.42 C611.82 341.39, 579.18 371.86, 518.91 372.56 M518.91 372.56 C361.24 371.29, 205.57 371.81, 93.14 372.56 M518.91 372.56 C369.01 373.63, 219.22 373.61, 93.14 372.56 M93.14 372.56 C31.74 372.21, 0.99 342.82, 0 279.42 M93.14 372.56 C28.81 373.77, 0.65 342.53, 0 279.42 M0 279.42 C0.16 225, -2.37 171.87, 0 93.14 M0 279.42 C-0.46 209.54, -0.25 140.75, 0 93.14 M0 93.14 C-1.59 29.62, 29.25 -1.42, 93.14 0 M0 93.14 C1.21 29.41, 29.4 2.04, 93.14 0" stroke="#000000" stroke-width="4" fill="none"></path></g><g stroke-linecap="round" transform="translate(191.53915884992193 45.26842141213069) rotate(0 83.13578095795935 20.947327514851963)"><path d="M9.57 -1.37 L161.54 0.39 L164.75 6.91 L165.79 35.59 L160.6 42.05 L154.27 40.74 L7.67 40.45 L-0.23 35.34 L-2 9.61 L1.56 4.19 L10.34 -0.78" stroke="none" stroke-width="0" fill="#53adf5"></path><path d="M10.47 0 M10.47 0 C43.5 -0.43, 75.89 -0.47, 155.8 0 M10.47 0 C60.8 1.12, 112.87 1.71, 155.8 0 M155.8 0 C161.51 0.05, 166.14 3.31, 166.27 10.47 M155.8 0 C163.77 -1.56, 166.46 3.37, 166.27 10.47 M166.27 10.47 C167.75 17, 164.93 21.43, 166.27 31.42 M166.27 10.47 C165.81 15.46, 165.97 21.59, 166.27 31.42 M166.27 31.42 C164.75 38.71, 161.97 41.82, 155.8 41.89 M166.27 31.42 C166.43 38.64, 164.24 43.49, 155.8 41.89 M155.8 41.89 C98.39 41.16, 37.88 42.7, 10.47 41.89 M155.8 41.89 C119.7 41.48, 84.52 40.97, 10.47 41.89 M10.47 41.89 C1.76 42.21, 1.98 38.55, 0 31.42 M10.47 41.89 C4.9 42.02, 0.41 40, 0 31.42 M0 31.42 C-1.2 26.91, -0.82 23.44, 0 10.47 M0 31.42 C0.65 25.34, 0.88 18.39, 0 10.47 M0 10.47 C0.45 4.85, 1.64 -0.19, 10.47 0 M0 10.47 C-0.12 1.67, 2.79 1.57, 10.47 0" stroke="#000000" stroke-width="4" fill="none"></path></g><g transform="translate(208.7372930985689 57.78755358809735) rotate(0 66.96953476423124 8.444838694609757)"><text x="0" y="0" font-family="Cascadia, Segoe UI Emoji" font-size="14.232614598849896px" fill="#000000" text-anchor="start" style="white-space: pre;" direction="ltr" dominant-baseline="text-before-edge">Service Protocol</text></g><g transform="translate(33.31632376236996 48.32968930838979) rotate(0 44.78394158347669 15.168754407306665)"><text x="0" y="0" font-family="Cascadia, Segoe UI Emoji" font-size="25.3988445889785px" fill="#000000" text-anchor="start" style="white-space: pre;" direction="ltr" dominant-baseline="text-before-edge">Engine</text></g><g transform="translate(34.27941928029418 80.83416303833269) rotate(0 17.81726708159823 12.038693974052876)"><text x="0" y="0" font-family="Cascadia, Segoe UI Emoji" font-size="20.124383956625685px" fill="#000000" text-anchor="start" style="white-space: pre;" direction="ltr" dominant-baseline="text-before-edge">C++</text></g><g stroke-linecap="round" transform="translate(412.31734091121893 44.78687365316841) rotate(0 83.13578095795935 20.947327514851963)"><path d="M10.97 1.77 L161.23 1.54 L165.85 4.59 L166.65 37.84 L161.42 40.25 L157.71 43.38 L5.72 42.77 L-1.34 36.82 L1.26 11.36 L3.19 2.2 L10.14 1.47" stroke="none" stroke-width="0" fill="#53adf5"></path><path d="M10.47 0 M10.47 0 C50.43 0.85, 91.78 0.64, 155.8 0 M10.47 0 C60.52 -1.63, 111.21 -0.54, 155.8 0 M155.8 0 C161.22 -1.42, 164.61 2.78, 166.27 10.47 M155.8 0 C164.24 1.98, 166.42 5.12, 166.27 10.47 M166.27 10.47 C165.65 14.99, 166.51 22.26, 166.27 31.42 M166.27 10.47 C166.36 14.52, 165.9 20.32, 166.27 31.42 M166.27 31.42 C164.31 38.75, 163.93 43.26, 155.8 41.89 M166.27 31.42 C168.08 36.79, 162.15 43.63, 155.8 41.89 M155.8 41.89 C121.05 42.37, 90.56 43.37, 10.47 41.89 M155.8 41.89 C123.59 42.5, 91.66 43.42, 10.47 41.89 M10.47 41.89 C2.9 40.44, 0.16 38.99, 0 31.42 M10.47 41.89 C4.05 40.81, -0.17 36.43, 0 31.42 M0 31.42 C-1.09 25.53, -1.45 19.34, 0 10.47 M0 31.42 C-1 27.21, -0.89 22.36, 0 10.47 M0 10.47 C-0.63 1.86, 5.07 -1.36, 10.47 0 M0 10.47 C0.38 5.33, 4.02 1.55, 10.47 0" stroke="#000000" stroke-width="4" fill="none"></path></g><g transform="translate(450.8411616281883 57.71876105110255) rotate(0 45.98781098088193 8.667859661318062)"><text x="0" y="0" font-family="Cascadia, Segoe UI Emoji" font-size="14.232614598849896px" fill="#000000" text-anchor="start" style="white-space: pre;" direction="ltr" dominant-baseline="text-before-edge">Composition</text></g><g stroke-linecap="round" transform="translate(190.84011549419893 103.19799142857323) rotate(0 83.13578095795935 20.947327514851963)"><path d="M10.07 -0.5 L158.54 1.01 L164.44 7.25 L164.24 35.9 L162.04 40 L157.41 42.52 L4.24 41.69 L1.13 35.95 L1.87 10.45 L2.9 1.66 L12.37 1.68" stroke="none" stroke-width="0" fill="#53adf5"></path><path d="M10.47 0 M10.47 0 C51.55 2.5, 95.57 2.64, 155.8 0 M10.47 0 C44.33 -1.8, 79.9 -0.52, 155.8 0 M155.8 0 C164.67 1.9, 165.79 4.82, 166.27 10.47 M155.8 0 C161.48 0.7, 166.1 3.14, 166.27 10.47 M166.27 10.47 C166.46 19.03, 167.82 27.42, 166.27 31.42 M166.27 10.47 C166.95 19.47, 166.51 25.74, 166.27 31.42 M166.27 31.42 C168.26 40.16, 161.19 43.29, 155.8 41.89 M166.27 31.42 C167.13 38.34, 161.31 43.84, 155.8 41.89 M155.8 41.89 C117.47 43.15, 76.6 40.46, 10.47 41.89 M155.8 41.89 C100.36 43.3, 44.58 41.78, 10.47 41.89 M10.47 41.89 C3.11 43.31, 1.3 38.49, 0 31.42 M10.47 41.89 C2.67 41.03, -0.97 36.64, 0 31.42 M0 31.42 C0.49 23.63, 0.86 17.95, 0 10.47 M0 31.42 C0.49 25.66, -0.4 20.54, 0 10.47 M0 10.47 C-1.49 3.35, 2.9 -0.2, 10.47 0 M0 10.47 C2.15 1.95, 2.8 0.27, 10.47 0" stroke="#000000" stroke-width="4" fill="none"></path></g><g transform="translate(204.75149519754905 117.09297434443147) rotate(0 71.0282944469119 8.667859661318062)"><text x="0" y="0" font-family="Cascadia, Segoe UI Emoji" font-size="14.232614598849896px" fill="#000000" text-anchor="start" style="white-space: pre;" direction="ltr" dominant-baseline="text-before-edge">Platform channels</text></g><g stroke-linecap="round" transform="translate(412.56610584297755 103.73304449408647) rotate(0 83.13578095795935 20.947327514851963)"><path d="M11.53 0.86 L160.89 2.59 L164.08 6 L164.81 36.25 L159.98 41.84 L157.42 41.32 L4.57 40.73 L0.79 34.72 L1.7 9.13 L4.5 1.73 L10.91 -1.33" stroke="none" stroke-width="0" fill="#53adf5"></path><path d="M10.47 0 M10.47 0 C46.02 2.64, 79.55 2.19, 155.8 0 M10.47 0 C63.82 -0.06, 116.36 -0.62, 155.8 0 M155.8 0 C161.17 -1.69, 165.76 3.7, 166.27 10.47 M155.8 0 C161.28 -1.57, 164.22 3.55, 166.27 10.47 M166.27 10.47 C166.31 14.36, 165.73 18.71, 166.27 31.42 M166.27 10.47 C165.92 14.82, 165.92 19.76, 166.27 31.42 M166.27 31.42 C165.74 38.64, 163.34 41.83, 155.8 41.89 M166.27 31.42 C167.6 37.29, 163.78 41.82, 155.8 41.89 M155.8 41.89 C107.49 41.95, 58.06 41.05, 10.47 41.89 M155.8 41.89 C98.05 41.14, 40.53 41.62, 10.47 41.89 M10.47 41.89 C1.55 40.83, 0.17 39.7, 0 31.42 M10.47 41.89 C2.77 41.32, 1.92 40.63, 0 31.42 M0 31.42 C-0.85 25.24, -1.36 19.12, 0 10.47 M0 31.42 C0.14 26.4, 0.11 20.89, 0 10.47 M0 10.47 C0.13 1.6, 3.75 0.6, 10.47 0 M0 10.47 C-0.44 5.37, 5.22 -0.41, 10.47 0" stroke="#000000" stroke-width="4" fill="none"></path></g><g transform="translate(421.1804601977443 117.62802740994493) rotate(0 75.36222427757099 8.667859661318062)"><text x="0" y="0" font-family="Cascadia, Segoe UI Emoji" font-size="14.232614598849896px" fill="#000000" text-anchor="start" style="white-space: pre;" direction="ltr" dominant-baseline="text-before-edge">Dart Isolate setup</text></g><g stroke-linecap="round" transform="translate(190.4655783483396 158.30845717645957) rotate(0 83.13578095795941 20.947327514851963)"><path d="M11.03 -1.23 L160.06 2.56 L163.98 6.17 L165.39 37.79 L159.23 39.82 L154.48 43.6 L6.86 42.84 L-0.87 34.71 L1.43 10.47 L0.62 4.18 L11.2 1.14" stroke="none" stroke-width="0" fill="#53adf5"></path><path d="M10.47 0 M10.47 0 C45.3 -1.21, 80.33 -0.11, 155.8 0 M10.47 0 C59.12 0.8, 109.45 1.44, 155.8 0 M155.8 0 C163.3 1.76, 164.66 1.97, 166.27 10.47 M155.8 0 C164.82 0.41, 166.35 4.24, 166.27 10.47 M166.27 10.47 C164.52 15.91, 166.55 24.9, 166.27 31.42 M166.27 10.47 C167.28 17.66, 167.07 26.6, 166.27 31.42 M166.27 31.42 C168.02 36.55, 161.07 41.14, 155.8 41.89 M166.27 31.42 C166.61 39.74, 163.85 42.68, 155.8 41.89 M155.8 41.89 C100.64 42.59, 44.18 42.41, 10.47 41.89 M155.8 41.89 C112.47 42.48, 67.51 42.1, 10.47 41.89 M10.47 41.89 C1.62 41.74, 1.04 40.36, 0 31.42 M10.47 41.89 C3.15 44.15, 0.01 36.41, 0 31.42 M0 31.42 C-1.96 24.81, 0.58 18.42, 0 10.47 M0 31.42 C0.5 25.09, 0.29 18.06, 0 10.47 M0 10.47 C-1.99 4.48, 1.84 -0.03, 10.47 0 M0 10.47 C-0.7 3.52, 1.97 1.47, 10.47 0" stroke="#000000" stroke-width="4" fill="none"></path></g><g transform="translate(234.33992972044337 171.13333396129087) rotate(0 37.80149907852598 8.667859661318062)"><text x="0" y="0" font-family="Cascadia, Segoe UI Emoji" font-size="14.232614598849896px" fill="#000000" text-anchor="start" style="white-space: pre;" direction="ltr" dominant-baseline="text-before-edge">Rendering</text></g><g stroke-linecap="round" transform="translate(412.67311645608015 158.84351024197326) rotate(0 83.13578095795935 20.947327514851963)"><path d="M10.16 1.9 L158.74 0.93 L165.39 7.67 L164.47 34.58 L159.06 42.94 L156.77 43.5 L4.36 39.95 L2.08 36 L-1.99 12.03 L3.34 3.76 L9.39 0.73" stroke="none" stroke-width="0" fill="#53adf5"></path><path d="M10.47 0 M10.47 0 C60.74 0.99, 114.88 1.59, 155.8 0 M10.47 0 C44.76 0.74, 77.32 1.21, 155.8 0 M155.8 0 C161.17 -1.52, 168.05 3.85, 166.27 10.47 M155.8 0 C162.86 0.75, 166.56 4.68, 166.27 10.47 M166.27 10.47 C166.25 17.41, 167.52 22.15, 166.27 31.42 M166.27 10.47 C167.22 16.16, 167.35 19.83, 166.27 31.42 M166.27 31.42 C164.56 37.65, 163.08 43.05, 155.8 41.89 M166.27 31.42 C167.34 39.19, 164.83 43.31, 155.8 41.89 M155.8 41.89 C118.8 43.8, 78.95 41.17, 10.47 41.89 M155.8 41.89 C107.2 41.73, 57.79 41.94, 10.47 41.89 M10.47 41.89 C4.53 43.86, -0.3 40.36, 0 31.42 M10.47 41.89 C3.5 39.9, 1.23 38.52, 0 31.42 M0 31.42 C0.8 27.26, 0.92 18.69, 0 10.47 M0 31.42 C0.12 25.38, -1.08 18.41, 0 10.47 M0 10.47 C-1.65 3.46, 2.88 0.03, 10.47 0 M0 10.47 C-1.52 4.96, 5.57 0.94, 10.47 0" stroke="#000000" stroke-width="4" fill="none"></path></g><g transform="translate(441.08443423484505 172.2034400923178) rotate(0 54.41489676271897 8.667859661318062)"><text x="0" y="0" font-family="Cascadia, Segoe UI Emoji" font-size="14.232614598849896px" fill="#000000" text-anchor="start" style="white-space: pre;" direction="ltr" dominant-baseline="text-before-edge">System Events</text></g><g stroke-linecap="round" transform="translate(189.50248283041537 213.68644945710275) rotate(0 83.13578095795935 20.947327514851963)"><path d="M10.34 1.18 L160.16 0.57 L164.64 5.07 L166.48 37.37 L161.45 41.67 L156.16 42.31 L4.66 41.29 L0.82 35.3 L-1.36 10.36 L1.57 2.57 L9.46 -1.5" stroke="none" stroke-width="0" fill="#53adf5"></path><path d="M10.47 0 M10.47 0 C41.93 0.11, 72.04 1.33, 155.8 0 M10.47 0 C68.1 -0.69, 125.3 -0.6, 155.8 0 M155.8 0 C162.47 1.04, 167.88 1.98, 166.27 10.47 M155.8 0 C164.39 1.22, 164.01 2.37, 166.27 10.47 M166.27 10.47 C165.2 16.45, 166.47 23.18, 166.27 31.42 M166.27 10.47 C165.71 14.36, 165.39 19.23, 166.27 31.42 M166.27 31.42 C166.33 38.67, 163.02 40.02, 155.8 41.89 M166.27 31.42 C167.53 36.97, 164.66 41.57, 155.8 41.89 M155.8 41.89 C125.2 42.31, 98.62 39.79, 10.47 41.89 M155.8 41.89 C100.77 39.87, 46.91 41.11, 10.47 41.89 M10.47 41.89 C5.41 40.07, 1.35 39.79, 0 31.42 M10.47 41.89 C5.04 41.56, 2.2 38.5, 0 31.42 M0 31.42 C-0.39 25.38, -0.92 15.03, 0 10.47 M0 31.42 C0.94 24.2, 0.04 17.44, 0 10.47 M0 10.47 C-0.93 4.8, 3.83 -0.18, 10.47 0 M0 10.47 C-0.58 4.82, 4 1.92, 10.47 0" stroke="#000000" stroke-width="4" fill="none"></path></g><g transform="translate(197.1537416672578 227.58143237296076) rotate(0 75.36222427757099 8.667859661318062)"><text x="0" y="0" font-family="Cascadia, Segoe UI Emoji" font-size="14.232614598849896px" fill="#000000" text-anchor="start" style="white-space: pre;" direction="ltr" dominant-baseline="text-before-edge">Dart Runtime mngmt</text></g><g stroke-linecap="round" transform="translate(413.6362119740045 214.22150252261622) rotate(0 83.13578095795935 20.947327514851963)"><path d="M10.26 -0.08 L159.4 -0.17 L166.48 7.26 L166.69 36.43 L160.74 41.65 L154.57 41.94 L6.06 40.53 L-0.71 35.89 L-1.05 10.42 L1.61 1.12 L8.64 -1.94" stroke="none" stroke-width="0" fill="#53adf5"></path><path d="M10.47 0 M10.47 0 C54.39 1.24, 98.18 1.55, 155.8 0 M10.47 0 C68.03 -0.22, 124.86 -0.47, 155.8 0 M155.8 0 C164.39 -1.51, 167.67 4.55, 166.27 10.47 M155.8 0 C160.52 -1.12, 167.24 1.55, 166.27 10.47 M166.27 10.47 C166.55 17.2, 164.62 27.02, 166.27 31.42 M166.27 10.47 C165.29 15.75, 166.18 22.26, 166.27 31.42 M166.27 31.42 C166.51 36.53, 163.87 40.65, 155.8 41.89 M166.27 31.42 C168.15 38.08, 160.54 42.44, 155.8 41.89 M155.8 41.89 C127.39 42.41, 96.98 43, 10.47 41.89 M155.8 41.89 C122.28 40.81, 91.08 39.6, 10.47 41.89 M10.47 41.89 C4.84 43.28, 1.35 38.11, 0 31.42 M10.47 41.89 C5.69 41.99, 1.17 37.82, 0 31.42 M0 31.42 C-0.93 24.43, 0.46 21.18, 0 10.47 M0 31.42 C-0.13 26.14, -0.67 22.62, 0 10.47 M0 10.47 C0.34 3.32, 2.99 1.15, 10.47 0 M0 10.47 C0.51 5.41, 3.35 2.29, 10.47 0" stroke="#000000" stroke-width="4" fill="none"></path></g><g transform="translate(431.8815215080133 228.11648543847446) rotate(0 66.93513849573401 8.667859661318062)"><text x="0" y="0" font-family="Cascadia, Segoe UI Emoji" font-size="14.232614598849896px" fill="#000000" text-anchor="start" style="white-space: pre;" direction="ltr" dominant-baseline="text-before-edge">Frame Scheduling</text></g><g stroke-linecap="round" transform="translate(189.7700093631721 269.5994948032594) rotate(0 83.13578095795941 20.947327514851963)"><path d="M9.31 1.1 L158.59 0.13 L164.83 5.46 L167.19 35.45 L159.65 40.24 L156.74 40.33 L6.22 40.17 L1.4 37.11 L1.47 12.12 L0.84 2.46 L12.04 -1.85" stroke="none" stroke-width="0" fill="#53adf5"></path><path d="M10.47 0 M10.47 0 C62.23 -1.91, 119.35 0.09, 155.8 0 M10.47 0 C54.22 1.91, 99.36 2.06, 155.8 0 M155.8 0 C164.03 -0.91, 166.69 3.95, 166.27 10.47 M155.8 0 C162.24 -1.6, 168.01 3.49, 166.27 10.47 M166.27 10.47 C164.82 18.39, 164.63 25.59, 166.27 31.42 M166.27 10.47 C165.59 17.94, 165.77 26.66, 166.27 31.42 M166.27 31.42 C164.42 37.58, 162.97 40.31, 155.8 41.89 M166.27 31.42 C167 40.48, 164.72 41.74, 155.8 41.89 M155.8 41.89 C107.78 40.65, 59.64 41.29, 10.47 41.89 M155.8 41.89 C122.93 43.2, 89.96 42.63, 10.47 41.89 M10.47 41.89 C3.76 42.63, 1.06 37.43, 0 31.42 M10.47 41.89 C2.97 41.66, -2.09 38.02, 0 31.42 M0 31.42 C-0.7 25.97, 2 21.42, 0 10.47 M0 31.42 C-0.54 23.85, -0.17 18.08, 0 10.47 M0 10.47 C-0.63 2.21, 5.13 1.01, 10.47 0 M0 10.47 C-2.21 3.16, 1.5 1.87, 10.47 0" stroke="#000000" stroke-width="4" fill="none"></path></g><g transform="translate(206.57067562029488 283.49447771911764) rotate(0 66.93513849573395 8.667859661318062)"><text x="0" y="0" font-family="Cascadia, Segoe UI Emoji" font-size="14.232614598849896px" fill="#000000" text-anchor="start" style="white-space: pre;" direction="ltr" dominant-baseline="text-before-edge">Asset Resolution</text></g><g stroke-linecap="round" transform="translate(414.3852862657234 270.13454786877287) rotate(0 83.13578095795935 20.947327514851963)"><path d="M8.68 -0.52 L159.59 0.23 L167.19 5.34 L164.89 35 L161.32 39.68 L156.13 40.82 L6.63 42.35 L2.12 37.65 L-1.78 10.32 L4.18 0.77 L11.85 0.76" stroke="none" stroke-width="0" fill="#53adf5"></path><path d="M10.47 0 M10.47 0 C64.95 1.73, 116.16 -0.58, 155.8 0 M10.47 0 C40.93 -0.1, 71.22 -1.26, 155.8 0 M155.8 0 C163.2 0.46, 165.8 2.1, 166.27 10.47 M155.8 0 C164.51 0, 167.87 4.63, 166.27 10.47 M166.27 10.47 C164.36 15.09, 168.04 21.44, 166.27 31.42 M166.27 10.47 C165.5 15.44, 165.18 20.85, 166.27 31.42 M166.27 31.42 C166.46 36.82, 163.41 43.7, 155.8 41.89 M166.27 31.42 C168.21 38.25, 163.34 40.99, 155.8 41.89 M155.8 41.89 C113.76 40.98, 73.99 39.88, 10.47 41.89 M155.8 41.89 C104.92 42.73, 54.12 43.09, 10.47 41.89 M10.47 41.89 C4.55 40.92, -0.45 38.2, 0 31.42 M10.47 41.89 C1.4 41.51, -1.01 37.9, 0 31.42 M0 31.42 C2.03 25.11, 0.91 18, 0 10.47 M0 31.42 C-0.01 26.5, -0.21 19, 0 10.47 M0 10.47 C1.64 4.5, 1.57 -0.29, 10.47 0 M0 10.47 C-1.99 5.37, 1.61 0.06, 10.47 0" stroke="#000000" stroke-width="4" fill="none"></path></g><g transform="translate(432.6305957997324 284.02953078463133) rotate(0 66.9351384957339 8.667859661318062)"><text x="0" y="0" font-family="Cascadia, Segoe UI Emoji" font-size="14.232614598849896px" fill="#000000" text-anchor="start" style="white-space: pre;" direction="ltr" dominant-baseline="text-before-edge">Frame Pipelining</text></g><g stroke-linecap="round" transform="translate(188.6999032321453 324.70996055114597) rotate(0 83.13578095795935 20.947327514851963)"><path d="M9.04 1.32 L160.71 0.57 L166.4 6.34 L167.54 37.2 L158.95 42.3 L154.8 41.87 L5.35 42.6 L1.39 36.59 L-1.28 9.83 L3.6 0.8 L11.8 -1.19" stroke="none" stroke-width="0" fill="#53adf5"></path><path d="M10.47 0 M10.47 0 C55.82 0.13, 101.35 1.12, 155.8 0 M10.47 0 C39.9 0.29, 71.36 -0.73, 155.8 0 M155.8 0 C163.81 1.16, 166.11 4.77, 166.27 10.47 M155.8 0 C161.92 -1.23, 164.84 1.6, 166.27 10.47 M166.27 10.47 C166.32 16.22, 165.41 20, 166.27 31.42 M166.27 10.47 C165.83 17.45, 165.32 23.05, 166.27 31.42 M166.27 31.42 C165.97 36.89, 163.13 40.31, 155.8 41.89 M166.27 31.42 C164.83 37.57, 160.61 40.39, 155.8 41.89 M155.8 41.89 C121.33 43.85, 86.27 41.17, 10.47 41.89 M155.8 41.89 C103.15 40.77, 48.53 40.46, 10.47 41.89 M10.47 41.89 C4.32 43.17, 0.7 38.43, 0 31.42 M10.47 41.89 C4.58 41.11, 0.69 37.4, 0 31.42 M0 31.42 C-0.91 25.25, 1.68 24.2, 0 10.47 M0 31.42 C1.05 25.37, -0.29 18.45, 0 10.47 M0 10.47 C0.22 4.97, 2.08 -1.94, 10.47 0 M0 10.47 C0.18 2.71, 5.59 -1.69, 10.47 0" stroke="#000000" stroke-width="4" fill="none"></path></g><g transform="translate(222.62226758569886 336.9997842704636) rotate(0 45.98781098088193 8.667859661318062)"><text x="0" y="0" font-family="Cascadia, Segoe UI Emoji" font-size="14.232614598849896px" fill="#000000" text-anchor="start" style="white-space: pre;" direction="ltr" dominant-baseline="text-before-edge">Text Layout</text></g></svg>