<svg version="1.1" xmlns="http://www.w3.org/2000/svg" viewBox="0 0 632.047201640848 321.930444869246" width="632.047201640848" height="321.930444869246">
  <!-- svg-source:excalidraw -->
  
  <defs>
    <style class="style-fonts">
      @font-face {
        font-family: "Virgil";
        src: url("https://excalidraw.com/Virgil.woff2");
      }
      @font-face {
        font-family: "Cascadia";
        src: url("https://excalidraw.com/Cascadia.woff2");
      }
    </style>
    
  </defs>
  <g stroke-linecap="round" transform="translate(10 10) rotate(0 306.023600820424 150.965222434623)"><path d="M73.79 0 L536.82 -1.54 L552.54 2.54 L576.87 6.06 L594.36 20.15 L600.65 30.89 L605.89 41.77 L609.5 57.57 L610.83 74.19 L612.78 226.12 L611.86 244.6 L605.97 267.92 L594.26 284.31 L582.45 290.4 L571.37 296.73 L547.54 301.59 L74.03 303.32 L50.1 300.29 L37.33 293.28 L21.97 289.21 L12.58 277.14 L9.34 264.54 L2.99 243.93 L0.38 228.04 L-0.69 77.31 L2.76 57.06 L4.71 42.39 L10.19 31.13 L21.92 15.02 L42.64 4.51 L56.18 1.07 L74.48 -0.52" stroke="none" stroke-width="0" fill="#c4f5c4"></path><path d="M75.48 0 M75.48 0 C185.41 0.54, 296.02 -0.04, 536.56 0 M75.48 0 C218.78 0.66, 361.31 0.48, 536.56 0 M536.56 0 C585.28 0.4, 610.75 24.24, 612.05 75.48 M536.56 0 C587.35 1.89, 612.72 23.24, 612.05 75.48 M612.05 75.48 C613.76 117.3, 613.02 159.34, 612.05 226.45 M612.05 75.48 C611.9 111.01, 611.2 146.74, 612.05 226.45 M612.05 226.45 C610.32 275.84, 586.36 302.29, 536.56 301.93 M612.05 226.45 C612.15 277.55, 585.56 304.16, 536.56 301.93 M536.56 301.93 C385.27 299.64, 235.74 299.76, 75.48 301.93 M536.56 301.93 C374.03 303.85, 212.11 303.62, 75.48 301.93 M75.48 301.93 C25.95 302.4, 0.45 275.09, 0 226.45 M75.48 301.93 C25.72 303.26, -2.01 277.49, 0 226.45 M0 226.45 C-1.12 165.35, 0.77 107.27, 0 75.48 M0 226.45 C-0.61 173.12, -1.25 120.46, 0 75.48 M0 75.48 C1.1 26.15, 24.16 -0.28, 75.48 0 M0 75.48 C1.77 26.17, 24.71 2.21, 75.48 0" stroke="#000000" stroke-width="4" fill="none"></path></g><g stroke-linecap="round" transform="translate(198.76672151314904 39.374413296689) rotate(0 91.7348480822829 20.947327514851963)"><path d="M11.65 -0.28 L176.38 0.42 L182.92 7.18 L182.97 34.83 L178.78 39.97 L172.11 41.71 L5.69 41.08 L2.3 36.14 L-0.01 10.6 L4.11 4.53 L11.13 0.82" stroke="none" stroke-width="0" fill="#82c91e"></path><path d="M10.47 0 M10.47 0 C43.35 -2.17, 80.39 -0.31, 173 0 M10.47 0 C66.01 -0.86, 124.05 -2.02, 173 0 M173 0 C179.21 0.45, 181.73 4.64, 183.47 10.47 M173 0 C178.77 2.08, 181.65 4, 183.47 10.47 M183.47 10.47 C183.54 16.93, 184.81 21.63, 183.47 31.42 M183.47 10.47 C183.98 16.52, 183.09 24.11, 183.47 31.42 M183.47 31.42 C183.48 38.63, 181.43 43.82, 173 41.89 M183.47 31.42 C184.6 40.21, 179.24 44.1, 173 41.89 M173 41.89 C130.19 42.41, 87.73 43.33, 10.47 41.89 M173 41.89 C130.88 40.98, 87.83 40.77, 10.47 41.89 M10.47 41.89 C5.34 42.54, -1.35 39.41, 0 31.42 M10.47 41.89 C3.8 43.95, 2.28 36.74, 0 31.42 M0 31.42 C-1.48 24.67, 1.01 19.6, 0 10.47 M0 31.42 C-0.79 23.17, 0.21 16.44, 0 10.47 M0 10.47 C1.45 5.08, 2.72 1.18, 10.47 0 M0 10.47 C1.33 2.16, 5.76 1.19, 10.47 0" stroke="#000000" stroke-width="4" fill="none"></path></g><g transform="translate(253.66316603483006 48.76459459645025) rotate(0 41.129843883117076 10.594050697166495)"><text x="0" y="0" font-family="Cascadia, Segoe UI Emoji" font-size="17.449024677686033px" fill="#000000" text-anchor="start" style="white-space: pre;" direction="ltr" dominant-baseline="text-before-edge">Material</text></g><g transform="translate(35.04048346602997 45.875308042677716) rotate(0 67.37749050687358 15.168754407306665)"><text x="0" y="0" font-family="Cascadia, Segoe UI Emoji" font-size="25.398844588978502px" fill="#000000" text-anchor="start" style="white-space: pre;" direction="ltr" dominant-baseline="text-before-edge">Framework</text></g><g transform="translate(36.003578983954185 78.37978177262039) rotate(0 24.077387948105752 12.218375973665616)"><text x="0" y="0" font-family="Cascadia, Segoe UI Emoji" font-size="20.124383956625685px" fill="#000000" text-anchor="start" style="white-space: pre;" direction="ltr" dominant-baseline="text-before-edge">Dart</text></g><g stroke-linecap="round" transform="translate(197.32207823626266 92.10389290304056) rotate(0 192.1375558258838 20.947327514851963)"><path d="M8.85 -1.69 L373.96 -0.17 L380.3 3.14 L383.84 4.39 L383.9 32.46 L382.15 40.2 L375.77 40.85 L9.71 42.23 L0.69 40.42 L-0.56 32.16 L-1.31 6.13 L1.46 1.55 L10.17 0.7" stroke="none" stroke-width="0" fill="#82c91e"></path><path d="M10.47 0 M10.47 0 C117.35 1.4, 223.16 2.85, 373.8 0 M10.47 0 C88.41 -1.76, 167.65 -1.91, 373.8 0 M373.8 0 C382.63 1.06, 386.24 2.64, 384.28 10.47 M373.8 0 C382.47 -1.01, 385.14 4.03, 384.28 10.47 M384.28 10.47 C383.33 17.33, 384.55 22.41, 384.28 31.42 M384.28 10.47 C384.06 17.93, 383.47 26.19, 384.28 31.42 M384.28 31.42 C385.6 38.58, 382.22 40.44, 373.8 41.89 M384.28 31.42 C384.9 38.15, 380.38 44.09, 373.8 41.89 M373.8 41.89 C271.48 42.31, 171.14 42.1, 10.47 41.89 M373.8 41.89 C252.71 42.27, 131.85 42.56, 10.47 41.89 M10.47 41.89 C2.77 40.91, 0.08 38.45, 0 31.42 M10.47 41.89 C1.88 43.64, 0.63 39.47, 0 31.42 M0 31.42 C-0.68 22.5, 0.63 15.27, 0 10.47 M0 31.42 C0.05 26.29, -0.49 20.32, 0 10.47 M0 10.47 C1.43 2.67, 2.9 1.37, 10.47 0 M0 10.47 C-0.4 1.73, 1.89 -1.83, 10.47 0" stroke="#000000" stroke-width="4" fill="none"></path></g><g transform="translate(356.23283869376064 104.62413463605571) rotate(0 36.11608192215863 10.353276817685469)"><text x="0" y="0" font-family="Cascadia, Segoe UI Emoji" font-size="17.449024677686033px" fill="#000000" text-anchor="start" style="white-space: pre;" direction="ltr" dominant-baseline="text-before-edge">Widgets</text></g><g stroke-linecap="round" transform="translate(198.04439987470585 143.14795535302483) rotate(0 191.89678194640277 20.947327514851963)"><path d="M12.26 0.07 L374.02 -0.46 L380.31 1.47 L383.65 4.11 L384.08 30.29 L381.61 38.83 L375.16 41.03 L9.21 43.05 L1.8 39.66 L-0.56 30.79 L1.13 4.94 L0.97 1.88 L11.14 1.32" stroke="none" stroke-width="0" fill="#82c91e"></path><path d="M10.47 0 M10.47 0 C139.02 1.14, 266.15 0.24, 373.32 0 M10.47 0 C154.15 -0.65, 298.06 0.2, 373.32 0 M373.32 0 C379.11 1.9, 383.73 2.68, 383.79 10.47 M373.32 0 C379.26 -1.34, 383.57 3.03, 383.79 10.47 M383.79 10.47 C385.07 14.17, 384.86 21.47, 383.79 31.42 M383.79 10.47 C384.55 14.62, 382.8 19.79, 383.79 31.42 M383.79 31.42 C381.92 39.47, 379.94 41.71, 373.32 41.89 M383.79 31.42 C383.88 39.35, 380.1 39.98, 373.32 41.89 M373.32 41.89 C249.17 40.68, 124.39 40.38, 10.47 41.89 M373.32 41.89 C247.41 43.04, 121.81 43.72, 10.47 41.89 M10.47 41.89 C3.27 42.82, 0.43 37.49, 0 31.42 M10.47 41.89 C4.59 39.77, 1.74 38.32, 0 31.42 M0 31.42 C0.32 26.51, -0.08 20.96, 0 10.47 M0 31.42 C-0.46 25.87, -0.42 20.96, 0 10.47 M0 10.47 C0.73 3.93, 2.72 -0.36, 10.47 0 M0 10.47 C1.01 3.29, 1.85 0.48, 10.47 0" stroke="#000000" stroke-width="4" fill="none"></path></g><g transform="translate(346.3611096350372 153.74200605019132) rotate(0 46.228584860363014 10.353276817685469)"><text x="0" y="0" font-family="Cascadia, Segoe UI Emoji" font-size="17.449024677686033px" fill="#000000" text-anchor="start" style="white-space: pre;" direction="ltr" dominant-baseline="text-before-edge">Rendering</text></g><g stroke-linecap="round" transform="translate(198.28517375418687 192.7473745261227) rotate(0 59.47114823182119 20.947327514851963)"><path d="M10.74 1.94 L111.92 0.88 L117.53 6.98 L119.99 37.42 L116.89 38.85 L109.14 41.73 L5.89 40.11 L-1.18 34.12 L-0.97 8.74 L1.87 2.29 L9.32 0.82" stroke="none" stroke-width="0" fill="#82c91e"></path><path d="M10.47 0 M10.47 0 C47.8 -1.02, 84.61 1.05, 108.47 0 M10.47 0 C33.07 0.39, 55.13 -0.76, 108.47 0 M108.47 0 C115.64 0.09, 118.13 2.44, 118.94 10.47 M108.47 0 C115.59 0.73, 120.14 3.15, 118.94 10.47 M118.94 10.47 C120.27 16.26, 120.72 20.78, 118.94 31.42 M118.94 10.47 C118.46 15.69, 119.84 19.09, 118.94 31.42 M118.94 31.42 C118.96 36.44, 114.87 42.16, 108.47 41.89 M118.94 31.42 C119.23 36.86, 116.24 40.52, 108.47 41.89 M108.47 41.89 C73.17 42.9, 36.75 40.03, 10.47 41.89 M108.47 41.89 C87.58 41.27, 65.09 40.89, 10.47 41.89 M10.47 41.89 C1.8 41.79, -1.89 37.72, 0 31.42 M10.47 41.89 C4.01 39.98, -0.32 36.71, 0 31.42 M0 31.42 C0.07 25.79, -0.68 21.55, 0 10.47 M0 31.42 C-0.27 27, -0.52 21.78, 0 10.47 M0 10.47 C-1.44 3.22, 1.53 -1.21, 10.47 0 M0 10.47 C1.72 2.68, 5.28 1.98, 10.47 0" stroke="#000000" stroke-width="4" fill="none"></path></g><g transform="translate(210.8054154872018 203.1006513438083) rotate(0 46.228584860363014 10.353276817685469)"><text x="0" y="0" font-family="Cascadia, Segoe UI Emoji" font-size="17.449024677686033px" fill="#000000" text-anchor="start" style="white-space: pre;" direction="ltr" dominant-baseline="text-before-edge">Animation</text></g><g stroke-linecap="round" transform="translate(330.9515813482494 192.7473745261227) rotate(0 59.47114823182119 20.947327514851963)"><path d="M8.57 1.52 L113.33 2.53 L118.17 3.94 L120.01 36.14 L117.01 39.93 L108.69 42.89 L6.88 41.08 L0.02 35.62 L0.03 9.38 L1.11 1.54 L12.2 -0.09" stroke="none" stroke-width="0" fill="#82c91e"></path><path d="M10.47 0 M10.47 0 C34.94 0.21, 54.19 0.06, 108.47 0 M10.47 0 C49 -0.96, 88.36 -1.48, 108.47 0 M108.47 0 C114.38 -1.75, 117.4 4.61, 118.94 10.47 M108.47 0 C113.25 1.67, 118.38 5.68, 118.94 10.47 M118.94 10.47 C120.88 16.73, 118.88 20.94, 118.94 31.42 M118.94 10.47 C119.45 19.46, 118.74 27.88, 118.94 31.42 M118.94 31.42 C117.78 37.13, 115.77 43.86, 108.47 41.89 M118.94 31.42 C117.45 36.82, 113.7 40.41, 108.47 41.89 M108.47 41.89 C75.81 43.11, 45.69 41.05, 10.47 41.89 M108.47 41.89 C79.53 41.24, 51.63 41.74, 10.47 41.89 M10.47 41.89 C4.28 43.49, 0.24 37.4, 0 31.42 M10.47 41.89 C1.83 43.39, 1.29 39.33, 0 31.42 M0 31.42 C-1.49 24.71, 0.87 15.06, 0 10.47 M0 31.42 C0.99 26.52, 0.61 19.4, 0 10.47 M0 10.47 C-1.64 4.99, 3.75 1.28, 10.47 0 M0 10.47 C1.01 2.67, 1.8 -1.09, 10.47 0" stroke="#000000" stroke-width="4" fill="none"></path></g><g stroke-linecap="round" transform="translate(464.3403105807554 193.22892228508454) rotate(0 59.47114823182119 20.947327514851963)"><path d="M12.26 1.44 L112.83 1.48 L120.23 6.18 L119.07 36.96 L117.66 38.81 L110.02 40.73 L4.62 41.56 L2.62 34.71 L-1.37 8.95 L1.33 3.13 L11.83 -1.43" stroke="none" stroke-width="0" fill="#82c91e"></path><path d="M10.47 0 M10.47 0 C35.94 -0.75, 62 -1.07, 108.47 0 M10.47 0 C31.99 0.97, 54.03 0.7, 108.47 0 M108.47 0 C114.45 -1.44, 120.24 4.61, 118.94 10.47 M108.47 0 C116.38 2.12, 120.95 5.49, 118.94 10.47 M118.94 10.47 C119.16 14.83, 118.23 18.46, 118.94 31.42 M118.94 10.47 C118.47 17.82, 119.86 26.93, 118.94 31.42 M118.94 31.42 C120.22 39.28, 114.73 40.42, 108.47 41.89 M118.94 31.42 C117.85 36.36, 116.42 42.25, 108.47 41.89 M108.47 41.89 C87.22 41.05, 69.77 41.62, 10.47 41.89 M108.47 41.89 C69.75 40.77, 31.61 42.21, 10.47 41.89 M10.47 41.89 C4.69 40.99, -0.86 39.94, 0 31.42 M10.47 41.89 C4.07 42.6, -1.71 36.13, 0 31.42 M0 31.42 C-0.7 23.98, 1.18 16.57, 0 10.47 M0 31.42 C-0.62 24.32, -1 17.58, 0 10.47 M0 10.47 C0.3 3.52, 3.53 1.94, 10.47 0 M0 10.47 C-2.02 1.71, 3.58 0.8, 10.47 0" stroke="#000000" stroke-width="4" fill="none"></path></g><g transform="translate(348.0465267914045 201.89678194640283) rotate(0 41.17233339126079 10.353276817685469)"><text x="0" y="0" font-family="Cascadia, Segoe UI Emoji" font-size="17.449024677686033px" fill="#000000" text-anchor="start" style="white-space: pre;" direction="ltr" dominant-baseline="text-before-edge">Painting</text></g><g transform="translate(483.60222093923994 202.85987746432693) rotate(0 41.17233339126085 10.353276817685469)"><text x="0" y="0" font-family="Cascadia, Segoe UI Emoji" font-size="17.449024677686033px" fill="#000000" text-anchor="start" style="white-space: pre;" direction="ltr" dominant-baseline="text-before-edge">Gestures</text></g><g stroke-linecap="round" transform="translate(399.09058924138867 38.65209165824581) rotate(0 90.77175256435862 20.947327514851963)"><path d="M12.23 -1.04 L174.68 -0.57 L182.54 5.93 L182.83 37.26 L176.07 42 L169.35 41.1 L5.75 41.43 L1.65 36.78 L-0.44 10.57 L2.43 4.49 L9.37 -1.01" stroke="none" stroke-width="0" fill="#82c91e"></path><path d="M10.47 0 M10.47 0 C50.61 1.36, 95.35 1.65, 171.07 0 M10.47 0 C52.45 0.53, 94.3 1.54, 171.07 0 M171.07 0 C178.4 -0.58, 180.2 3.9, 181.54 10.47 M171.07 0 C178.93 -0.23, 179.43 4.04, 181.54 10.47 M181.54 10.47 C181.06 18.44, 180.93 23.38, 181.54 31.42 M181.54 10.47 C181.57 14.51, 180.8 20.88, 181.54 31.42 M181.54 31.42 C182.3 38.6, 179.37 40.74, 171.07 41.89 M181.54 31.42 C181.9 36.19, 176.36 40.56, 171.07 41.89 M171.07 41.89 C109.34 39.61, 48.7 41.46, 10.47 41.89 M171.07 41.89 C124.77 43.7, 80.92 42.62, 10.47 41.89 M10.47 41.89 C3.27 42.68, -1.49 37.63, 0 31.42 M10.47 41.89 C4.85 43.47, -1.4 38.73, 0 31.42 M0 31.42 C-1.19 26.9, 0.2 17.15, 0 10.47 M0 31.42 C-0.34 24.81, -0.84 16.25, 0 10.47 M0 10.47 C-0.16 3.96, 5.04 -1.44, 10.47 0 M0 10.47 C-0.19 4.77, 2.19 1.57, 10.47 0" stroke="#000000" stroke-width="4" fill="none"></path></g><g transform="translate(450.616199450335 48.04227295800706) rotate(0 41.129843883117076 10.594050697166495)"><text x="0" y="0" font-family="Cascadia, Segoe UI Emoji" font-size="17.449024677686033px" fill="#000000" text-anchor="start" style="white-space: pre;" direction="ltr" dominant-baseline="text-before-edge">Material</text></g><g stroke-linecap="round" transform="translate(200.9336864284785 244.75453249403108) rotate(0 191.8967819464027 20.947327514851963)"><path d="M10.56 -1.6 L372.52 0.1 L381.19 0.93 L381.74 6.41 L385.57 31.33 L382.94 41.02 L374 41.77 L11.6 41.01 L1.36 38.98 L0.8 31.17 L-0.62 5.54 L1.28 3.16 L8.55 0.75" stroke="none" stroke-width="0" fill="#82c91e"></path><path d="M10.47 0 M10.47 0 C123.59 1.74, 237.63 0.13, 373.32 0 M10.47 0 C92.81 -2.16, 174.37 -1.34, 373.32 0 M373.32 0 C382.03 0.95, 385.72 2.75, 383.79 10.47 M373.32 0 C379.28 -1.35, 383.9 3.19, 383.79 10.47 M383.79 10.47 C384.42 16.74, 384.41 28.62, 383.79 31.42 M383.79 10.47 C384 17.56, 384.65 24.75, 383.79 31.42 M383.79 31.42 C382.16 40.03, 379.96 41.38, 373.32 41.89 M383.79 31.42 C384.09 37.49, 380.8 41.42, 373.32 41.89 M373.32 41.89 C251.31 41.01, 130.31 39.81, 10.47 41.89 M373.32 41.89 C249.48 43.96, 126.84 43.7, 10.47 41.89 M10.47 41.89 C4.97 41.84, 1.21 38.27, 0 31.42 M10.47 41.89 C4.24 40.61, -0.51 40.12, 0 31.42 M0 31.42 C0.3 25.32, -0.72 22.1, 0 10.47 M0 31.42 C-0.13 27.28, 0.98 22.9, 0 10.47 M0 10.47 C-0.4 3.79, 4.72 -0.44, 10.47 0 M0 10.47 C1.98 1.38, 3.91 -0.95, 10.47 0" stroke="#000000" stroke-width="4" fill="none"></path></g><g transform="translate(349.2503961888099 255.34858319119758) rotate(0 51.284836329465236 10.353276817685469)"><text x="0" y="0" font-family="Cascadia, Segoe UI Emoji" font-size="17.449024677686033px" fill="#000000" text-anchor="start" style="white-space: pre;" direction="ltr" dominant-baseline="text-before-edge">Foundation</text></g></svg>