<svg version="1.1" xmlns="http://www.w3.org/2000/svg" viewBox="0 0 635.0588876961817 203.10881405490113" width="635.0588876961817" height="203.10881405490113">
  <!-- svg-source:excalidraw -->
  
  <defs>
    <style class="style-fonts">
      @font-face {
        font-family: "Virgil";
        src: url("https://excalidraw.com/Virgil.woff2");
      }
      @font-face {
        font-family: "Cascadia";
        src: url("https://excalidraw.com/Cascadia.woff2");
      }
    </style>
    
  </defs>
  <g stroke-linecap="round" transform="translate(10.969728416531098 10) rotate(0 305.8495612432912 28.001627232407714)"><path d="M13.28 -1.4 L600.29 1.17 L607.76 3.3 L611.64 8.08 L611.71 45.66 L611.29 51.87 L608.09 53.81 L597.79 56.01 L12.32 54.16 L4.23 54.21 L2.23 47.89 L-0.53 13.66 L0.61 6.2 L1.55 4.41 L5.97 2.11 L15.92 0.25" stroke="none" stroke-width="0" fill="#c4f5c4"></path><path d="M14 0 M14 0 C144.1 2.73, 275.85 2.82, 597.7 0 M14 0 C170.68 -1.33, 326.99 -1.86, 597.7 0 M597.7 0 C608.44 -0.91, 610.39 3.17, 611.7 14 M597.7 0 C606.59 -0.72, 613.18 6.68, 611.7 14 M611.7 14 C612.81 24.82, 611.71 34.14, 611.7 42 M611.7 14 C611.26 19.92, 612.08 28.41, 611.7 42 M611.7 42 C610.65 52.08, 608.29 54.37, 597.7 56 M611.7 42 C612.89 53.57, 607.64 57.78, 597.7 56 M597.7 56 C444.47 56.75, 292.29 57.09, 14 56 M597.7 56 C479.54 55.08, 360.9 55.01, 14 56 M14 56 C4.29 54.13, -0.28 50.84, 0 42 M14 56 C4.39 54.19, -0.97 51.26, 0 42 M0 42 C-0.83 33.61, -1.18 21.03, 0 14 M0 42 C-1.01 33.95, -0.23 25.56, 0 14 M0 14 C0.52 5.88, 4.13 -0.49, 14 0 M0 14 C0.16 2.76, 6.03 0.78, 14 0" stroke="#000000" stroke-width="4" fill="none"></path></g><g transform="translate(262.0102118825612 22.12342011085525) rotate(0 67.37749050687353 15.168754407306665)"><text x="0" y="0" font-family="Cascadia, Segoe UI Emoji" font-size="25.398844588978502px" fill="#000000" text-anchor="start" style="white-space: pre;" direction="ltr" dominant-baseline="text-before-edge">Framework</text></g><g stroke-linecap="round" transform="translate(10 73.36937544506463) rotate(0 306.21467202431734 28.001627232407714)"><path d="M12.22 -1.95 L602.77 1.54 L605.1 0.32 L611.7 8.93 L611.69 43.4 L611.19 52.02 L608.28 52.79 L596.44 55.66 L10.21 56.25 L4.41 50.92 L1.37 48.35 L-1.94 14.4 L0.47 9.67 L3.32 5.48 L6.63 2.59 L14.27 -0.64" stroke="none" stroke-width="0" fill="#a5d8ff"></path><path d="M14 0 M14 0 C207.9 0.42, 402.49 0.99, 598.43 0 M14 0 C222.6 1.21, 430.79 1.28, 598.43 0 M598.43 0 C608.31 -1.18, 610.93 3.01, 612.43 14 M598.43 0 C607.4 -2, 611.88 4.14, 612.43 14 M612.43 14 C613.47 24.24, 613.4 30.06, 612.43 42 M612.43 14 C613.42 24.15, 611.6 32.28, 612.43 42 M612.43 42 C614.19 51.77, 607.46 57.7, 598.43 56 M612.43 42 C611.07 50.76, 607.95 56.39, 598.43 56 M598.43 56 C435.33 53.72, 272.21 53.36, 14 56 M598.43 56 C430.99 54.75, 263.38 54.7, 14 56 M14 56 C3.9 54.47, -1.37 50.92, 0 42 M14 56 C3.85 54.81, -0.08 53.15, 0 42 M0 42 C1.43 34.41, 0.65 25.61, 0 14 M0 42 C-0.3 36.37, 0.9 30.91, 0 14 M0 14 C0.3 3.1, 4.09 0.6, 14 0 M0 14 C0.8 5.43, 3.03 1.18, 14 0" stroke="#000000" stroke-width="4" fill="none"></path></g><g transform="translate(262.0404834660303 83.81848362337746) rotate(0 43.9453125 15.168754407306665)"><text x="0" y="0" font-family="Cascadia, Segoe UI Emoji" font-size="25.398844588978502px" fill="#000000" text-anchor="start" style="white-space: pre;" direction="ltr" dominant-baseline="text-before-edge">Engine</text></g><g stroke-linecap="round" transform="translate(10.438878961391083 137.1055595900857) rotate(0 307.3100043673953 28.001627232407714)"><path d="M13.55 -1.25 L602.05 -0.96 L608.53 0.02 L615.34 9.21 L615.92 46.53 L611.3 51.11 L610.89 54.96 L601.84 57.25 L10.34 54.19 L3.51 54.26 L1.35 49.83 L-1.49 14.25 L2.32 7.44 L2.46 4.07 L9.3 0.34 L14.42 -1.69" stroke="none" stroke-width="0" fill="#ffec99"></path><path d="M14 0 M14 0 C163.04 -1.25, 313.41 -1.45, 600.62 0 M14 0 C157.7 -0.63, 301.78 -0.96, 600.62 0 M600.62 0 C610.42 1.01, 615.34 5.73, 614.62 14 M600.62 0 C609.86 1.82, 613.98 2.58, 614.62 14 M614.62 14 C616.22 19.39, 613.67 29.75, 614.62 42 M614.62 14 C614.09 24.47, 615.19 32.32, 614.62 42 M614.62 42 C613.36 51.92, 608.06 54.61, 600.62 56 M614.62 42 C613.22 50.33, 610.92 57.57, 600.62 56 M600.62 56 C436 54.18, 272.62 54.03, 14 56 M600.62 56 C428.28 54.43, 255.03 54.94, 14 56 M14 56 C2.84 55.83, -1.59 51.34, 0 42 M14 56 C3.48 56.92, 1.8 52.65, 0 42 M0 42 C-0.26 34.8, -1.15 30.91, 0 14 M0 42 C-0.32 35.55, 0.09 29.41, 0 14 M0 14 C-1.08 6.31, 5.24 -1.08, 14 0 M0 14 C0.6 6.7, 3.63 -1.33, 14 0" stroke="#000000" stroke-width="4" fill="none"></path></g><g transform="translate(261.4793624274214 147.55466776839853) rotate(0 58.59375 15.168754407306665)"><text x="0" y="0" font-family="Cascadia, Segoe UI Emoji" font-size="25.398844588978502px" fill="#000000" text-anchor="start" style="white-space: pre;" direction="ltr" dominant-baseline="text-before-edge">Embedder</text></g></svg>