<svg version="1.1" xmlns="http://www.w3.org/2000/svg" viewBox="0 0 253.59791552380773 178.4595804195834" width="507.19583104761546" height="356.9191608391668">
  <!-- svg-source:excalidraw -->
  
  <defs>
    <style>
      @font-face {
        font-family: "Virgil";
        src: url("https://excalidraw.com/Virgil.woff2");
      }
      @font-face {
        font-family: "Cascadia";
        src: url("https://excalidraw.com/Cascadia.woff2");
      }
    </style>
  </defs>
  <g stroke-linecap="round" transform="translate(9.980162693312423 69.45316030651986) rotate(358.94392573957134 116.783462693314 49.50741482041036)"><path d="M117 0 L233.57 50 L117 99.01 L0 50" stroke="none" stroke-width="0" fill="#82c91e" fill-rule="evenodd"></path><path d="M117 0 C159.66 18.3, 202.32 36.6, 233.57 50 M117 0 C154.28 15.99, 191.55 31.98, 233.57 50 M233.57 50 C197.22 65.29, 160.87 80.57, 117 99.01 M233.57 50 C192.94 67.08, 152.31 84.17, 117 99.01 M117 99.01 C91.35 88.27, 65.69 77.52, 0 50 M117 99.01 C85.94 86, 54.88 72.99, 0 50 M0 50 C43.1 31.58, 86.19 13.16, 117 0 M0 50 C46.38 30.18, 92.76 10.36, 117 0" stroke="#000000" stroke-width="1" fill="none"></path></g><g stroke-linecap="round" transform="translate(10.003624128726187 41.37984104502948) rotate(358.94392573957134 116.783462693314 49.50741482041036)"><path d="M117 0 L233.57 50 L117 99.01 L0 50" stroke="none" stroke-width="0" fill="#e64980" fill-rule="evenodd"></path><path d="M117 0 C142.08 10.76, 167.16 21.51, 233.57 50 M117 0 C161.22 18.97, 205.44 37.94, 233.57 50 M233.57 50 C198.37 64.8, 163.17 79.6, 117 99.01 M233.57 50 C193.63 66.79, 153.69 83.59, 117 99.01 M117 99.01 C73.8 80.92, 30.6 62.82, 0 50 M117 99.01 C71.11 79.79, 25.23 60.57, 0 50 M0 50 C43.11 31.58, 86.21 13.16, 117 0 M0 50 C27.39 38.29, 54.79 26.59, 117 0" stroke="#000000" stroke-width="1" fill="none"></path></g><g stroke-linecap="round" transform="translate(10.05082744386732 9.99159047224282) rotate(358.94392573957134 116.783462693314 49.50741482041036)"><path d="M117 0 L233.57 50 L117 99.01 L0 50" stroke="none" stroke-width="0" fill="#fab005" fill-rule="evenodd"></path><path d="M117 0 C146.78 12.77, 176.56 25.55, 233.57 50 M117 0 C140.65 10.15, 164.31 20.29, 233.57 50 M233.57 50 C199.24 64.43, 164.91 78.87, 117 99.01 M233.57 50 C210.25 59.81, 186.92 69.61, 117 99.01 M117 99.01 C71.08 79.78, 25.16 60.54, 0 50 M117 99.01 C79.44 83.28, 41.87 67.54, 0 50 M0 50 C44.17 31.13, 88.33 12.25, 117 0 M0 50 C45.72 30.46, 91.44 10.92, 117 0" stroke="#000000" stroke-width="1" fill="none"></path></g><g transform="translate(51.626900468170106 126.89746824973128) rotate(21.51764495512839 26 8.5)"><text x="0" y="14" font-family="Cascadia, Segoe UI Emoji" font-size="14.530185472355061px" fill="#000000" text-anchor="start" style="white-space: pre;" direction="ltr">Tela A</text></g><g transform="translate(57.218616141951316 99.01132759593781) rotate(21.51764495512839 26 8.5)"><text x="0" y="14" font-family="Cascadia, Segoe UI Emoji" font-size="14.530185472355061px" fill="#000000" text-anchor="start" style="white-space: pre;" direction="ltr">Tela B</text></g><g transform="translate(60.38623738137596 69.71083113126048) rotate(21.51764495512839 26 8.5)"><text x="0" y="14" font-family="Cascadia, Segoe UI Emoji" font-size="14.530185472355061px" fill="#000000" text-anchor="start" style="white-space: pre;" direction="ltr">Tela C</text></g></svg>