<svg version="1.1" xmlns="http://www.w3.org/2000/svg" viewBox="0 0 1401.0691598028307 369.39421586811443" width="1401.0691598028307" height="369.39421586811443">
  <!-- svg-source:excalidraw -->
  
  <defs>
    <style class="style-fonts">
      @font-face {
        font-family: "Virgil";
        src: url("https://excalidraw.com/Virgil.woff2");
      }
      @font-face {
        font-family: "Cascadia";
        src: url("https://excalidraw.com/Cascadia.woff2");
      }
      @font-face {
        font-family: "Assistant";
        src: url("https://excalidraw.com/Assistant-Regular.woff2");
      }
    </style>
    
  </defs>
  <g stroke-linecap="round" transform="translate(9.965649409735875 142.86427351691935) rotate(358.94392573957134 202.22406901267033 85.72781317139976)"><path d="M203 0 L404.45 86 L203 171.46 L0 86" stroke="none" stroke-width="0" fill="#82c91e" fill-rule="evenodd"></path><path d="M203 0 C276.72 31.47, 350.45 62.95, 404.45 86 M203 0 C260.52 24.56, 318.04 49.11, 404.45 86 M404.45 86 C340.51 113.12, 276.58 140.24, 203 171.46 M404.45 86 C325.43 119.52, 246.41 153.04, 203 171.46 M203 171.46 C152 149.99, 101 128.52, 0 86 M203 171.46 C133.3 142.12, 63.61 112.78, 0 86 M0 86 C57.28 61.73, 114.56 37.47, 203 0 M0 86 C68.76 56.87, 137.52 27.74, 203 0" stroke="#343a40" stroke-width="1" fill="none"></path></g><g transform="translate(82.08179136771525 242.3357348521563) rotate(21.51764495512839 45.02200631040586 14.718732832248065)"><text x="0" y="0" font-family="Cascadia, Segoe UI Emoji" font-size="25.160696231836027px" fill="#1e1e1e" text-anchor="start" style="white-space: pre;" direction="ltr" dominant-baseline="text-before-edge">Tela A</text></g><g stroke-linecap="round" transform="translate(502.58223189690034 135.70212562409188) rotate(358.94392573957134 202.22406901267033 85.72781317139979)"><path d="M203 0 L404.45 86 L203 171.46 L0 86" stroke="none" stroke-width="0" fill="#82c91e" fill-rule="evenodd"></path><path d="M203 0 C274.66 30.59, 346.32 61.19, 404.45 86 M203 0 C271.32 29.16, 339.63 58.33, 404.45 86 M404.45 86 C336.6 114.78, 268.75 143.56, 203 171.46 M404.45 86 C328.76 118.11, 253.07 150.21, 203 171.46 M203 171.46 C144.46 146.81, 85.93 122.17, 0 86 M203 171.46 C123.82 138.12, 44.63 104.79, 0 86 M0 86 C59.49 60.8, 118.98 35.59, 203 0 M0 86 C53.24 63.44, 106.48 40.89, 203 0" stroke="#343a40" stroke-width="1" fill="none"></path></g><g stroke-linecap="round" transform="translate(502.6228580851025 87.08992728005865) rotate(358.94392573957134 202.22406901267033 85.72781317139979)"><path d="M203 0 L404.45 86 L203 171.46 L0 86" stroke="none" stroke-width="0" fill="#e64980" fill-rule="evenodd"></path><path d="M203 0 C247.92 19.18, 292.83 38.35, 404.45 86 M203 0 C267.45 27.51, 331.9 55.03, 404.45 86 M404.45 86 C363.88 103.21, 323.32 120.42, 203 171.46 M404.45 86 C350.89 108.72, 297.33 131.44, 203 171.46 M203 171.46 C132.37 141.72, 61.73 111.99, 0 86 M203 171.46 C141.11 145.4, 79.23 119.35, 0 86 M0 86 C58.19 61.35, 116.37 36.7, 203 0 M0 86 C74.37 54.49, 148.75 22.98, 203 0" stroke="#343a40" stroke-width="1" fill="none"></path></g><g transform="translate(574.6983738548792 235.17358695932876) rotate(21.51764495512839 45.0220063104058 14.718732832248065)"><text x="0" y="0" font-family="Cascadia, Segoe UI Emoji" font-size="25.160696231836027px" fill="#1e1e1e" text-anchor="start" style="white-space: pre;" direction="ltr" dominant-baseline="text-before-edge">Tela A</text></g><g transform="translate(584.3810760991483 186.88551001748425) rotate(21.51764495512839 45.0220063104058 14.718732832248065)"><text x="0" y="0" font-family="Cascadia, Segoe UI Emoji" font-size="25.160696231836027px" fill="#1e1e1e" text-anchor="start" style="white-space: pre;" direction="ltr" dominant-baseline="text-before-edge">Tela B</text></g><g stroke-linecap="round" transform="translate(986.5330081813923 128.70435495454785) rotate(358.94392573957134 202.22406901267038 85.72781317139979)"><path d="M203 0 L404.45 86 L203 171.46 L0 86" stroke="none" stroke-width="0" fill="#82c91e" fill-rule="evenodd"></path><path d="M203 0 C263.98 26.03, 324.95 52.06, 404.45 86 M203 0 C245.32 18.07, 287.63 36.13, 404.45 86 M404.45 86 C350.56 108.86, 296.67 131.72, 203 171.46 M404.45 86 C325.69 119.41, 246.94 152.82, 203 171.46 M203 171.46 C149.38 148.88, 95.76 126.31, 0 86 M203 171.46 C136.96 143.65, 70.92 115.85, 0 86 M0 86 C42.09 68.17, 84.17 50.34, 203 0 M0 86 C70.8 56, 141.61 26.01, 203 0" stroke="#343a40" stroke-width="1" fill="none"></path></g><g stroke-linecap="round" transform="translate(986.573634369595 80.09215661051468) rotate(358.94392573957134 202.22406901267038 85.72781317139976)"><path d="M203 0 L404.45 86 L203 171.46 L0 86" stroke="none" stroke-width="0" fill="#e64980" fill-rule="evenodd"></path><path d="M203 0 C249.07 19.67, 295.14 39.34, 404.45 86 M203 0 C281.2 33.38, 359.39 66.77, 404.45 86 M404.45 86 C325.68 119.41, 246.92 152.83, 203 171.46 M404.45 86 C342.65 112.21, 280.86 138.43, 203 171.46 M203 171.46 C127.98 139.88, 52.96 108.29, 0 86 M203 171.46 C138.06 144.12, 73.12 116.78, 0 86 M0 86 C80.25 52, 160.5 18.01, 203 0 M0 86 C48.23 65.57, 96.46 45.14, 203 0" stroke="#343a40" stroke-width="1" fill="none"></path></g><g stroke-linecap="round" transform="translate(986.6553723677542 25.299103652970643) rotate(358.94392573957134 202.22406901267027 85.72781317139979)"><path d="M203 0 L404.45 86 L203 171.46 L0 86" stroke="none" stroke-width="0" fill="#fab005" fill-rule="evenodd"></path><path d="M203 0 C265.31 26.6, 327.62 53.2, 404.45 86 M203 0 C268.52 27.97, 334.05 55.95, 404.45 86 M404.45 86 C326.4 119.11, 248.35 152.22, 203 171.46 M404.45 86 C357.98 105.71, 311.5 125.43, 203 171.46 M203 171.46 C146.85 147.82, 90.69 124.18, 0 86 M203 171.46 C132.81 141.91, 62.62 112.36, 0 86 M0 86 C41.67 68.35, 83.34 50.69, 203 0 M0 86 C75.84 53.87, 151.68 21.74, 203 0" stroke="#343a40" stroke-width="1" fill="none"></path></g><g transform="translate(1058.6491501393707 228.17581628978468) rotate(21.51764495512839 45.0220063104058 14.718732832248065)"><text x="0" y="0" font-family="Cascadia, Segoe UI Emoji" font-size="25.160696231836027px" fill="#1e1e1e" text-anchor="start" style="white-space: pre;" direction="ltr" dominant-baseline="text-before-edge">Tela A</text></g><g transform="translate(1068.3318523836406 179.88773934794023) rotate(21.51764495512839 45.0220063104058 14.718732832248065)"><text x="0" y="0" font-family="Cascadia, Segoe UI Emoji" font-size="25.160696231836027px" fill="#1e1e1e" text-anchor="start" style="white-space: pre;" direction="ltr" dominant-baseline="text-before-edge">Tela B</text></g><g transform="translate(1073.816954823269 129.15054178137368) rotate(21.51764495512839 45.0220063104058 14.718732832248065)"><text x="0" y="0" font-family="Cascadia, Segoe UI Emoji" font-size="25.160696231836027px" fill="#1e1e1e" text-anchor="start" style="white-space: pre;" direction="ltr" dominant-baseline="text-before-edge">Tela C</text></g><g stroke-linecap="round"><g transform="translate(300.83818491301815 158.77969109590356) rotate(0 104.19859422686284 -14.809952478944908)"><path d="M0 0 C16.99 -4.94, 67.22 -29.27, 101.95 -29.62 C136.68 -29.97, 190.66 -6.7, 208.4 -2.12 M0 0 C16.99 -4.94, 67.22 -29.27, 101.95 -29.62 C136.68 -29.97, 190.66 -6.7, 208.4 -2.12" stroke="#ffffff" stroke-width="1" fill="none"></path></g><g transform="translate(300.83818491301815 158.77969109590356) rotate(0 104.19859422686284 -14.809952478944908)"><path d="M183.41 -1.38 C192.76 -1.66, 202.11 -1.93, 208.4 -2.12 M183.41 -1.38 C190.55 -1.59, 197.68 -1.8, 208.4 -2.12" stroke="#ffffff" stroke-width="1" fill="none"></path></g><g transform="translate(300.83818491301815 158.77969109590356) rotate(0 104.19859422686284 -14.809952478944908)"><path d="M188.78 -17.62 C196.12 -11.82, 203.46 -6.02, 208.4 -2.12 M188.78 -17.62 C194.39 -13.19, 199.99 -8.76, 208.4 -2.12" stroke="#ffffff" stroke-width="1" fill="none"></path></g></g><mask></mask><g stroke-linecap="round"><g transform="translate(774.2277373650076 97.4257921894768) rotate(0 104.19859422686272 -14.281025604696893)"><path d="M0 0 C16.64 -4.76, 65.1 -28.21, 99.84 -28.56 C134.57 -28.91, 190.3 -6.52, 208.4 -2.12 M0 0 C16.64 -4.76, 65.1 -28.21, 99.84 -28.56 C134.57 -28.91, 190.3 -6.52, 208.4 -2.12" stroke="#ffffff" stroke-width="1" fill="none"></path></g><g transform="translate(774.2277373650076 97.4257921894768) rotate(0 104.19859422686272 -14.281025604696893)"><path d="M183.43 -0.92 C189.18 -1.19, 194.93 -1.47, 208.4 -2.12 M183.43 -0.92 C191.79 -1.32, 200.16 -1.72, 208.4 -2.12" stroke="#ffffff" stroke-width="1" fill="none"></path></g><g transform="translate(774.2277373650076 97.4257921894768) rotate(0 104.19859422686272 -14.281025604696893)"><path d="M188.5 -17.25 C193.08 -13.76, 197.66 -10.28, 208.4 -2.12 M188.5 -17.25 C195.17 -12.18, 201.83 -7.11, 208.4 -2.12" stroke="#ffffff" stroke-width="1" fill="none"></path></g></g><mask></mask><g stroke-linecap="round"><g transform="translate(851.4510610052201 292.07211220398153) rotate(180 104.19859422686272 -13.223171856200793)"><path d="M0 0 C16.82 -4.41, 66.16 -26.09, 100.89 -26.45 C135.63 -26.8, 190.48 -6.17, 208.4 -2.12 M0 0 C16.82 -4.41, 66.16 -26.09, 100.89 -26.45 C135.63 -26.8, 190.48 -6.17, 208.4 -2.12" stroke="#ffffff" stroke-width="1" fill="none"></path></g><g transform="translate(851.4510610052201 292.07211220398153) rotate(180 104.19859422686272 -13.223171856200793)"><path d="M183.45 -0.44 C191.62 -0.99, 199.79 -1.54, 208.4 -2.12 M183.45 -0.44 C192.07 -1.02, 200.68 -1.6, 208.4 -2.12" stroke="#ffffff" stroke-width="1" fill="none"></path></g><g transform="translate(851.4510610052201 292.07211220398153) rotate(180 104.19859422686272 -13.223171856200793)"><path d="M188.21 -16.86 C194.82 -12.03, 201.43 -7.2, 208.4 -2.12 M188.21 -16.86 C195.18 -11.77, 202.15 -6.68, 208.4 -2.12" stroke="#ffffff" stroke-width="1" fill="none"></path></g></g><mask></mask><g stroke-linecap="round"><g transform="translate(362.72262920003766 300.5342966240821) rotate(180 104.19859422686284 -15.338879353192965)"><path d="M0 0 C16.46 -5.11, 64.05 -30.33, 98.78 -30.68 C133.51 -31.03, 190.13 -6.88, 208.4 -2.12 M0 0 C16.46 -5.11, 64.05 -30.33, 98.78 -30.68 C133.51 -31.03, 190.13 -6.88, 208.4 -2.12" stroke="#ffffff" stroke-width="1" fill="none"></path></g><g transform="translate(362.72262920003766 300.5342966240821) rotate(180 104.19859422686284 -15.338879353192965)"><path d="M183.41 -1.38 C190.02 -1.58, 196.62 -1.77, 208.4 -2.12 M183.41 -1.38 C191.38 -1.62, 199.36 -1.85, 208.4 -2.12" stroke="#ffffff" stroke-width="1" fill="none"></path></g><g transform="translate(362.72262920003766 300.5342966240821) rotate(180 104.19859422686284 -15.338879353192965)"><path d="M188.78 -17.62 C193.97 -13.52, 199.16 -9.42, 208.4 -2.12 M188.78 -17.62 C195.04 -12.67, 201.3 -7.72, 208.4 -2.12" stroke="#ffffff" stroke-width="1" fill="none"></path></g></g><mask></mask><g transform="translate(362.19370232579024 74.15139121621826) rotate(0 40.58474126538988 20.77938752787962)"><text x="0" y="0" font-family="Cascadia, Segoe UI Emoji" font-size="34.632312546466025px" fill="#ffffff" text-anchor="start" style="white-space: pre;" direction="ltr" dominant-baseline="text-before-edge">push</text></g><g transform="translate(837.8415903264807 10) rotate(0 40.58474126538988 20.77938752787962)"><text x="0" y="0" font-family="Cascadia, Segoe UI Emoji" font-size="34.632312546466025px" fill="#ffffff" text-anchor="start" style="white-space: pre;" direction="ltr" dominant-baseline="text-before-edge">push</text></g><g transform="translate(916.1227677151891 313.60402581837087) rotate(0 30.43855594904244 20.779387527879607)"><text x="0" y="0" font-family="Cascadia, Segoe UI Emoji" font-size="34.632312546466025px" fill="#ffffff" text-anchor="start" style="white-space: pre;" direction="ltr" dominant-baseline="text-before-edge">pop</text></g><g transform="translate(430.56789715549496 317.8354408123552) rotate(0 30.43855594904238 20.779387527879607)"><text x="0" y="0" font-family="Cascadia, Segoe UI Emoji" font-size="34.632312546466025px" fill="#ffffff" text-anchor="start" style="white-space: pre;" direction="ltr" dominant-baseline="text-before-edge">pop</text></g></svg>