<svg version="1.1" xmlns="http://www.w3.org/2000/svg" viewBox="0 0 1401.0691598028307 369.39421586811443" width="2802.1383196056613" height="738.7884317362289">
  <!-- svg-source:excalidraw -->
  
  <defs>
    <style class="style-fonts">
      @font-face {
        font-family: "Virgil";
        src: url("https://excalidraw.com/Virgil.woff2");
      }
      @font-face {
        font-family: "Cascadia";
        src: url("https://excalidraw.com/Cascadia.woff2");
      }
    </style>
    
  </defs>
  <g stroke-linecap="round" transform="translate(9.965649409735875 142.86427351691935) rotate(358.94392573957134 202.22406901267033 85.72781317139976)"><path d="M203 0 L404.45 86 L203 171.46 L0 86" stroke="none" stroke-width="0" fill="#82c91e" fill-rule="evenodd"></path><path d="M203 0 C276.72 31.47, 350.45 62.95, 404.45 86 M203 0 C267.42 27.5, 331.84 55, 404.45 86 M404.45 86 C341.63 112.65, 278.81 139.3, 203 171.46 M404.45 86 C334.24 115.78, 264.03 145.57, 203 171.46 M203 171.46 C158.49 152.72, 113.98 133.98, 0 86 M203 171.46 C149.11 148.77, 95.23 126.09, 0 86 M0 86 C74.78 54.32, 149.55 22.64, 203 0 M0 86 C80.47 51.91, 160.95 17.81, 203 0" stroke="#000000" stroke-width="1" fill="none"></path></g><g transform="translate(82.08179136771525 242.3357348521563) rotate(21.51764495512839 45.02200631040586 14.718732832248065)"><text x="0" y="0" font-family="Cascadia, Segoe UI Emoji" font-size="25.160696231836027px" fill="#000000" text-anchor="start" style="white-space: pre;" direction="ltr" dominant-baseline="text-before-edge">Tela A</text></g><g stroke-linecap="round" transform="translate(502.58223189690034 135.70212562409188) rotate(358.94392573957134 202.22406901267033 85.72781317139979)"><path d="M203 0 L404.45 86 L203 171.46 L0 86" stroke="none" stroke-width="0" fill="#82c91e" fill-rule="evenodd"></path><path d="M203 0 C274.66 30.59, 346.32 61.19, 404.45 86 M203 0 C249.58 19.89, 296.16 39.77, 404.45 86 M404.45 86 C332.07 116.7, 259.7 147.4, 203 171.46 M404.45 86 C356.76 106.23, 309.07 126.46, 203 171.46 M203 171.46 C144.81 146.96, 86.63 122.47, 0 86 M203 171.46 C153.94 150.8, 104.88 130.15, 0 86 M0 86 C55.7 62.4, 111.39 38.81, 203 0 M0 86 C64.48 58.69, 128.95 31.37, 203 0" stroke="#000000" stroke-width="1" fill="none"></path></g><g stroke-linecap="round" transform="translate(502.6228580851025 87.08992728005865) rotate(358.94392573957134 202.22406901267033 85.72781317139979)"><path d="M203 0 L404.45 86 L203 171.46 L0 86" stroke="none" stroke-width="0" fill="#e64980" fill-rule="evenodd"></path><path d="M203 0 C247.92 19.18, 292.83 38.35, 404.45 86 M203 0 C264.79 26.38, 326.59 52.76, 404.45 86 M404.45 86 C338.64 113.92, 272.82 141.84, 203 171.46 M404.45 86 C325.87 119.33, 247.29 152.67, 203 171.46 M203 171.46 C154.04 150.85, 105.08 130.23, 0 86 M203 171.46 C137.49 143.88, 71.99 116.3, 0 86 M0 86 C55.12 62.65, 110.24 39.3, 203 0 M0 86 C70.7 56.05, 141.4 26.1, 203 0" stroke="#000000" stroke-width="1" fill="none"></path></g><g transform="translate(574.6983738548792 235.17358695932876) rotate(21.51764495512839 45.0220063104058 14.718732832248065)"><text x="0" y="0" font-family="Cascadia, Segoe UI Emoji" font-size="25.160696231836027px" fill="#000000" text-anchor="start" style="white-space: pre;" direction="ltr" dominant-baseline="text-before-edge">Tela A</text></g><g transform="translate(584.3810760991483 186.88551001748425) rotate(21.51764495512839 45.0220063104058 14.718732832248065)"><text x="0" y="0" font-family="Cascadia, Segoe UI Emoji" font-size="25.160696231836027px" fill="#000000" text-anchor="start" style="white-space: pre;" direction="ltr" dominant-baseline="text-before-edge">Tela B</text></g><g stroke-linecap="round" transform="translate(986.5330081813923 128.70435495454785) rotate(358.94392573957134 202.22406901267038 85.72781317139979)"><path d="M203 0 L404.45 86 L203 171.46 L0 86" stroke="none" stroke-width="0" fill="#82c91e" fill-rule="evenodd"></path><path d="M203 0 C263.98 26.03, 324.95 52.06, 404.45 86 M203 0 C268.52 27.97, 334.05 55.95, 404.45 86 M404.45 86 C338.18 114.11, 271.91 142.22, 203 171.46 M404.45 86 C330.24 117.48, 256.03 148.96, 203 171.46 M203 171.46 C122.75 137.67, 42.5 103.89, 0 86 M203 171.46 C133.43 142.17, 63.86 112.88, 0 86 M0 86 C70.73 56.04, 141.46 26.07, 203 0 M0 86 C60.33 60.44, 120.67 34.88, 203 0" stroke="#000000" stroke-width="1" fill="none"></path></g><g stroke-linecap="round" transform="translate(986.573634369595 80.09215661051468) rotate(358.94392573957134 202.22406901267038 85.72781317139976)"><path d="M203 0 L404.45 86 L203 171.46 L0 86" stroke="none" stroke-width="0" fill="#e64980" fill-rule="evenodd"></path><path d="M203 0 C249.07 19.67, 295.14 39.34, 404.45 86 M203 0 C282.24 33.83, 361.48 67.66, 404.45 86 M404.45 86 C336.31 114.9, 268.17 143.81, 203 171.46 M404.45 86 C338.91 113.8, 273.38 141.6, 203 171.46 M203 171.46 C161.33 153.91, 119.66 136.37, 0 86 M203 171.46 C148.1 148.34, 93.2 125.23, 0 86 M0 86 C64.96 58.48, 129.92 30.96, 203 0 M0 86 C76.07 53.77, 152.14 21.55, 203 0" stroke="#000000" stroke-width="1" fill="none"></path></g><g stroke-linecap="round" transform="translate(986.6553723677542 25.299103652970643) rotate(358.94392573957134 202.22406901267027 85.72781317139979)"><path d="M203 0 L404.45 86 L203 171.46 L0 86" stroke="none" stroke-width="0" fill="#fab005" fill-rule="evenodd"></path><path d="M203 0 C265.31 26.6, 327.62 53.2, 404.45 86 M203 0 C273.07 29.91, 343.15 59.83, 404.45 86 M404.45 86 C346.76 110.47, 289.07 134.94, 203 171.46 M404.45 86 C340.01 113.34, 275.56 140.67, 203 171.46 M203 171.46 C123.03 137.79, 43.05 104.12, 0 86 M203 171.46 C131.3 141.27, 59.59 111.09, 0 86 M0 86 C75.54 54, 151.08 21.99, 203 0 M0 86 C78.08 52.92, 156.17 19.84, 203 0" stroke="#000000" stroke-width="1" fill="none"></path></g><g transform="translate(1058.6491501393707 228.17581628978468) rotate(21.51764495512839 45.0220063104058 14.718732832248065)"><text x="0" y="0" font-family="Cascadia, Segoe UI Emoji" font-size="25.160696231836027px" fill="#000000" text-anchor="start" style="white-space: pre;" direction="ltr" dominant-baseline="text-before-edge">Tela A</text></g><g transform="translate(1068.3318523836406 179.88773934794023) rotate(21.51764495512839 45.0220063104058 14.718732832248065)"><text x="0" y="0" font-family="Cascadia, Segoe UI Emoji" font-size="25.160696231836027px" fill="#000000" text-anchor="start" style="white-space: pre;" direction="ltr" dominant-baseline="text-before-edge">Tela B</text></g><g transform="translate(1073.816954823269 129.15054178137368) rotate(21.51764495512839 45.0220063104058 14.718732832248065)"><text x="0" y="0" font-family="Cascadia, Segoe UI Emoji" font-size="25.160696231836027px" fill="#000000" text-anchor="start" style="white-space: pre;" direction="ltr" dominant-baseline="text-before-edge">Tela C</text></g><g stroke-linecap="round"><g transform="translate(300.83818491301815 158.77969109590356) rotate(0 104.19859422686284 -14.81193496911196)"><path d="M0 0 C16.99 -4.94, 67.22 -29.27, 101.95 -29.62 C136.68 -29.97, 190.66 -6.7, 208.4 -2.12 M0 0 C16.99 -4.94, 67.22 -29.27, 101.95 -29.62 C136.68 -29.97, 190.66 -6.7, 208.4 -2.12" stroke="#1e1e1e" stroke-width="1" fill="none"></path></g><g transform="translate(300.83818491301815 158.77969109590356) rotate(0 104.19859422686284 -14.81193496911196)"><path d="M178.41 -1.24 C189.63 -1.56, 200.85 -1.89, 208.4 -2.12 M178.41 -1.24 C187.28 -1.5, 196.15 -1.76, 208.4 -2.12" stroke="#1e1e1e" stroke-width="1" fill="none"></path></g><g transform="translate(300.83818491301815 158.77969109590356) rotate(0 104.19859422686284 -14.81193496911196)"><path d="M184.86 -20.72 C193.67 -13.76, 202.47 -6.8, 208.4 -2.12 M184.86 -20.72 C191.82 -15.21, 198.79 -9.71, 208.4 -2.12" stroke="#1e1e1e" stroke-width="1" fill="none"></path></g></g><mask></mask><g stroke-linecap="round"><g transform="translate(774.2277373650076 97.4257921894768) rotate(0 104.19859422686272 -14.283085295103987)"><path d="M0 0 C16.64 -4.76, 65.1 -28.21, 99.84 -28.56 C134.57 -28.91, 190.3 -6.52, 208.4 -2.12 M0 0 C16.64 -4.76, 65.1 -28.21, 99.84 -28.56 C134.57 -28.91, 190.3 -6.52, 208.4 -2.12" stroke="#1e1e1e" stroke-width="1" fill="none"></path></g><g transform="translate(774.2277373650076 97.4257921894768) rotate(0 104.19859422686272 -14.283085295103987)"><path d="M178.43 -0.68 C185.33 -1.01, 192.23 -1.34, 208.4 -2.12 M178.43 -0.68 C186.67 -1.07, 194.91 -1.47, 208.4 -2.12" stroke="#1e1e1e" stroke-width="1" fill="none"></path></g><g transform="translate(774.2277373650076 97.4257921894768) rotate(0 104.19859422686272 -14.283085295103987)"><path d="M184.52 -20.28 C190.02 -16.09, 195.52 -11.91, 208.4 -2.12 M184.52 -20.28 C191.08 -15.28, 197.65 -10.29, 208.4 -2.12" stroke="#1e1e1e" stroke-width="1" fill="none"></path></g></g><mask></mask><g stroke-linecap="round"><g transform="translate(851.4510610052201 292.07211220398153) rotate(180 104.19859422686272 -13.22540550816015)"><path d="M0 0 C16.82 -4.41, 66.16 -26.09, 100.89 -26.45 C135.63 -26.8, 190.48 -6.17, 208.4 -2.12 M0 0 C16.82 -4.41, 66.16 -26.09, 100.89 -26.45 C135.63 -26.8, 190.48 -6.17, 208.4 -2.12" stroke="#1e1e1e" stroke-width="1" fill="none"></path></g><g transform="translate(851.4510610052201 292.07211220398153) rotate(180 104.19859422686272 -13.22540550816015)"><path d="M178.46 -0.1 C188.27 -0.76, 198.07 -1.42, 208.4 -2.12 M178.46 -0.1 C184.55 -0.51, 190.64 -0.92, 208.4 -2.12" stroke="#1e1e1e" stroke-width="1" fill="none"></path></g><g transform="translate(851.4510610052201 292.07211220398153) rotate(180 104.19859422686272 -13.22540550816015)"><path d="M184.17 -19.81 C192.11 -14.02, 200.04 -8.22, 208.4 -2.12 M184.17 -19.81 C189.1 -16.21, 194.03 -12.61, 208.4 -2.12" stroke="#1e1e1e" stroke-width="1" fill="none"></path></g></g><mask></mask><g stroke-linecap="round"><g transform="translate(362.72262920003766 300.5342966240821) rotate(180 104.19859422686284 -15.340790221218384)"><path d="M0 0 C16.46 -5.11, 64.05 -30.33, 98.78 -30.68 C133.51 -31.03, 190.13 -6.88, 208.4 -2.12 M0 0 C16.46 -5.11, 64.05 -30.33, 98.78 -30.68 C133.51 -31.03, 190.13 -6.88, 208.4 -2.12" stroke="#1e1e1e" stroke-width="1" fill="none"></path></g><g transform="translate(362.72262920003766 300.5342966240821) rotate(180 104.19859422686284 -15.340790221218384)"><path d="M178.41 -1.24 C186.34 -1.47, 194.27 -1.7, 208.4 -2.12 M178.41 -1.24 C187.63 -1.51, 196.84 -1.78, 208.4 -2.12" stroke="#1e1e1e" stroke-width="1" fill="none"></path></g><g transform="translate(362.72262920003766 300.5342966240821) rotate(180 104.19859422686284 -15.340790221218384)"><path d="M184.86 -20.72 C191.08 -15.8, 197.31 -10.88, 208.4 -2.12 M184.86 -20.72 C192.09 -15, 199.33 -9.29, 208.4 -2.12" stroke="#1e1e1e" stroke-width="1" fill="none"></path></g></g><mask></mask><g transform="translate(362.19370232579024 74.15139121621826) rotate(0 40.58474126538988 20.77938752787962)"><text x="0" y="0" font-family="Cascadia, Segoe UI Emoji" font-size="34.632312546466025px" fill="#1e1e1e" text-anchor="start" style="white-space: pre;" direction="ltr" dominant-baseline="text-before-edge">push</text></g><g transform="translate(837.8415903264807 10) rotate(0 40.58474126538988 20.77938752787962)"><text x="0" y="0" font-family="Cascadia, Segoe UI Emoji" font-size="34.632312546466025px" fill="#1e1e1e" text-anchor="start" style="white-space: pre;" direction="ltr" dominant-baseline="text-before-edge">push</text></g><g transform="translate(916.1227677151891 313.60402581837087) rotate(0 30.43855594904244 20.779387527879607)"><text x="0" y="0" font-family="Cascadia, Segoe UI Emoji" font-size="34.632312546466025px" fill="#1e1e1e" text-anchor="start" style="white-space: pre;" direction="ltr" dominant-baseline="text-before-edge">pop</text></g><g transform="translate(430.56789715549496 317.8354408123552) rotate(0 30.43855594904238 20.779387527879607)"><text x="0" y="0" font-family="Cascadia, Segoe UI Emoji" font-size="34.632312546466025px" fill="#1e1e1e" text-anchor="start" style="white-space: pre;" direction="ltr" dominant-baseline="text-before-edge">pop</text></g></svg>