<svg version="1.1" xmlns="http://www.w3.org/2000/svg" viewBox="0 0 521.939453125 619" width="521.939453125" height="619">
  <!-- svg-source:excalidraw -->
  
  <defs>
    <style class="style-fonts">
      @font-face {
        font-family: "Virgil";
        src: url("https://excalidraw.com/Virgil.woff2");
      }
      @font-face {
        font-family: "Cascadia";
        src: url("https://excalidraw.com/Cascadia.woff2");
      }
      @font-face {
        font-family: "Assistant";
        src: url("https://excalidraw.com/Assistant-Regular.woff2");
      }
    </style>
    
  </defs>
  <g stroke-linecap="round" transform="translate(10 519) rotate(0 160 45)"><path d="M22.5 0 C92.97 0.9, 159.96 3.25, 297.5 0 C309.46 1.98, 321.46 8.7, 320 22.5 C319.74 34.64, 319.23 48.45, 320 67.5 C320.54 80.52, 315.01 89.88, 297.5 90 C196.31 90.16, 98.71 90.96, 22.5 90 C10.46 91.27, 1.32 80.5, 0 67.5 C-3.19 57.44, 1.71 47.01, 0 22.5 C-1.32 7.96, 5.96 2.57, 22.5 0" stroke="none" stroke-width="0" fill="#ffec99"></path><path d="M22.5 0 C79.34 0.6, 137.71 3.26, 297.5 0 M22.5 0 C89.71 0.57, 157.24 0.22, 297.5 0 M297.5 0 C313.15 -0.65, 318.13 5.96, 320 22.5 M297.5 0 C313.36 -0.66, 322.1 5.41, 320 22.5 M320 22.5 C318.42 31.26, 319.04 42.7, 320 67.5 M320 22.5 C319.99 39.03, 318.83 56.37, 320 67.5 M320 67.5 C318.83 82.52, 313.62 88.34, 297.5 90 M320 67.5 C320.7 83.5, 310.82 87.87, 297.5 90 M297.5 90 C232.45 92.8, 165.52 90.71, 22.5 90 M297.5 90 C217.1 90.54, 137.18 91.77, 22.5 90 M22.5 90 C7.54 89.57, 1.69 81.18, 0 67.5 M22.5 90 C8.18 89.86, -1.3 81.71, 0 67.5 M0 67.5 C1.54 52.23, 1.25 40.39, 0 22.5 M0 67.5 C0.74 55.85, 0.75 43.13, 0 22.5 M0 22.5 C-0.26 8.07, 9.49 1.88, 22.5 0 M0 22.5 C0.56 7.17, 6.65 -1.4, 22.5 0" stroke="#868e96" stroke-width="4" fill="none"></path></g><g stroke-linecap="round" transform="translate(10 10) rotate(0 160 45)"><path d="M22.5 0 C109.09 -4, 194.23 -2.39, 297.5 0 C311.52 2.86, 318.13 9.14, 320 22.5 C322.2 38.07, 320.69 54.04, 320 67.5 C319.33 80.11, 314.63 90.45, 297.5 90 C237.9 88.25, 173.82 89.2, 22.5 90 C6.8 87.88, 2.4 83.81, 0 67.5 C-3.38 50.17, 3.42 40.43, 0 22.5 C1.62 8.04, 9.43 -2.33, 22.5 0" stroke="none" stroke-width="0" fill="#ffd8a8"></path><path d="M22.5 0 C102.71 -0.57, 183.74 0.35, 297.5 0 M22.5 0 C117.08 2.42, 212.34 1.4, 297.5 0 M297.5 0 C313.21 0.51, 320.09 7.37, 320 22.5 M297.5 0 C312.45 1.58, 318.14 5.66, 320 22.5 M320 22.5 C317.71 38.43, 319.79 50.88, 320 67.5 M320 22.5 C320.82 32.04, 320.26 43.69, 320 67.5 M320 67.5 C318.3 83.15, 311.81 91.24, 297.5 90 M320 67.5 C319.85 81.02, 314.42 90.44, 297.5 90 M297.5 90 C238.46 90.36, 182.61 90.62, 22.5 90 M297.5 90 C203.97 90.53, 111.1 91.08, 22.5 90 M22.5 90 C9.36 88.2, 0.98 80.64, 0 67.5 M22.5 90 C8.94 89.64, -1.19 83.71, 0 67.5 M0 67.5 C-0.45 57.17, -0.29 44.47, 0 22.5 M0 67.5 C-0.39 54.12, -0.64 41.29, 0 22.5 M0 22.5 C-1.06 9.33, 9 -0.1, 22.5 0 M0 22.5 C-1.91 8.97, 6.76 0.07, 22.5 0" stroke="#868e96" stroke-width="4" fill="none"></path></g><g stroke-linecap="round" transform="translate(11 89) rotate(0 159 219.5)"><path d="M-0.92 1.03 L316.06 -1.42 L318.44 438.68 L-0.88 440.72" stroke="none" stroke-width="0" fill="#fff9db"></path><path d="M0 0 C126.1 1.59, 250.52 -0.47, 318 0 M0 0 C70.2 1.28, 141.41 0.66, 318 0 M318 0 C319.43 111.25, 318.67 221.44, 318 439 M318 0 C316.82 150.31, 317.38 300.26, 318 439 M318 439 C248.33 439.94, 176.46 438.84, 0 439 M318 439 C197.32 439.81, 76.69 439.39, 0 439 M0 439 C-1.21 345.77, -1.47 253.76, 0 0 M0 439 C1.25 283.25, 1.49 126.61, 0 0" stroke="#868e96" stroke-width="4" fill="none"></path></g><g stroke-linecap="round" transform="translate(36.24062813904811 547.1622589984231) rotate(0 20.759371860951944 20.759371860951944)"><path d="M18.48 0.23 C22.75 -0.62, 28.89 0.6, 32.54 2.99 C36.19 5.39, 39.14 10.22, 40.37 14.6 C41.61 18.98, 41.67 25.1, 39.94 29.28 C38.21 33.45, 34.04 37.68, 29.99 39.63 C25.94 41.59, 19.97 42.11, 15.65 40.99 C11.32 39.86, 6.64 36.43, 4.02 32.89 C1.4 29.34, -0.41 24.16, -0.1 19.74 C0.22 15.32, 2.7 9.62, 5.89 6.35 C9.08 3.09, 16.76 1.21, 19.05 0.15 C21.34 -0.91, 19.6 -0.37, 19.64 0 M19 -0.51 C23.25 -1.04, 29.4 1.93, 32.96 4.65 C36.52 7.36, 39.38 11.64, 40.36 15.78 C41.34 19.92, 40.76 25.5, 38.85 29.5 C36.93 33.49, 32.81 37.91, 28.87 39.75 C24.94 41.59, 19.44 41.79, 15.25 40.53 C11.07 39.27, 6.31 35.91, 3.76 32.19 C1.2 28.46, -0.6 22.56, -0.08 18.19 C0.43 13.83, 3.68 8.93, 6.86 5.99 C10.04 3.04, 16.96 1.43, 19 0.54 C21.03 -0.35, 19.06 0.5, 19.1 0.65" stroke="none" stroke-width="0" fill="white"></path><path d="M19.2 0.46 C23.29 -0.05, 29.03 1.68, 32.64 4.26 C36.26 6.83, 39.79 11.64, 40.89 15.92 C42 20.2, 41.26 26.02, 39.26 29.94 C37.26 33.85, 32.9 37.66, 28.9 39.41 C24.91 41.15, 19.49 41.58, 15.26 40.4 C11.03 39.22, 6.02 35.99, 3.52 32.32 C1.03 28.64, -0.26 22.76, 0.28 18.36 C0.82 13.96, 3.41 9.01, 6.77 5.91 C10.14 2.81, 18.12 0.74, 20.49 -0.25 C22.86 -1.24, 21.11 -0.44, 21 -0.03 M24.75 0.83 C28.98 1.36, 33.59 3.44, 36.47 6.92 C39.35 10.4, 41.98 17.26, 42.04 21.7 C42.09 26.15, 39.88 30.29, 36.8 33.58 C33.72 36.88, 27.96 40.51, 23.54 41.45 C19.13 42.39, 13.89 41.55, 10.28 39.2 C6.67 36.86, 3.28 31.63, 1.89 27.39 C0.5 23.15, 0.4 17.84, 1.94 13.77 C3.48 9.71, 7.33 5.19, 11.11 3.01 C14.88 0.83, 22.24 1.07, 24.59 0.69 C26.94 0.32, 25.4 0.59, 25.23 0.77" stroke="#000000" stroke-width="1" fill="none"></path></g><g stroke-linecap="round" transform="translate(50.10195053164364 554.8846742219558) rotate(0 7.362468122959001 7.362468122959001)"><path d="M8.19 -0.37 C9.61 -0.42, 11.04 0.64, 12.14 1.84 C13.23 3.04, 14.56 5.18, 14.76 6.83 C14.97 8.48, 14.33 10.47, 13.39 11.73 C12.44 13, 10.62 14.07, 9.11 14.42 C7.61 14.76, 5.76 14.41, 4.35 13.81 C2.94 13.21, 1.32 12.2, 0.67 10.81 C0.03 9.42, 0.1 7.03, 0.47 5.49 C0.84 3.95, 1.7 2.55, 2.89 1.56 C4.09 0.58, 6.78 -0.22, 7.66 -0.41 C8.54 -0.6, 8.15 0.27, 8.17 0.42 M8.65 0.75 C10.12 1.02, 11.57 1.61, 12.5 2.65 C13.42 3.69, 14.16 5.42, 14.19 7 C14.23 8.59, 13.59 10.9, 12.7 12.15 C11.81 13.39, 10.33 14.23, 8.86 14.47 C7.39 14.71, 5.31 14.42, 3.87 13.59 C2.42 12.76, 0.69 10.93, 0.2 9.5 C-0.28 8.06, 0.41 6.33, 0.93 4.99 C1.46 3.64, 2.1 2.21, 3.35 1.44 C4.59 0.66, 7.55 0.63, 8.39 0.32 C9.23 0.01, 8.34 -0.64, 8.38 -0.43" stroke="none" stroke-width="0" fill="black"></path><path d="M7.36 0.2 C8.9 0.13, 11.18 0.99, 12.39 2.04 C13.6 3.08, 14.44 4.95, 14.6 6.46 C14.76 7.96, 14.16 9.77, 13.36 11.05 C12.57 12.33, 11.32 13.63, 9.84 14.16 C8.36 14.69, 5.98 14.8, 4.49 14.21 C3 13.61, 1.57 11.98, 0.91 10.58 C0.25 9.19, 0.09 7.41, 0.51 5.84 C0.93 4.27, 2.1 2.21, 3.44 1.17 C4.78 0.13, 7.77 -0.27, 8.56 -0.41 C9.34 -0.54, 8.19 0.23, 8.17 0.36 M5.28 -0.51 C6.79 -0.91, 9.65 0.74, 11.17 1.44 C12.7 2.14, 13.98 2.33, 14.43 3.7 C14.88 5.07, 14.35 7.93, 13.88 9.66 C13.4 11.4, 12.67 13.31, 11.56 14.11 C10.46 14.91, 8.75 14.69, 7.25 14.47 C5.76 14.26, 3.73 13.85, 2.61 12.8 C1.48 11.75, 0.7 9.75, 0.5 8.17 C0.3 6.59, 0.43 4.63, 1.4 3.31 C2.37 1.98, 5.71 0.79, 6.32 0.2 C6.92 -0.39, 5.09 -0.37, 5.01 -0.25" stroke="#000000" stroke-width="1" fill="none"></path></g><g stroke-linecap="round"><g transform="translate(42.83277602980786 579.0456115196154) rotate(0 14.328743107111734 -0.05583046572849071)" fill-rule="evenodd"><path d="M0.43 1.23 C1.52 0.29, 2.67 -5.23, 5.04 -6.52 C7.42 -7.8, 11.75 -6.51, 14.69 -6.48 C17.63 -6.44, 20.15 -7.53, 22.67 -6.29 C25.18 -5.06, 29.4 -0.7, 29.8 0.94 C30.19 2.57, 27.24 2.38, 25.04 3.52 C22.84 4.67, 18.88 6.99, 16.6 7.82 C14.31 8.65, 12.95 9.14, 11.33 8.52 C9.7 7.89, 8.54 5.34, 6.86 4.06 C5.19 2.78, 2.26 1.36, 1.29 0.82" stroke="none" stroke-width="0" fill="black" fill-rule="evenodd"></path><path d="M0.14 -0.32 C1.29 -1.27, 4.35 -4.28, 6.77 -5.49 C9.19 -6.69, 11.88 -7.66, 14.66 -7.55 C17.44 -7.44, 21.16 -5.98, 23.47 -4.83 C25.79 -3.68, 28.49 -2.39, 28.56 -0.66 C28.63 1.07, 25.76 4.21, 23.92 5.56 C22.08 6.92, 19.63 7.17, 17.49 7.46 C15.36 7.76, 13.17 7.79, 11.12 7.35 C9.07 6.91, 7.02 5.98, 5.21 4.84 C3.39 3.69, 1.15 1.22, 0.23 0.49 M-0.45 0.7 C0.68 -0.22, 4.1 -3.77, 6.58 -5.05 C9.06 -6.33, 11.58 -7.09, 14.42 -6.98 C17.25 -6.86, 21.35 -5.44, 23.59 -4.37 C25.83 -3.3, 27.72 -2.17, 27.84 -0.56 C27.97 1.06, 26.04 4.08, 24.34 5.32 C22.64 6.56, 19.91 6.57, 17.64 6.89 C15.36 7.22, 12.64 7.7, 10.71 7.28 C8.79 6.86, 7.75 5.5, 6.09 4.38 C4.42 3.26, 1.76 1.36, 0.7 0.54" stroke="#000000" stroke-width="1" fill="none"></path></g></g><mask></mask><g stroke-linecap="round"><g transform="translate(26.51546709421325 43.787754921336386) rotate(0 9.154792588109103 0)"><path d="M0 0 C5.94 0.05, 11.09 -0.2, 18.31 0 M0 0 C3.61 0.04, 7.3 -0.03, 18.31 0" stroke="#000000" stroke-width="2" fill="none"></path></g></g><mask></mask><g stroke-linecap="round"><g transform="translate(26.51546709421325 51.09321590025263) rotate(0 9.154792588109103 0)"><path d="M0 0 C6.02 -0.22, 9.52 -0.22, 18.31 0 M0 0 C4.46 -0.07, 9.01 0.42, 18.31 0" stroke="#000000" stroke-width="2" fill="none"></path></g></g><mask></mask><g stroke-linecap="round"><g transform="translate(26.51546709421325 58.63326136917567) rotate(0 9.154792588109103 0)"><path d="M0 0 C4.69 -0.19, 10.7 -0.26, 18.31 0 M0 0 C5.17 0.44, 11.08 -0.03, 18.31 0" stroke="#000000" stroke-width="2" fill="none"></path></g></g><mask></mask><g transform="translate(65.97690724420318 33.21587510854465) rotate(0 35.43225860595703 16.28929529076393)"><text x="0" y="0" font-family="Helvetica, Segoe UI Emoji" font-size="28.329209201328567px" fill="#000000" text-anchor="start" style="white-space: pre;" direction="ltr" dominant-baseline="text-before-edge">Menu</text></g><g stroke-linecap="round"><g transform="translate(167.80546419313987 586.7672354723658) rotate(334.90373538033356 -0.3355071959433644 -17.935057628246796)" fill-rule="evenodd"><path d="M-1.17 -0.02 C0.16 -0.38, 6.83 -0.18, 8.1 -2.24 C9.36 -4.3, 5.3 -7.91, 6.44 -12.41 C7.59 -16.9, 14.58 -25.29, 14.95 -29.2 C15.33 -33.11, 12.78 -35.47, 8.69 -35.87 C4.59 -36.28, -6 -34.16, -9.63 -31.63 C-13.25 -29.1, -14.07 -24.47, -13.05 -20.7 C-12.03 -16.94, -5.74 -12.2, -3.5 -9.05 C-1.26 -5.9, -0.12 -3.51, 0.39 -1.82" stroke="none" stroke-width="0" fill="white" fill-rule="evenodd"></path><path d="M0.76 0.67 C2.29 0.47, 6.99 0.88, 8.44 -0.9 C9.89 -2.69, 8.4 -5.88, 9.45 -10.02 C10.5 -14.17, 15.24 -21.35, 14.76 -25.78 C14.29 -30.21, 10.39 -35.23, 6.58 -36.58 C2.77 -37.94, -4.71 -36.65, -8.11 -33.91 C-11.5 -31.17, -14.96 -24.19, -13.78 -20.15 C-12.61 -16.11, -3.5 -13.22, -1.03 -9.69 C1.44 -6.15, 0.93 -0.51, 1.01 1.08 M-0.3 -0.02 C1.18 -0.59, 6.2 -0.66, 7.8 -2.64 C9.4 -4.61, 8.05 -7.67, 9.31 -11.87 C10.56 -16.06, 16 -23.69, 15.33 -27.81 C14.66 -31.92, 9.47 -35.93, 5.29 -36.56 C1.1 -37.19, -6.18 -34.11, -9.77 -31.59 C-13.36 -29.06, -17.64 -24.96, -16.25 -21.42 C-14.87 -17.88, -4.14 -13.95, -1.46 -10.33 C1.23 -6.72, -0.37 -1.35, -0.13 0.26" stroke="#1e1e1e" stroke-width="2" fill="none"></path></g></g><mask></mask><g stroke-linecap="round"><g transform="translate(177.74777735213308 581.8524790445642) rotate(327.423799657176 3.8515098616786076 3.507176841509306)" fill-rule="evenodd"><path d="M-0.48 -0.57 L0.42 7.46 L7.93 5.93 L6.69 -0.99 L0.39 0.29" stroke="none" stroke-width="0" fill="white" fill-rule="evenodd"></path><path d="M0 0 C0.34 3, 0.55 5.63, 0.47 7.57 M0 0 C0.3 2.85, 0.47 5.83, 0.47 7.57 M0.47 7.57 C3.55 6.95, 6.16 6.58, 7.7 6.32 M0.47 7.57 C2.62 7.17, 4.66 6.76, 7.7 6.32 M7.7 6.32 C7.29 4, 7.02 1.92, 6.39 -0.56 M7.7 6.32 C7.36 4.28, 6.95 2.47, 6.39 -0.56 M6.39 -0.56 C3.91 -0.41, 1.46 -0.19, 0 0 M6.39 -0.56 C4.6 -0.32, 3 -0.21, 0 0 M0 0 C0 0, 0 0, 0 0 M0 0 C0 0, 0 0, 0 0" stroke="#1e1e1e" stroke-width="2" fill="none"></path></g></g><mask></mask><g stroke-linecap="round"><g transform="translate(176.85428900153556 581.6855785270117) rotate(0 -2.7116054967760306 -7.020842720707151)" fill-rule="evenodd"><path d="M-0.28 -0.39 L-8.04 -9.65 L-4.95 -14.33 L1.6 -1.52" stroke="none" stroke-width="0" fill="white" fill-rule="evenodd"></path><path d="M0 0 C-2.3 -2.97, -5.03 -6.44, -7.9 -9.53 M0 0 C-1.68 -2.28, -3.55 -4.76, -7.9 -9.53 M-7.9 -9.53 C-6.65 -11.24, -5.33 -13.13, -4.51 -14.04 M-7.9 -9.53 C-7 -10.96, -5.83 -12.36, -4.51 -14.04 M-4.51 -14.04 C-1.2 -8.37, 0.96 -4.17, 2.48 -1.21 M-4.51 -14.04 C-2.46 -9.98, 0 -5.95, 2.48 -1.21 M2.48 -1.21 C1.85 -0.96, 1.33 -0.65, 0 0 M2.48 -1.21 C1.73 -0.78, 0.86 -0.48, 0 0" stroke="#1e1e1e" stroke-width="2" fill="none"></path></g></g><mask></mask><g stroke-linecap="round" transform="translate(264.50367449061423 552.5229394820958) rotate(0 13.08335866018706 13.08335866018706)"><path d="M10.54 -0.08 C13.25 -0.74, 17.29 0.21, 19.68 1.63 C22.07 3.04, 23.91 5.82, 24.86 8.43 C25.82 11.04, 26.32 14.72, 25.43 17.26 C24.55 19.81, 21.87 22.3, 19.57 23.7 C17.26 25.09, 14.35 25.98, 11.59 25.63 C8.84 25.28, 4.97 23.55, 3.03 21.6 C1.09 19.65, 0.04 16.6, -0.06 13.91 C-0.17 11.22, 0.63 7.69, 2.39 5.48 C4.16 3.28, 9.06 1.52, 10.51 0.69 C11.96 -0.13, 11.09 0.39, 11.1 0.52 M10.9 0.74 C13.42 -0.08, 17.23 -0.2, 19.71 1.1 C22.19 2.4, 24.76 5.82, 25.76 8.56 C26.76 11.29, 26.74 14.96, 25.71 17.53 C24.68 20.09, 22.14 22.51, 19.59 23.94 C17.03 25.37, 13.24 26.41, 10.4 26.08 C7.56 25.75, 4.36 24.13, 2.54 21.96 C0.72 19.8, -0.63 15.85, -0.53 13.07 C-0.43 10.29, 1.4 7.48, 3.15 5.28 C4.89 3.08, 8.61 0.78, 9.95 -0.12 C11.29 -1.02, 11.11 -0.3, 11.19 -0.1" stroke="none" stroke-width="0" fill="white"></path><path d="M13.28 0.43 C15.95 0.22, 19.36 1.28, 21.47 3 C23.57 4.73, 25.47 8.06, 25.9 10.75 C26.32 13.44, 25.46 16.81, 24.03 19.17 C22.59 21.52, 19.79 23.85, 17.29 24.89 C14.8 25.93, 11.72 26.22, 9.08 25.42 C6.43 24.62, 2.88 22.5, 1.45 20.09 C0.02 17.67, 0.07 13.75, 0.49 10.91 C0.92 8.07, 1.93 4.93, 4 3.06 C6.07 1.2, 11.34 0.15, 12.91 -0.29 C14.48 -0.72, 13.42 0.2, 13.41 0.44 M10.92 0.35 C13.43 -0.14, 17.19 0.59, 19.61 1.96 C22.03 3.34, 24.5 5.89, 25.45 8.61 C26.4 11.32, 26.3 15.6, 25.31 18.25 C24.32 20.91, 22.09 23.4, 19.5 24.54 C16.91 25.69, 12.66 25.8, 9.74 25.11 C6.83 24.42, 3.69 22.45, 2.01 20.4 C0.34 18.35, -0.48 15.46, -0.3 12.8 C-0.12 10.14, 1.14 6.53, 3.1 4.44 C5.05 2.35, 10.02 0.94, 11.41 0.25 C12.81 -0.44, 11.45 0.1, 11.48 0.29" stroke="#1e1e1e" stroke-width="2" fill="none"></path></g><g stroke-linecap="round"><g transform="translate(285.6092284638603 573.4594268360111) rotate(0 7.160565852223044 6.930447700321508)"><path d="M0 0 C3.81 3.45, 7.87 7.61, 14.32 13.86 M0 0 C4.88 4.07, 9.17 8.65, 14.32 13.86" stroke="#1e1e1e" stroke-width="2" fill="none"></path></g></g><mask></mask><g stroke-linecap="round" transform="translate(248 446.921630859375) rotate(0 29 29)"><path d="M22.34 -0.03 C27.83 -1.78, 35.13 -0.18, 40.59 2.79 C46.04 5.75, 52.35 12.01, 55.08 17.74 C57.82 23.47, 58.65 31.35, 56.99 37.18 C55.32 43.01, 50.15 49.4, 45.1 52.71 C40.05 56.02, 32.97 57.65, 26.7 57.03 C20.44 56.41, 11.97 53.13, 7.52 48.98 C3.07 44.82, 0.27 38.2, 0.02 32.08 C-0.23 25.95, 1.92 17.48, 6 12.22 C10.09 6.95, 20.82 2.28, 24.52 0.51 C28.22 -1.26, 28 1.06, 28.2 1.58 M16.96 2.59 C21.73 -0.7, 28.89 -1.09, 34.49 0.58 C40.1 2.26, 46.62 7.82, 50.56 12.65 C54.51 17.48, 58.02 23.58, 58.17 29.57 C58.32 35.55, 55.78 43.95, 51.46 48.55 C47.14 53.15, 38.56 56.41, 32.26 57.15 C25.96 57.89, 18.96 56.26, 13.64 53.01 C8.32 49.75, 2.32 43.26, 0.33 37.6 C-1.65 31.94, -0.97 24.74, 1.72 19.04 C4.41 13.34, 14.16 6.04, 16.47 3.37 C18.77 0.71, 15.22 2.84, 15.55 3.04" stroke="none" stroke-width="0" fill="#ffc9c9"></path><path d="M20.71 1.91 C26.11 -0.16, 34.24 0.31, 39.86 2.73 C45.48 5.14, 51.39 10.89, 54.43 16.39 C57.47 21.89, 59.51 29.71, 58.13 35.72 C56.74 41.74, 51.11 48.91, 46.11 52.46 C41.12 56.01, 34.37 57.49, 28.13 57.04 C21.9 56.6, 13.48 53.68, 8.69 49.82 C3.9 45.95, 0.27 40.02, -0.58 33.86 C-1.43 27.69, -0.34 18.48, 3.58 12.85 C7.5 7.21, 19.52 1.91, 22.96 0.06 C26.39 -1.79, 24.06 1.15, 24.18 1.76 M29.98 -0.62 C36.28 -0.5, 45.56 3.44, 50.3 7.92 C55.03 12.4, 57.74 19.88, 58.38 26.27 C59.02 32.65, 57.72 41.05, 54.15 46.22 C50.58 51.4, 43.36 55.89, 36.95 57.29 C30.54 58.69, 21.59 57.12, 15.69 54.61 C9.78 52.1, 4.17 47.74, 1.53 42.23 C-1.1 36.71, -1.95 27.4, -0.13 21.5 C1.68 15.6, 7.38 10.24, 12.42 6.82 C17.46 3.41, 26.91 2.17, 30.12 1.01 C33.33 -0.16, 31.74 -0.62, 31.68 -0.17" stroke="#1e1e1e" stroke-width="2" fill="none"></path></g><g transform="translate(263.2631578947369 449.2111045435855) rotate(0 13.736842105263122 26.71052631578948)"><text x="13.73684210526316" y="0" font-family="Virgil, Segoe UI Emoji" font-size="42.73684210526315px" fill="#1e1e1e" text-anchor="middle" style="white-space: pre;" direction="ltr" dominant-baseline="text-before-edge">+</text></g><g transform="translate(341 24.821630859375034) rotate(0 56.0478515625 20.69999999999999)"><text x="0" y="0" font-family="Helvetica, Segoe UI Emoji" font-size="36px" fill="#ffffff" text-anchor="start" style="white-space: pre;" direction="ltr" dominant-baseline="text-before-edge">appbar</text></g><g transform="translate(344.71875 255.82163085937492) rotate(0 39.0322265625 20.700000000000017)"><text x="0" y="0" font-family="Helvetica, Segoe UI Emoji" font-size="36px" fill="#ffffff" text-anchor="start" style="white-space: pre;" direction="ltr" dominant-baseline="text-before-edge">body</text></g><g transform="translate(347.8125 453.8216308593751) rotate(0 48.0322265625 20.69999999999999)"><text x="0" y="0" font-family="Helvetica, Segoe UI Emoji" font-size="36px" fill="#ffffff" text-anchor="start" style="white-space: pre;" direction="ltr" dominant-baseline="text-before-edge">action</text></g><g transform="translate(347.8125 549.8216308593751) rotate(0 82.0634765625 20.69999999999999)"><text x="0" y="0" font-family="Helvetica, Segoe UI Emoji" font-size="36px" fill="#ffffff" text-anchor="start" style="white-space: pre;" direction="ltr" dominant-baseline="text-before-edge">navigation</text></g></svg>