<svg xmlns="http://www.w3.org/2000/svg" viewBox="0 0 400 300" width="406" height="306" class="illustration styles_illustrationTablet__1DWOa"><g id="_573_team_building_outline" data-name="#573_team_building_outline"><polyline points="172.96 60.4 172.96 152.94 130.54 152.94 130.54 60.4" fill="#ffbc0e"></polyline><path d="M173,153.94H130.54a1,1,0,0,1-1-1V60.4a1,1,0,0,1,2,0v91.54H172V60.4a1,1,0,0,1,2,0v92.54A1,1,0,0,1,173,153.94Z" fill="#093f68"></path><circle cx="140.16" cy="141.88" r="2.58" fill="#093f68"></circle><path d="M198.66,117s-10.77.81-15.58,1.61-12,11.23-22.19,12.3-18.45,1.33-21.39-1.34-1.87-8-1.87-8H125.51c-7.13,0-7.67-7.82-3-10.14,0,0-8-1.1-8.69-6.72-.81-6.37,6.9-6.77,6.9-6.77a9.17,9.17,0,0,1-1.78-6.06c.36-3.39,6.6-5.7,6.6-5.7s-3.57-2.32-1.07-6.78,4.1-3.74,13.19-3.74,18.18-.71,23,1.07,19.61,8.2,23.71,8.38,14.33-.36,14.33-.36Z" fill="#ffc9b0"></path><path d="M149.16,132.68c-4.87,0-8.43-.64-10.33-2.37-2.44-2.22-2.5-5.87-2.34-7.75h-11c-4.23,0-6.32-2.48-6.86-4.79a6.5,6.5,0,0,1,1.54-5.85c-2.64-.79-6.84-2.72-7.4-7.09a6.19,6.19,0,0,1,1.31-5A8.83,8.83,0,0,1,119,97.17a9.61,9.61,0,0,1-1.12-5.4c.3-2.89,3.76-5,5.81-5.93-1.13-1.44-1.89-3.86-.17-6.93,2.46-4.38,4.56-4.36,10.81-4.28l3.26,0c2.06,0,4.12,0,6.14-.07,6.84-.12,13.31-.24,17.2,1.2,1.18.44,2.95,1.15,5,2,6.15,2.47,15.46,6.21,18.39,6.34,4,.17,14.13-.35,14.23-.36a1,1,0,0,1,.75.28,1,1,0,0,1,.31.72V117a1,1,0,0,1-.93,1c-.11,0-10.77.81-15.48,1.6-1.66.27-3.87,2.05-6.44,4.1-4.18,3.35-9.39,7.53-15.82,8.2A118,118,0,0,1,149.16,132.68Zm-17-56.07c-4.28,0-5.22.37-6.84,3.27-2,3.5.47,5.26.75,5.45a1,1,0,0,1,.44,1,1,1,0,0,1-.64.82c-1.47.55-5.72,2.62-6,4.88a8.12,8.12,0,0,0,1.57,5.33,1,1,0,0,1-.73,1.62s-3.46.22-5.12,2.21a4.27,4.27,0,0,0-.85,3.44c.61,4.8,7.76,5.84,7.83,5.85a1,1,0,0,1,.85.83,1,1,0,0,1-.54,1,4.5,4.5,0,0,0-2.33,5c.48,2,2.32,3.25,4.92,3.25h12.12a1,1,0,0,1,1,1.19s-.92,4.83,1.56,7.08c2.84,2.58,12.51,1.94,20.61,1.08,5.84-.61,10.8-4.58,14.78-7.77,2.79-2.23,5.19-4.16,7.36-4.52,4-.67,12-1.33,14.74-1.54V85.79c-2.73.13-10,.45-13.37.31s-12.4-3.81-19.06-6.49c-2-.82-3.8-1.52-5-2-3.54-1.31-9.82-1.2-16.47-1.08-2,0-4.1.07-6.17.07l-3.29,0ZM198.66,117h0Z" fill="#093f68"></path><path d="M151.89,122.56H137.63a1,1,0,0,1,0-2h14.26a1,1,0,0,1,0,2Z" fill="#093f68"></path><path d="M143.51,112.42h-21a1,1,0,0,1,0-2h21a1,1,0,0,1,0,2Z" fill="#093f68"></path><path d="M144,98.93H120.69a1,1,0,0,1,0-2H144a1,1,0,0,1,0,2Z" fill="#093f68"></path><path d="M142.44,87.17H125.51a1,1,0,0,1,0-2h16.93a1,1,0,0,1,0,2Z" fill="#093f68"></path><rect x="175.03" y="95.77" width="37.43" height="9.16" transform="translate(294.09 -93.39) rotate(90)" fill="#fff"></rect><path d="M198.32,120.06h-9.16a1,1,0,0,1-1-1V81.63a1,1,0,0,1,1-1h9.16a1,1,0,0,1,1,1v37.43A1,1,0,0,1,198.32,120.06Zm-8.16-2h7.16V82.63h-7.16Z" fill="#093f68"></path><polyline points="290.85 121.56 198.32 121.56 198.32 79.14 290.85 79.14" fill="#02569b"></polyline><path d="M290.85,122.56H198.32a1,1,0,0,1-1-1V79.14a1,1,0,0,1,1-1h92.53a1,1,0,0,1,0,2H199.32v40.42h91.53a1,1,0,0,1,0,2Z" fill="#093f68"></path><circle cx="209.37" cy="88.75" r="2.58" fill="#093f68"></circle><path d="M267.43,147.4s.81-10.76,1.61-15.58,11.23-12,12.3-22.19,1.33-18.45-1.34-21.39-8-1.87-8-1.87V74.25c0-7.13-7.82-7.66-10.14-3,0,0-1.1-8-6.72-8.69-6.37-.81-6.77,6.91-6.77,6.91a9.11,9.11,0,0,0-6.06-1.78c-3.39.35-5.7,6.59-5.7,6.59s-2.32-3.56-6.78-1.07-3.74,4.1-3.74,13.19-.71,18.18,1.07,23,8.2,19.6,8.38,23.7-.36,14.33-.36,14.33Z" fill="#ad7972"></path><path d="M267.43,148.4H235.17a1,1,0,0,1-.72-.31,1,1,0,0,1-.28-.74c0-.1.53-10.23.36-14.23-.13-2.94-3.87-12.25-6.35-18.41-.82-2-1.53-3.82-2-5-1.44-3.89-1.33-10.36-1.2-17.2,0-2,.07-4.08.07-6.14,0-1.21,0-2.29,0-3.26-.08-6.25-.1-8.35,4.27-10.8,3.08-1.73,5.5-1,6.94.16,1-2,3-5.51,5.93-5.81a9.61,9.61,0,0,1,5.4,1.12,8.87,8.87,0,0,1,2.68-4.94,6.23,6.23,0,0,1,5-1.3c4.36.55,6.3,4.75,7.09,7.39a6.5,6.5,0,0,1,5.85-1.54c2.31.55,4.79,2.64,4.79,6.86v11c1.88-.15,5.53-.1,7.75,2.34,2.92,3.21,2.75,11.18,1.59,22.17-.67,6.42-4.85,11.63-8.2,15.82-2.06,2.56-3.83,4.78-4.11,6.43-.78,4.71-1.58,15.38-1.59,15.48A1,1,0,0,1,267.43,148.4Zm-31.21-2h30.29c.21-2.73.87-10.71,1.54-14.74.36-2.17,2.29-4.57,4.52-7.36,3.19-4,7.16-8.93,7.77-14.77.86-8.11,1.5-17.77-1.08-20.61-2.26-2.49-7-1.58-7.08-1.57a1,1,0,0,1-1.19-1V74.25c0-2.6-1.22-4.43-3.25-4.91a4.49,4.49,0,0,0-5,2.33,1,1,0,0,1-1.05.54,1,1,0,0,1-.83-.85c0-.07-1.07-7.23-5.86-7.84a4.26,4.26,0,0,0-3.43.85c-2,1.66-2.21,5.09-2.21,5.12a1,1,0,0,1-.59.86,1,1,0,0,1-1-.13,8.2,8.2,0,0,0-5.33-1.57c-2.26.24-4.33,4.48-4.88,5.95a1,1,0,0,1-1.77.2c-.19-.28-2-2.7-5.45-.75-3.34,1.87-3.33,2.83-3.25,9,0,1,0,2.06,0,3.28,0,2.08,0,4.15-.07,6.18-.12,6.65-.23,12.93,1.08,16.47.42,1.15,1.13,2.91,1.95,4.94,2.68,6.67,6.34,15.79,6.49,19.07S236.35,143.67,236.22,146.4Z" fill="#093f68"></path><path d="M272,101.63a1,1,0,0,1-1-1V86.37a1,1,0,0,1,2,0v14.26A1,1,0,0,1,272,101.63Z" fill="#093f68"></path><path d="M261.85,93.25a1,1,0,0,1-1-1v-21a1,1,0,0,1,2,0v21A1,1,0,0,1,261.85,93.25Z" fill="#093f68"></path><path d="M248.36,93.79a1,1,0,0,1-1-1V69.44a1,1,0,0,1,2,0V92.79A1,1,0,0,1,248.36,93.79Z" fill="#093f68"></path><path d="M236.6,92.18a1,1,0,0,1-1-1V74.25a1,1,0,0,1,2,0V91.18A1,1,0,0,1,236.6,92.18Z" fill="#093f68"></path><rect x="232.06" y="137.91" width="37.43" height="9.16" fill="#093f68"></rect><path d="M269.49,148.06H232.06a1,1,0,0,1-1-1v-9.15a1,1,0,0,1,1-1h37.43a1,1,0,0,1,1,1v9.15A1,1,0,0,1,269.49,148.06Zm-36.43-2h35.43v-7.15H233.06Z" fill="#093f68"></path><polyline points="271.99 239.6 271.99 147.06 229.57 147.06 229.57 239.6" fill="#f56132"></polyline><path d="M272,240.6a1,1,0,0,1-1-1V148.06H230.57V239.6a1,1,0,0,1-2,0V147.06a1,1,0,0,1,1-1H272a1,1,0,0,1,1,1V239.6A1,1,0,0,1,272,240.6Z" fill="#093f68"></path><circle cx="239.18" cy="158.12" r="2.58" fill="#093f68"></circle><path d="M201.34,216.15s10.77.8,15.58,1.61,12,11.23,22.19,12.3,18.45,1.33,21.39-1.34,1.87-8,1.87-8h12.12c7.13,0,7.67-7.83,3-10.14,0,0,8-1.1,8.69-6.72.81-6.37-6.9-6.77-6.9-6.77a9.17,9.17,0,0,0,1.78-6.06c-.36-3.39-6.6-5.71-6.6-5.71s3.57-2.31,1.07-6.77-4.1-3.74-13.19-3.74-18.18-.71-23,1.07-19.61,8.2-23.71,8.38-14.33-.36-14.33-.36Z" fill="#ffc9b0"></path><path d="M250.84,231.83a118.16,118.16,0,0,1-11.83-.78c-6.43-.68-11.64-4.85-15.82-8.2-2.57-2.06-4.78-3.83-6.44-4.11-4.71-.78-15.37-1.58-15.48-1.59a1,1,0,0,1-.93-1V183.89a1,1,0,0,1,.31-.73,1,1,0,0,1,.74-.27c.11,0,10.23.53,14.24.36,2.93-.13,12.24-3.87,18.39-6.34,2.06-.83,3.83-1.54,5-2,3.9-1.44,10.36-1.33,17.2-1.2,2,0,4.08.07,6.14.07,1.22,0,2.3,0,3.26,0,6.25-.07,8.35-.09,10.8,4.28,1.73,3.08,1,5.5-.16,6.94,2.05,1,5.51,3,5.81,5.92a9.57,9.57,0,0,1-1.12,5.4A9,9,0,0,1,285.9,199a6.22,6.22,0,0,1,1.31,5c-.56,4.36-4.75,6.29-7.4,7.09a6.5,6.5,0,0,1,1.54,5.85c-.54,2.31-2.63,4.79-6.86,4.79h-11c.16,1.88.1,5.53-2.34,7.75C259.27,231.18,255.71,231.83,250.84,231.83Zm-48.5-16.6c2.73.21,10.71.87,14.74,1.54,2.17.36,4.57,2.29,7.36,4.52,4,3.19,8.94,7.16,14.78,7.77,8.1.85,17.77,1.5,20.61-1.08,2.48-2.26,1.57-7,1.56-7.08a1,1,0,0,1,1-1.19h12.12c2.6,0,4.44-1.22,4.92-3.25a4.5,4.5,0,0,0-2.33-5,1,1,0,0,1,.31-1.88c.07,0,7.22-1.07,7.83-5.86a4.25,4.25,0,0,0-.85-3.43c-1.66-2-5.08-2.21-5.12-2.21a1,1,0,0,1-.72-1.63,8.23,8.23,0,0,0,1.56-5.33c-.23-2.25-4.48-4.32-5.95-4.87a1,1,0,0,1-.64-.83,1,1,0,0,1,.45-.94c.27-.19,2.7-2,.74-5.45-1.87-3.34-2.82-3.33-9-3.26-1,0-2.07,0-3.29,0-2.07,0-4.15,0-6.17-.07-6.65-.12-12.93-.24-16.47,1.08-1.16.42-2.92,1.13-5,1.95-6.66,2.68-15.78,6.34-19.06,6.48s-10.63-.17-13.37-.3Z" fill="#093f68"></path><path d="M262.37,221.71H248.11a1,1,0,0,1,0-2h14.26a1,1,0,0,1,0,2Z" fill="#093f68"></path><path d="M277.52,211.57h-21a1,1,0,0,1,0-2h21a1,1,0,0,1,0,2Z" fill="#093f68"></path><path d="M279.31,198.08H256a1,1,0,0,1,0-2h23.35a1,1,0,0,1,0,2Z" fill="#093f68"></path><path d="M274.49,186.31H257.56a1,1,0,0,1,0-2h16.93a1,1,0,0,1,0,2Z" fill="#093f68"></path><rect x="187.54" y="194.92" width="37.43" height="9.16" transform="translate(405.76 -6.76) rotate(90)" fill="#fff"></rect><path d="M210.84,219.21h-9.16a1,1,0,0,1-1-1V180.78a1,1,0,0,1,1-1h9.16a1,1,0,0,1,1,1v37.43A1,1,0,0,1,210.84,219.21Zm-8.16-2h7.16V181.78h-7.16Z" fill="#093f68"></path><polyline points="109.15 220.71 201.68 220.71 201.68 178.29 109.15 178.29" fill="#02569b"></polyline><path d="M201.68,221.71H109.15a1,1,0,0,1,0-2h91.53V179.29H109.15a1,1,0,0,1,0-2h92.53a1,1,0,0,1,1,1v42.42A1,1,0,0,1,201.68,221.71Z" fill="#093f68"></path><circle cx="190.63" cy="187.9" r="2.58" fill="#093f68"></circle><path d="M168.41,155.45s.8,7.91,1.6,12.73,11.23,12,12.3,22.19,1.34,18.45-1.33,21.39-8,1.87-8,1.87v12.12c0,7.13-7.82,7.66-10.14,3,0,0-1.1,8-6.71,8.69-6.37.81-6.77-6.91-6.77-6.91a9.14,9.14,0,0,1-6.06,1.78c-3.39-.35-5.71-6.59-5.71-6.59s-2.32,3.56-6.77,1.07-3.74-4.1-3.74-13.19-.72-18.18,1.06-23,8.2-19.6,8.38-23.7-.35-11.48-.35-11.48Z" fill="#e28362"></path><path d="M155.19,238.53a6,6,0,0,1-3.93-1.37,9,9,0,0,1-2.69-4.94,9.7,9.7,0,0,1-5.4,1.12c-2.89-.3-4.95-3.76-5.92-5.81-1.45,1.12-3.86,1.89-6.94.16-4.38-2.45-4.35-4.55-4.28-10.8,0-1,0-2,0-3.26,0-2.06,0-4.13-.08-6.14-.12-6.84-.24-13.31,1.21-17.2.44-1.19,1.15-3,2-5,2.48-6.16,6.22-15.46,6.34-18.4.18-4-.35-11.29-.35-11.36a1,1,0,0,1,.26-.75,1,1,0,0,1,.74-.32h32.26a1,1,0,0,1,1,.9c0,.08.81,7.94,1.6,12.66.27,1.65,2.05,3.87,4.1,6.43,3.36,4.19,7.53,9.4,8.21,15.82,1.15,11,1.32,19-1.6,22.17-2.21,2.44-5.86,2.5-7.75,2.34v11c0,4.22-2.47,6.31-4.79,6.86a6.51,6.51,0,0,1-5.85-1.54c-.79,2.64-2.72,6.84-7.09,7.39A7.37,7.37,0,0,1,155.19,238.53Zm-5.86-9a1.06,1.06,0,0,1,.42.09,1,1,0,0,1,.58.86s.22,3.46,2.22,5.12a4.24,4.24,0,0,0,3.43.85c4.79-.61,5.84-7.77,5.85-7.84a1,1,0,0,1,1.89-.31,4.49,4.49,0,0,0,5,2.33c2-.48,3.24-2.31,3.24-4.91V213.63a1,1,0,0,1,.37-.77,1,1,0,0,1,.83-.21s4.82.91,7.08-1.57c2.58-2.84,1.93-12.5,1.08-20.61-.62-5.84-4.59-10.79-7.78-14.78-2.23-2.78-4.15-5.18-4.51-7.35-.64-3.83-1.29-9.67-1.52-11.89H137.22c.14,2.21.42,7.3.28,10.52S133.69,179.37,131,186c-.82,2-1.53,3.8-2,5-1.31,3.54-1.2,9.82-1.08,16.47,0,2,.08,4.1.08,6.18,0,1.22,0,2.31,0,3.28-.07,6.21-.08,7.17,3.26,9,3.49,2,5.26-.47,5.45-.75a1,1,0,0,1,.95-.44,1,1,0,0,1,.82.64c.55,1.47,2.62,5.71,4.87,5.95a8.12,8.12,0,0,0,5.33-1.57A1,1,0,0,1,149.33,229.56Z" fill="#093f68"></path><path d="M173,214.63a1,1,0,0,1-1-1V199.37a1,1,0,0,1,2,0v14.26A1,1,0,0,1,173,214.63Z" fill="#093f68"></path><path d="M162.82,229.78a1,1,0,0,1-1-1v-21a1,1,0,0,1,2,0v21A1,1,0,0,1,162.82,229.78Z" fill="#093f68"></path><path d="M149.34,231.56a1,1,0,0,1-1-1V207.21a1,1,0,0,1,2,0v23.35A1,1,0,0,1,149.34,231.56Z" fill="#093f68"></path><path d="M137.57,226.75a1,1,0,0,1-1-1V208.82a1,1,0,0,1,2,0v16.93A1,1,0,0,1,137.57,226.75Z" fill="#093f68"></path><rect x="133.04" y="152.94" width="37.43" height="9.16" fill="#093f68"></rect><path d="M170.47,163.09H133a1,1,0,0,1-1-1v-9.15a1,1,0,0,1,1-1h37.43a1,1,0,0,1,1,1v9.15A1,1,0,0,1,170.47,163.09Zm-36.43-2h35.43v-7.15H134Z" fill="#093f68"></path></g></svg>