<svg version="1.1" xmlns="http://www.w3.org/2000/svg" viewBox="0 0 531.5 220.5" width="1063" height="441">
  <!-- svg-source:excalidraw -->
  
  <defs>
    <style>
      @font-face {
        font-family: "Virgil";
        src: url("https://excalidraw.com/Virgil.woff2");
      }
      @font-face {
        font-family: "Cascadia";
        src: url("https://excalidraw.com/Cascadia.woff2");
      }
    </style>
  </defs>
  <g transform="translate(160 10) rotate(0 53 12)"><text x="0" y="19" font-family="Cascadia, Segoe UI Emoji" font-size="20px" fill="#000000" text-anchor="start" style="white-space: pre;" direction="ltr">Unitários</text></g><g transform="translate(291 10.5) rotate(0 41.5 12)"><text x="0" y="19" font-family="Cascadia, Segoe UI Emoji" font-size="20px" fill="#000000" text-anchor="start" style="white-space: pre;" direction="ltr">Widgets</text></g><g transform="translate(399.5 10.5) rotate(0 59 12)"><text x="0" y="19" font-family="Cascadia, Segoe UI Emoji" font-size="20px" fill="#000000" text-anchor="start" style="white-space: pre;" direction="ltr">Integração</text></g><g transform="translate(41 55.5) rotate(0 53 12)"><text x="0" y="19" font-family="Cascadia, Segoe UI Emoji" font-size="20px" fill="#000000" text-anchor="start" style="white-space: pre;" direction="ltr">Confiança</text></g><g transform="translate(32 95.5) rotate(0 59 12)"><text x="0" y="19" font-family="Cascadia, Segoe UI Emoji" font-size="20px" fill="#000000" text-anchor="start" style="white-space: pre;" direction="ltr">Manutenção</text></g><g transform="translate(10 133.5) rotate(0 71 12)"><text x="0" y="19" font-family="Cascadia, Segoe UI Emoji" font-size="20px" fill="#000000" text-anchor="start" style="white-space: pre;" direction="ltr">Dependências</text></g><g transform="translate(31 174.5) rotate(0 59 12)"><text x="0" y="19" font-family="Cascadia, Segoe UI Emoji" font-size="20px" fill="#000000" text-anchor="start" style="white-space: pre;" direction="ltr">Velocidade</text></g><g stroke-linecap="round"><g transform="translate(279 42.5) rotate(0 0 84)"><path d="M0 0 C0 28, 0 140, 0 168 M0 0 C0 28, 0 140, 0 168" stroke="#000000" stroke-width="1" fill="none"></path></g></g><g stroke-linecap="round"><g transform="translate(155.25878840424127 83.64864617742) rotate(0 180.87060579787936 -0.0743230887100026)"><path d="M0 0 C60.29 -0.02, 301.45 -0.12, 361.74 -0.15 M0 0 C60.29 -0.02, 301.45 -0.12, 361.74 -0.15" stroke="#000000" stroke-width="1" fill="none"></path></g></g><g stroke-linecap="round"><g transform="translate(155.28075723726306 126.86931401230396) rotate(0 181.10962138136847 -0.18465700615197989)"><path d="M0 0 C60.37 -0.06, 301.85 -0.31, 362.22 -0.37 M0 0 C60.37 -0.06, 301.85 -0.31, 362.22 -0.37" stroke="#000000" stroke-width="1" fill="none"></path></g></g><g stroke-linecap="round"><g transform="translate(153.31281014073647 169.72879175879063) rotate(0 184.09359492963176 -0.11439587939531748)"><path d="M0 0 C61.36 -0.04, 306.82 -0.19, 368.19 -0.23 M0 0 C61.36 -0.04, 306.82 -0.19, 368.19 -0.23" stroke="#000000" stroke-width="1" fill="none"></path></g></g><g stroke-linecap="round" transform="translate(195 48.5) rotate(0 16.5 13.5)"><path d="M33 13.5 C33 14.28, 32.92 15.07, 32.75 15.84 C32.58 16.61, 32.33 17.38, 32 18.12 C31.68 18.85, 31.27 19.57, 30.79 20.25 C30.31 20.93, 29.75 21.58, 29.14 22.18 C28.53 22.78, 27.84 23.34, 27.11 23.84 C26.37 24.34, 25.58 24.8, 24.75 25.19 C23.92 25.58, 23.04 25.92, 22.14 26.19 C21.25 26.45, 20.31 26.66, 19.37 26.79 C18.42 26.93, 17.46 27, 16.5 27 C15.54 27, 14.58 26.93, 13.63 26.79 C12.69 26.66, 11.75 26.45, 10.86 26.19 C9.96 25.92, 9.08 25.58, 8.25 25.19 C7.42 24.8, 6.63 24.34, 5.89 23.84 C5.16 23.34, 4.47 22.78, 3.86 22.18 C3.25 21.58, 2.69 20.93, 2.21 20.25 C1.73 19.57, 1.32 18.85, 1 18.12 C0.67 17.38, 0.42 16.61, 0.25 15.84 C0.08 15.07, 0 14.28, 0 13.5 C0 12.72, 0.08 11.93, 0.25 11.16 C0.42 10.39, 0.67 9.62, 1 8.88 C1.32 8.15, 1.73 7.43, 2.21 6.75 C2.69 6.07, 3.25 5.42, 3.86 4.82 C4.47 4.22, 5.16 3.66, 5.89 3.16 C6.63 2.66, 7.42 2.2, 8.25 1.81 C9.08 1.42, 9.96 1.08, 10.86 0.81 C11.75 0.55, 12.69 0.34, 13.63 0.21 C14.58 0.07, 15.54 0, 16.5 0 C17.46 0, 18.42 0.07, 19.37 0.21 C20.31 0.34, 21.25 0.55, 22.14 0.81 C23.04 1.08, 23.92 1.42, 24.75 1.81 C25.58 2.2, 26.37 2.66, 27.11 3.16 C27.84 3.66, 28.53 4.22, 29.14 4.82 C29.75 5.42, 30.31 6.07, 30.79 6.75 C31.27 7.43, 31.68 8.15, 32 8.88 C32.33 9.62, 32.58 10.39, 32.75 11.16 C32.92 11.93, 32.96 13.11, 33 13.5 C33.04 13.89, 33.04 13.11, 33 13.5" stroke="none" stroke-width="0" fill="#fa5252"></path><path d="M33 13.5 C33 14.28, 32.92 15.07, 32.75 15.84 C32.58 16.61, 32.33 17.38, 32 18.12 C31.68 18.85, 31.27 19.57, 30.79 20.25 C30.31 20.93, 29.75 21.58, 29.14 22.18 C28.53 22.78, 27.84 23.34, 27.11 23.84 C26.37 24.34, 25.58 24.8, 24.75 25.19 C23.92 25.58, 23.04 25.92, 22.14 26.19 C21.25 26.45, 20.31 26.66, 19.37 26.79 C18.42 26.93, 17.46 27, 16.5 27 C15.54 27, 14.58 26.93, 13.63 26.79 C12.69 26.66, 11.75 26.45, 10.86 26.19 C9.96 25.92, 9.08 25.58, 8.25 25.19 C7.42 24.8, 6.63 24.34, 5.89 23.84 C5.16 23.34, 4.47 22.78, 3.86 22.18 C3.25 21.58, 2.69 20.93, 2.21 20.25 C1.73 19.57, 1.32 18.85, 1 18.12 C0.67 17.38, 0.42 16.61, 0.25 15.84 C0.08 15.07, 0 14.28, 0 13.5 C0 12.72, 0.08 11.93, 0.25 11.16 C0.42 10.39, 0.67 9.62, 1 8.88 C1.32 8.15, 1.73 7.43, 2.21 6.75 C2.69 6.07, 3.25 5.42, 3.86 4.82 C4.47 4.22, 5.16 3.66, 5.89 3.16 C6.63 2.66, 7.42 2.2, 8.25 1.81 C9.08 1.42, 9.96 1.08, 10.86 0.81 C11.75 0.55, 12.69 0.34, 13.63 0.21 C14.58 0.07, 15.54 0, 16.5 0 C17.46 0, 18.42 0.07, 19.37 0.21 C20.31 0.34, 21.25 0.55, 22.14 0.81 C23.04 1.08, 23.92 1.42, 24.75 1.81 C25.58 2.2, 26.37 2.66, 27.11 3.16 C27.84 3.66, 28.53 4.22, 29.14 4.82 C29.75 5.42, 30.31 6.07, 30.79 6.75 C31.27 7.43, 31.68 8.15, 32 8.88 C32.33 9.62, 32.58 10.39, 32.75 11.16 C32.92 11.93, 32.96 13.11, 33 13.5 C33.04 13.89, 33.04 13.11, 33 13.5" stroke="#000000" stroke-width="1" fill="none"></path></g><g stroke-linecap="round" transform="translate(193.5 95) rotate(0 16.5 13.5)"><path d="M33 13.5 C33 14.28, 32.92 15.07, 32.75 15.84 C32.58 16.61, 32.33 17.38, 32 18.12 C31.68 18.85, 31.27 19.57, 30.79 20.25 C30.31 20.93, 29.75 21.58, 29.14 22.18 C28.53 22.78, 27.84 23.34, 27.11 23.84 C26.37 24.34, 25.58 24.8, 24.75 25.19 C23.92 25.58, 23.04 25.92, 22.14 26.19 C21.25 26.45, 20.31 26.66, 19.37 26.79 C18.42 26.93, 17.46 27, 16.5 27 C15.54 27, 14.58 26.93, 13.63 26.79 C12.69 26.66, 11.75 26.45, 10.86 26.19 C9.96 25.92, 9.08 25.58, 8.25 25.19 C7.42 24.8, 6.63 24.34, 5.89 23.84 C5.16 23.34, 4.47 22.78, 3.86 22.18 C3.25 21.58, 2.69 20.93, 2.21 20.25 C1.73 19.57, 1.32 18.85, 1 18.12 C0.67 17.38, 0.42 16.61, 0.25 15.84 C0.08 15.07, 0 14.28, 0 13.5 C0 12.72, 0.08 11.93, 0.25 11.16 C0.42 10.39, 0.67 9.62, 1 8.88 C1.32 8.15, 1.73 7.43, 2.21 6.75 C2.69 6.07, 3.25 5.42, 3.86 4.82 C4.47 4.22, 5.16 3.66, 5.89 3.16 C6.63 2.66, 7.42 2.2, 8.25 1.81 C9.08 1.42, 9.96 1.08, 10.86 0.81 C11.75 0.55, 12.69 0.34, 13.63 0.21 C14.58 0.07, 15.54 0, 16.5 0 C17.46 0, 18.42 0.07, 19.37 0.21 C20.31 0.34, 21.25 0.55, 22.14 0.81 C23.04 1.08, 23.92 1.42, 24.75 1.81 C25.58 2.2, 26.37 2.66, 27.11 3.16 C27.84 3.66, 28.53 4.22, 29.14 4.82 C29.75 5.42, 30.31 6.07, 30.79 6.75 C31.27 7.43, 31.68 8.15, 32 8.88 C32.33 9.62, 32.58 10.39, 32.75 11.16 C32.92 11.93, 32.96 13.11, 33 13.5 C33.04 13.89, 33.04 13.11, 33 13.5" stroke="none" stroke-width="0" fill="#fa5252"></path><path d="M33 13.5 C33 14.28, 32.92 15.07, 32.75 15.84 C32.58 16.61, 32.33 17.38, 32 18.12 C31.68 18.85, 31.27 19.57, 30.79 20.25 C30.31 20.93, 29.75 21.58, 29.14 22.18 C28.53 22.78, 27.84 23.34, 27.11 23.84 C26.37 24.34, 25.58 24.8, 24.75 25.19 C23.92 25.58, 23.04 25.92, 22.14 26.19 C21.25 26.45, 20.31 26.66, 19.37 26.79 C18.42 26.93, 17.46 27, 16.5 27 C15.54 27, 14.58 26.93, 13.63 26.79 C12.69 26.66, 11.75 26.45, 10.86 26.19 C9.96 25.92, 9.08 25.58, 8.25 25.19 C7.42 24.8, 6.63 24.34, 5.89 23.84 C5.16 23.34, 4.47 22.78, 3.86 22.18 C3.25 21.58, 2.69 20.93, 2.21 20.25 C1.73 19.57, 1.32 18.85, 1 18.12 C0.67 17.38, 0.42 16.61, 0.25 15.84 C0.08 15.07, 0 14.28, 0 13.5 C0 12.72, 0.08 11.93, 0.25 11.16 C0.42 10.39, 0.67 9.62, 1 8.88 C1.32 8.15, 1.73 7.43, 2.21 6.75 C2.69 6.07, 3.25 5.42, 3.86 4.82 C4.47 4.22, 5.16 3.66, 5.89 3.16 C6.63 2.66, 7.42 2.2, 8.25 1.81 C9.08 1.42, 9.96 1.08, 10.86 0.81 C11.75 0.55, 12.69 0.34, 13.63 0.21 C14.58 0.07, 15.54 0, 16.5 0 C17.46 0, 18.42 0.07, 19.37 0.21 C20.31 0.34, 21.25 0.55, 22.14 0.81 C23.04 1.08, 23.92 1.42, 24.75 1.81 C25.58 2.2, 26.37 2.66, 27.11 3.16 C27.84 3.66, 28.53 4.22, 29.14 4.82 C29.75 5.42, 30.31 6.07, 30.79 6.75 C31.27 7.43, 31.68 8.15, 32 8.88 C32.33 9.62, 32.58 10.39, 32.75 11.16 C32.92 11.93, 32.96 13.11, 33 13.5 C33.04 13.89, 33.04 13.11, 33 13.5" stroke="#000000" stroke-width="1" fill="none"></path></g><g stroke-linecap="round" transform="translate(437.5 177) rotate(0 16.5 13.5)"><path d="M33 13.5 C33 14.28, 32.92 15.07, 32.75 15.84 C32.58 16.61, 32.33 17.38, 32 18.12 C31.68 18.85, 31.27 19.57, 30.79 20.25 C30.31 20.93, 29.75 21.58, 29.14 22.18 C28.53 22.78, 27.84 23.34, 27.11 23.84 C26.37 24.34, 25.58 24.8, 24.75 25.19 C23.92 25.58, 23.04 25.92, 22.14 26.19 C21.25 26.45, 20.31 26.66, 19.37 26.79 C18.42 26.93, 17.46 27, 16.5 27 C15.54 27, 14.58 26.93, 13.63 26.79 C12.69 26.66, 11.75 26.45, 10.86 26.19 C9.96 25.92, 9.08 25.58, 8.25 25.19 C7.42 24.8, 6.63 24.34, 5.89 23.84 C5.16 23.34, 4.47 22.78, 3.86 22.18 C3.25 21.58, 2.69 20.93, 2.21 20.25 C1.73 19.57, 1.32 18.85, 1 18.12 C0.67 17.38, 0.42 16.61, 0.25 15.84 C0.08 15.07, 0 14.28, 0 13.5 C0 12.72, 0.08 11.93, 0.25 11.16 C0.42 10.39, 0.67 9.62, 1 8.88 C1.32 8.15, 1.73 7.43, 2.21 6.75 C2.69 6.07, 3.25 5.42, 3.86 4.82 C4.47 4.22, 5.16 3.66, 5.89 3.16 C6.63 2.66, 7.42 2.2, 8.25 1.81 C9.08 1.42, 9.96 1.08, 10.86 0.81 C11.75 0.55, 12.69 0.34, 13.63 0.21 C14.58 0.07, 15.54 0, 16.5 0 C17.46 0, 18.42 0.07, 19.37 0.21 C20.31 0.34, 21.25 0.55, 22.14 0.81 C23.04 1.08, 23.92 1.42, 24.75 1.81 C25.58 2.2, 26.37 2.66, 27.11 3.16 C27.84 3.66, 28.53 4.22, 29.14 4.82 C29.75 5.42, 30.31 6.07, 30.79 6.75 C31.27 7.43, 31.68 8.15, 32 8.88 C32.33 9.62, 32.58 10.39, 32.75 11.16 C32.92 11.93, 32.96 13.11, 33 13.5 C33.04 13.89, 33.04 13.11, 33 13.5" stroke="none" stroke-width="0" fill="#fa5252"></path><path d="M33 13.5 C33 14.28, 32.92 15.07, 32.75 15.84 C32.58 16.61, 32.33 17.38, 32 18.12 C31.68 18.85, 31.27 19.57, 30.79 20.25 C30.31 20.93, 29.75 21.58, 29.14 22.18 C28.53 22.78, 27.84 23.34, 27.11 23.84 C26.37 24.34, 25.58 24.8, 24.75 25.19 C23.92 25.58, 23.04 25.92, 22.14 26.19 C21.25 26.45, 20.31 26.66, 19.37 26.79 C18.42 26.93, 17.46 27, 16.5 27 C15.54 27, 14.58 26.93, 13.63 26.79 C12.69 26.66, 11.75 26.45, 10.86 26.19 C9.96 25.92, 9.08 25.58, 8.25 25.19 C7.42 24.8, 6.63 24.34, 5.89 23.84 C5.16 23.34, 4.47 22.78, 3.86 22.18 C3.25 21.58, 2.69 20.93, 2.21 20.25 C1.73 19.57, 1.32 18.85, 1 18.12 C0.67 17.38, 0.42 16.61, 0.25 15.84 C0.08 15.07, 0 14.28, 0 13.5 C0 12.72, 0.08 11.93, 0.25 11.16 C0.42 10.39, 0.67 9.62, 1 8.88 C1.32 8.15, 1.73 7.43, 2.21 6.75 C2.69 6.07, 3.25 5.42, 3.86 4.82 C4.47 4.22, 5.16 3.66, 5.89 3.16 C6.63 2.66, 7.42 2.2, 8.25 1.81 C9.08 1.42, 9.96 1.08, 10.86 0.81 C11.75 0.55, 12.69 0.34, 13.63 0.21 C14.58 0.07, 15.54 0, 16.5 0 C17.46 0, 18.42 0.07, 19.37 0.21 C20.31 0.34, 21.25 0.55, 22.14 0.81 C23.04 1.08, 23.92 1.42, 24.75 1.81 C25.58 2.2, 26.37 2.66, 27.11 3.16 C27.84 3.66, 28.53 4.22, 29.14 4.82 C29.75 5.42, 30.31 6.07, 30.79 6.75 C31.27 7.43, 31.68 8.15, 32 8.88 C32.33 9.62, 32.58 10.39, 32.75 11.16 C32.92 11.93, 32.96 13.11, 33 13.5 C33.04 13.89, 33.04 13.11, 33 13.5" stroke="#000000" stroke-width="1" fill="none"></path></g><g stroke-linecap="round" transform="translate(193.5 138) rotate(0 16.5 13.5)"><path d="M33 13.5 C33 14.28, 32.92 15.07, 32.75 15.84 C32.58 16.61, 32.33 17.38, 32 18.12 C31.68 18.85, 31.27 19.57, 30.79 20.25 C30.31 20.93, 29.75 21.58, 29.14 22.18 C28.53 22.78, 27.84 23.34, 27.11 23.84 C26.37 24.34, 25.58 24.8, 24.75 25.19 C23.92 25.58, 23.04 25.92, 22.14 26.19 C21.25 26.45, 20.31 26.66, 19.37 26.79 C18.42 26.93, 17.46 27, 16.5 27 C15.54 27, 14.58 26.93, 13.63 26.79 C12.69 26.66, 11.75 26.45, 10.86 26.19 C9.96 25.92, 9.08 25.58, 8.25 25.19 C7.42 24.8, 6.63 24.34, 5.89 23.84 C5.16 23.34, 4.47 22.78, 3.86 22.18 C3.25 21.58, 2.69 20.93, 2.21 20.25 C1.73 19.57, 1.32 18.85, 1 18.12 C0.67 17.38, 0.42 16.61, 0.25 15.84 C0.08 15.07, 0 14.28, 0 13.5 C0 12.72, 0.08 11.93, 0.25 11.16 C0.42 10.39, 0.67 9.62, 1 8.88 C1.32 8.15, 1.73 7.43, 2.21 6.75 C2.69 6.07, 3.25 5.42, 3.86 4.82 C4.47 4.22, 5.16 3.66, 5.89 3.16 C6.63 2.66, 7.42 2.2, 8.25 1.81 C9.08 1.42, 9.96 1.08, 10.86 0.81 C11.75 0.55, 12.69 0.34, 13.63 0.21 C14.58 0.07, 15.54 0, 16.5 0 C17.46 0, 18.42 0.07, 19.37 0.21 C20.31 0.34, 21.25 0.55, 22.14 0.81 C23.04 1.08, 23.92 1.42, 24.75 1.81 C25.58 2.2, 26.37 2.66, 27.11 3.16 C27.84 3.66, 28.53 4.22, 29.14 4.82 C29.75 5.42, 30.31 6.07, 30.79 6.75 C31.27 7.43, 31.68 8.15, 32 8.88 C32.33 9.62, 32.58 10.39, 32.75 11.16 C32.92 11.93, 32.96 13.11, 33 13.5 C33.04 13.89, 33.04 13.11, 33 13.5" stroke="none" stroke-width="0" fill="#fab005"></path><path d="M33 13.5 C33 14.28, 32.92 15.07, 32.75 15.84 C32.58 16.61, 32.33 17.38, 32 18.12 C31.68 18.85, 31.27 19.57, 30.79 20.25 C30.31 20.93, 29.75 21.58, 29.14 22.18 C28.53 22.78, 27.84 23.34, 27.11 23.84 C26.37 24.34, 25.58 24.8, 24.75 25.19 C23.92 25.58, 23.04 25.92, 22.14 26.19 C21.25 26.45, 20.31 26.66, 19.37 26.79 C18.42 26.93, 17.46 27, 16.5 27 C15.54 27, 14.58 26.93, 13.63 26.79 C12.69 26.66, 11.75 26.45, 10.86 26.19 C9.96 25.92, 9.08 25.58, 8.25 25.19 C7.42 24.8, 6.63 24.34, 5.89 23.84 C5.16 23.34, 4.47 22.78, 3.86 22.18 C3.25 21.58, 2.69 20.93, 2.21 20.25 C1.73 19.57, 1.32 18.85, 1 18.12 C0.67 17.38, 0.42 16.61, 0.25 15.84 C0.08 15.07, 0 14.28, 0 13.5 C0 12.72, 0.08 11.93, 0.25 11.16 C0.42 10.39, 0.67 9.62, 1 8.88 C1.32 8.15, 1.73 7.43, 2.21 6.75 C2.69 6.07, 3.25 5.42, 3.86 4.82 C4.47 4.22, 5.16 3.66, 5.89 3.16 C6.63 2.66, 7.42 2.2, 8.25 1.81 C9.08 1.42, 9.96 1.08, 10.86 0.81 C11.75 0.55, 12.69 0.34, 13.63 0.21 C14.58 0.07, 15.54 0, 16.5 0 C17.46 0, 18.42 0.07, 19.37 0.21 C20.31 0.34, 21.25 0.55, 22.14 0.81 C23.04 1.08, 23.92 1.42, 24.75 1.81 C25.58 2.2, 26.37 2.66, 27.11 3.16 C27.84 3.66, 28.53 4.22, 29.14 4.82 C29.75 5.42, 30.31 6.07, 30.79 6.75 C31.27 7.43, 31.68 8.15, 32 8.88 C32.33 9.62, 32.58 10.39, 32.75 11.16 C32.92 11.93, 32.96 13.11, 33 13.5 C33.04 13.89, 33.04 13.11, 33 13.5" stroke="#000000" stroke-width="1" fill="none"></path></g><g stroke-linecap="round" transform="translate(317.5 136) rotate(0 16.5 13.5)"><path d="M33 13.5 C33 14.28, 32.92 15.07, 32.75 15.84 C32.58 16.61, 32.33 17.38, 32 18.12 C31.68 18.85, 31.27 19.57, 30.79 20.25 C30.31 20.93, 29.75 21.58, 29.14 22.18 C28.53 22.78, 27.84 23.34, 27.11 23.84 C26.37 24.34, 25.58 24.8, 24.75 25.19 C23.92 25.58, 23.04 25.92, 22.14 26.19 C21.25 26.45, 20.31 26.66, 19.37 26.79 C18.42 26.93, 17.46 27, 16.5 27 C15.54 27, 14.58 26.93, 13.63 26.79 C12.69 26.66, 11.75 26.45, 10.86 26.19 C9.96 25.92, 9.08 25.58, 8.25 25.19 C7.42 24.8, 6.63 24.34, 5.89 23.84 C5.16 23.34, 4.47 22.78, 3.86 22.18 C3.25 21.58, 2.69 20.93, 2.21 20.25 C1.73 19.57, 1.32 18.85, 1 18.12 C0.67 17.38, 0.42 16.61, 0.25 15.84 C0.08 15.07, 0 14.28, 0 13.5 C0 12.72, 0.08 11.93, 0.25 11.16 C0.42 10.39, 0.67 9.62, 1 8.88 C1.32 8.15, 1.73 7.43, 2.21 6.75 C2.69 6.07, 3.25 5.42, 3.86 4.82 C4.47 4.22, 5.16 3.66, 5.89 3.16 C6.63 2.66, 7.42 2.2, 8.25 1.81 C9.08 1.42, 9.96 1.08, 10.86 0.81 C11.75 0.55, 12.69 0.34, 13.63 0.21 C14.58 0.07, 15.54 0, 16.5 0 C17.46 0, 18.42 0.07, 19.37 0.21 C20.31 0.34, 21.25 0.55, 22.14 0.81 C23.04 1.08, 23.92 1.42, 24.75 1.81 C25.58 2.2, 26.37 2.66, 27.11 3.16 C27.84 3.66, 28.53 4.22, 29.14 4.82 C29.75 5.42, 30.31 6.07, 30.79 6.75 C31.27 7.43, 31.68 8.15, 32 8.88 C32.33 9.62, 32.58 10.39, 32.75 11.16 C32.92 11.93, 32.96 13.11, 33 13.5 C33.04 13.89, 33.04 13.11, 33 13.5" stroke="none" stroke-width="0" fill="#fab005"></path><path d="M33 13.5 C33 14.28, 32.92 15.07, 32.75 15.84 C32.58 16.61, 32.33 17.38, 32 18.12 C31.68 18.85, 31.27 19.57, 30.79 20.25 C30.31 20.93, 29.75 21.58, 29.14 22.18 C28.53 22.78, 27.84 23.34, 27.11 23.84 C26.37 24.34, 25.58 24.8, 24.75 25.19 C23.92 25.58, 23.04 25.92, 22.14 26.19 C21.25 26.45, 20.31 26.66, 19.37 26.79 C18.42 26.93, 17.46 27, 16.5 27 C15.54 27, 14.58 26.93, 13.63 26.79 C12.69 26.66, 11.75 26.45, 10.86 26.19 C9.96 25.92, 9.08 25.58, 8.25 25.19 C7.42 24.8, 6.63 24.34, 5.89 23.84 C5.16 23.34, 4.47 22.78, 3.86 22.18 C3.25 21.58, 2.69 20.93, 2.21 20.25 C1.73 19.57, 1.32 18.85, 1 18.12 C0.67 17.38, 0.42 16.61, 0.25 15.84 C0.08 15.07, 0 14.28, 0 13.5 C0 12.72, 0.08 11.93, 0.25 11.16 C0.42 10.39, 0.67 9.62, 1 8.88 C1.32 8.15, 1.73 7.43, 2.21 6.75 C2.69 6.07, 3.25 5.42, 3.86 4.82 C4.47 4.22, 5.16 3.66, 5.89 3.16 C6.63 2.66, 7.42 2.2, 8.25 1.81 C9.08 1.42, 9.96 1.08, 10.86 0.81 C11.75 0.55, 12.69 0.34, 13.63 0.21 C14.58 0.07, 15.54 0, 16.5 0 C17.46 0, 18.42 0.07, 19.37 0.21 C20.31 0.34, 21.25 0.55, 22.14 0.81 C23.04 1.08, 23.92 1.42, 24.75 1.81 C25.58 2.2, 26.37 2.66, 27.11 3.16 C27.84 3.66, 28.53 4.22, 29.14 4.82 C29.75 5.42, 30.31 6.07, 30.79 6.75 C31.27 7.43, 31.68 8.15, 32 8.88 C32.33 9.62, 32.58 10.39, 32.75 11.16 C32.92 11.93, 32.96 13.11, 33 13.5 C33.04 13.89, 33.04 13.11, 33 13.5" stroke="#000000" stroke-width="1" fill="none"></path></g><g stroke-linecap="round" transform="translate(319.5 49) rotate(0 16.5 13.5)"><path d="M33 13.5 C33 14.28, 32.92 15.07, 32.75 15.84 C32.58 16.61, 32.33 17.38, 32 18.12 C31.68 18.85, 31.27 19.57, 30.79 20.25 C30.31 20.93, 29.75 21.58, 29.14 22.18 C28.53 22.78, 27.84 23.34, 27.11 23.84 C26.37 24.34, 25.58 24.8, 24.75 25.19 C23.92 25.58, 23.04 25.92, 22.14 26.19 C21.25 26.45, 20.31 26.66, 19.37 26.79 C18.42 26.93, 17.46 27, 16.5 27 C15.54 27, 14.58 26.93, 13.63 26.79 C12.69 26.66, 11.75 26.45, 10.86 26.19 C9.96 25.92, 9.08 25.58, 8.25 25.19 C7.42 24.8, 6.63 24.34, 5.89 23.84 C5.16 23.34, 4.47 22.78, 3.86 22.18 C3.25 21.58, 2.69 20.93, 2.21 20.25 C1.73 19.57, 1.32 18.85, 1 18.12 C0.67 17.38, 0.42 16.61, 0.25 15.84 C0.08 15.07, 0 14.28, 0 13.5 C0 12.72, 0.08 11.93, 0.25 11.16 C0.42 10.39, 0.67 9.62, 1 8.88 C1.32 8.15, 1.73 7.43, 2.21 6.75 C2.69 6.07, 3.25 5.42, 3.86 4.82 C4.47 4.22, 5.16 3.66, 5.89 3.16 C6.63 2.66, 7.42 2.2, 8.25 1.81 C9.08 1.42, 9.96 1.08, 10.86 0.81 C11.75 0.55, 12.69 0.34, 13.63 0.21 C14.58 0.07, 15.54 0, 16.5 0 C17.46 0, 18.42 0.07, 19.37 0.21 C20.31 0.34, 21.25 0.55, 22.14 0.81 C23.04 1.08, 23.92 1.42, 24.75 1.81 C25.58 2.2, 26.37 2.66, 27.11 3.16 C27.84 3.66, 28.53 4.22, 29.14 4.82 C29.75 5.42, 30.31 6.07, 30.79 6.75 C31.27 7.43, 31.68 8.15, 32 8.88 C32.33 9.62, 32.58 10.39, 32.75 11.16 C32.92 11.93, 32.96 13.11, 33 13.5 C33.04 13.89, 33.04 13.11, 33 13.5" stroke="none" stroke-width="0" fill="#40c057"></path><path d="M33 13.5 C33 14.28, 32.92 15.07, 32.75 15.84 C32.58 16.61, 32.33 17.38, 32 18.12 C31.68 18.85, 31.27 19.57, 30.79 20.25 C30.31 20.93, 29.75 21.58, 29.14 22.18 C28.53 22.78, 27.84 23.34, 27.11 23.84 C26.37 24.34, 25.58 24.8, 24.75 25.19 C23.92 25.58, 23.04 25.92, 22.14 26.19 C21.25 26.45, 20.31 26.66, 19.37 26.79 C18.42 26.93, 17.46 27, 16.5 27 C15.54 27, 14.58 26.93, 13.63 26.79 C12.69 26.66, 11.75 26.45, 10.86 26.19 C9.96 25.92, 9.08 25.58, 8.25 25.19 C7.42 24.8, 6.63 24.34, 5.89 23.84 C5.16 23.34, 4.47 22.78, 3.86 22.18 C3.25 21.58, 2.69 20.93, 2.21 20.25 C1.73 19.57, 1.32 18.85, 1 18.12 C0.67 17.38, 0.42 16.61, 0.25 15.84 C0.08 15.07, 0 14.28, 0 13.5 C0 12.72, 0.08 11.93, 0.25 11.16 C0.42 10.39, 0.67 9.62, 1 8.88 C1.32 8.15, 1.73 7.43, 2.21 6.75 C2.69 6.07, 3.25 5.42, 3.86 4.82 C4.47 4.22, 5.16 3.66, 5.89 3.16 C6.63 2.66, 7.42 2.2, 8.25 1.81 C9.08 1.42, 9.96 1.08, 10.86 0.81 C11.75 0.55, 12.69 0.34, 13.63 0.21 C14.58 0.07, 15.54 0, 16.5 0 C17.46 0, 18.42 0.07, 19.37 0.21 C20.31 0.34, 21.25 0.55, 22.14 0.81 C23.04 1.08, 23.92 1.42, 24.75 1.81 C25.58 2.2, 26.37 2.66, 27.11 3.16 C27.84 3.66, 28.53 4.22, 29.14 4.82 C29.75 5.42, 30.31 6.07, 30.79 6.75 C31.27 7.43, 31.68 8.15, 32 8.88 C32.33 9.62, 32.58 10.39, 32.75 11.16 C32.92 11.93, 32.96 13.11, 33 13.5 C33.04 13.89, 33.04 13.11, 33 13.5" stroke="#000000" stroke-width="1" fill="none"></path></g><g stroke-linecap="round" transform="translate(435.5 52) rotate(0 16.5 13.5)"><path d="M33 13.5 C33 14.28, 32.92 15.07, 32.75 15.84 C32.58 16.61, 32.33 17.38, 32 18.12 C31.68 18.85, 31.27 19.57, 30.79 20.25 C30.31 20.93, 29.75 21.58, 29.14 22.18 C28.53 22.78, 27.84 23.34, 27.11 23.84 C26.37 24.34, 25.58 24.8, 24.75 25.19 C23.92 25.58, 23.04 25.92, 22.14 26.19 C21.25 26.45, 20.31 26.66, 19.37 26.79 C18.42 26.93, 17.46 27, 16.5 27 C15.54 27, 14.58 26.93, 13.63 26.79 C12.69 26.66, 11.75 26.45, 10.86 26.19 C9.96 25.92, 9.08 25.58, 8.25 25.19 C7.42 24.8, 6.63 24.34, 5.89 23.84 C5.16 23.34, 4.47 22.78, 3.86 22.18 C3.25 21.58, 2.69 20.93, 2.21 20.25 C1.73 19.57, 1.32 18.85, 1 18.12 C0.67 17.38, 0.42 16.61, 0.25 15.84 C0.08 15.07, 0 14.28, 0 13.5 C0 12.72, 0.08 11.93, 0.25 11.16 C0.42 10.39, 0.67 9.62, 1 8.88 C1.32 8.15, 1.73 7.43, 2.21 6.75 C2.69 6.07, 3.25 5.42, 3.86 4.82 C4.47 4.22, 5.16 3.66, 5.89 3.16 C6.63 2.66, 7.42 2.2, 8.25 1.81 C9.08 1.42, 9.96 1.08, 10.86 0.81 C11.75 0.55, 12.69 0.34, 13.63 0.21 C14.58 0.07, 15.54 0, 16.5 0 C17.46 0, 18.42 0.07, 19.37 0.21 C20.31 0.34, 21.25 0.55, 22.14 0.81 C23.04 1.08, 23.92 1.42, 24.75 1.81 C25.58 2.2, 26.37 2.66, 27.11 3.16 C27.84 3.66, 28.53 4.22, 29.14 4.82 C29.75 5.42, 30.31 6.07, 30.79 6.75 C31.27 7.43, 31.68 8.15, 32 8.88 C32.33 9.62, 32.58 10.39, 32.75 11.16 C32.92 11.93, 32.96 13.11, 33 13.5 C33.04 13.89, 33.04 13.11, 33 13.5" stroke="none" stroke-width="0" fill="#40c057"></path><path d="M33 13.5 C33 14.28, 32.92 15.07, 32.75 15.84 C32.58 16.61, 32.33 17.38, 32 18.12 C31.68 18.85, 31.27 19.57, 30.79 20.25 C30.31 20.93, 29.75 21.58, 29.14 22.18 C28.53 22.78, 27.84 23.34, 27.11 23.84 C26.37 24.34, 25.58 24.8, 24.75 25.19 C23.92 25.58, 23.04 25.92, 22.14 26.19 C21.25 26.45, 20.31 26.66, 19.37 26.79 C18.42 26.93, 17.46 27, 16.5 27 C15.54 27, 14.58 26.93, 13.63 26.79 C12.69 26.66, 11.75 26.45, 10.86 26.19 C9.96 25.92, 9.08 25.58, 8.25 25.19 C7.42 24.8, 6.63 24.34, 5.89 23.84 C5.16 23.34, 4.47 22.78, 3.86 22.18 C3.25 21.58, 2.69 20.93, 2.21 20.25 C1.73 19.57, 1.32 18.85, 1 18.12 C0.67 17.38, 0.42 16.61, 0.25 15.84 C0.08 15.07, 0 14.28, 0 13.5 C0 12.72, 0.08 11.93, 0.25 11.16 C0.42 10.39, 0.67 9.62, 1 8.88 C1.32 8.15, 1.73 7.43, 2.21 6.75 C2.69 6.07, 3.25 5.42, 3.86 4.82 C4.47 4.22, 5.16 3.66, 5.89 3.16 C6.63 2.66, 7.42 2.2, 8.25 1.81 C9.08 1.42, 9.96 1.08, 10.86 0.81 C11.75 0.55, 12.69 0.34, 13.63 0.21 C14.58 0.07, 15.54 0, 16.5 0 C17.46 0, 18.42 0.07, 19.37 0.21 C20.31 0.34, 21.25 0.55, 22.14 0.81 C23.04 1.08, 23.92 1.42, 24.75 1.81 C25.58 2.2, 26.37 2.66, 27.11 3.16 C27.84 3.66, 28.53 4.22, 29.14 4.82 C29.75 5.42, 30.31 6.07, 30.79 6.75 C31.27 7.43, 31.68 8.15, 32 8.88 C32.33 9.62, 32.58 10.39, 32.75 11.16 C32.92 11.93, 32.96 13.11, 33 13.5 C33.04 13.89, 33.04 13.11, 33 13.5" stroke="#000000" stroke-width="1" fill="none"></path></g><g stroke-linecap="round" transform="translate(436.5 95) rotate(0 16.5 13.5)"><path d="M33 13.5 C33 14.28, 32.92 15.07, 32.75 15.84 C32.58 16.61, 32.33 17.38, 32 18.12 C31.68 18.85, 31.27 19.57, 30.79 20.25 C30.31 20.93, 29.75 21.58, 29.14 22.18 C28.53 22.78, 27.84 23.34, 27.11 23.84 C26.37 24.34, 25.58 24.8, 24.75 25.19 C23.92 25.58, 23.04 25.92, 22.14 26.19 C21.25 26.45, 20.31 26.66, 19.37 26.79 C18.42 26.93, 17.46 27, 16.5 27 C15.54 27, 14.58 26.93, 13.63 26.79 C12.69 26.66, 11.75 26.45, 10.86 26.19 C9.96 25.92, 9.08 25.58, 8.25 25.19 C7.42 24.8, 6.63 24.34, 5.89 23.84 C5.16 23.34, 4.47 22.78, 3.86 22.18 C3.25 21.58, 2.69 20.93, 2.21 20.25 C1.73 19.57, 1.32 18.85, 1 18.12 C0.67 17.38, 0.42 16.61, 0.25 15.84 C0.08 15.07, 0 14.28, 0 13.5 C0 12.72, 0.08 11.93, 0.25 11.16 C0.42 10.39, 0.67 9.62, 1 8.88 C1.32 8.15, 1.73 7.43, 2.21 6.75 C2.69 6.07, 3.25 5.42, 3.86 4.82 C4.47 4.22, 5.16 3.66, 5.89 3.16 C6.63 2.66, 7.42 2.2, 8.25 1.81 C9.08 1.42, 9.96 1.08, 10.86 0.81 C11.75 0.55, 12.69 0.34, 13.63 0.21 C14.58 0.07, 15.54 0, 16.5 0 C17.46 0, 18.42 0.07, 19.37 0.21 C20.31 0.34, 21.25 0.55, 22.14 0.81 C23.04 1.08, 23.92 1.42, 24.75 1.81 C25.58 2.2, 26.37 2.66, 27.11 3.16 C27.84 3.66, 28.53 4.22, 29.14 4.82 C29.75 5.42, 30.31 6.07, 30.79 6.75 C31.27 7.43, 31.68 8.15, 32 8.88 C32.33 9.62, 32.58 10.39, 32.75 11.16 C32.92 11.93, 32.96 13.11, 33 13.5 C33.04 13.89, 33.04 13.11, 33 13.5" stroke="none" stroke-width="0" fill="#40c057"></path><path d="M33 13.5 C33 14.28, 32.92 15.07, 32.75 15.84 C32.58 16.61, 32.33 17.38, 32 18.12 C31.68 18.85, 31.27 19.57, 30.79 20.25 C30.31 20.93, 29.75 21.58, 29.14 22.18 C28.53 22.78, 27.84 23.34, 27.11 23.84 C26.37 24.34, 25.58 24.8, 24.75 25.19 C23.92 25.58, 23.04 25.92, 22.14 26.19 C21.25 26.45, 20.31 26.66, 19.37 26.79 C18.42 26.93, 17.46 27, 16.5 27 C15.54 27, 14.58 26.93, 13.63 26.79 C12.69 26.66, 11.75 26.45, 10.86 26.19 C9.96 25.92, 9.08 25.58, 8.25 25.19 C7.42 24.8, 6.63 24.34, 5.89 23.84 C5.16 23.34, 4.47 22.78, 3.86 22.18 C3.25 21.58, 2.69 20.93, 2.21 20.25 C1.73 19.57, 1.32 18.85, 1 18.12 C0.67 17.38, 0.42 16.61, 0.25 15.84 C0.08 15.07, 0 14.28, 0 13.5 C0 12.72, 0.08 11.93, 0.25 11.16 C0.42 10.39, 0.67 9.62, 1 8.88 C1.32 8.15, 1.73 7.43, 2.21 6.75 C2.69 6.07, 3.25 5.42, 3.86 4.82 C4.47 4.22, 5.16 3.66, 5.89 3.16 C6.63 2.66, 7.42 2.2, 8.25 1.81 C9.08 1.42, 9.96 1.08, 10.86 0.81 C11.75 0.55, 12.69 0.34, 13.63 0.21 C14.58 0.07, 15.54 0, 16.5 0 C17.46 0, 18.42 0.07, 19.37 0.21 C20.31 0.34, 21.25 0.55, 22.14 0.81 C23.04 1.08, 23.92 1.42, 24.75 1.81 C25.58 2.2, 26.37 2.66, 27.11 3.16 C27.84 3.66, 28.53 4.22, 29.14 4.82 C29.75 5.42, 30.31 6.07, 30.79 6.75 C31.27 7.43, 31.68 8.15, 32 8.88 C32.33 9.62, 32.58 10.39, 32.75 11.16 C32.92 11.93, 32.96 13.11, 33 13.5 C33.04 13.89, 33.04 13.11, 33 13.5" stroke="#000000" stroke-width="1" fill="none"></path></g><g stroke-linecap="round" transform="translate(436.5 137) rotate(0 16.5 13.5)"><path d="M33 13.5 C33 14.28, 32.92 15.07, 32.75 15.84 C32.58 16.61, 32.33 17.38, 32 18.12 C31.68 18.85, 31.27 19.57, 30.79 20.25 C30.31 20.93, 29.75 21.58, 29.14 22.18 C28.53 22.78, 27.84 23.34, 27.11 23.84 C26.37 24.34, 25.58 24.8, 24.75 25.19 C23.92 25.58, 23.04 25.92, 22.14 26.19 C21.25 26.45, 20.31 26.66, 19.37 26.79 C18.42 26.93, 17.46 27, 16.5 27 C15.54 27, 14.58 26.93, 13.63 26.79 C12.69 26.66, 11.75 26.45, 10.86 26.19 C9.96 25.92, 9.08 25.58, 8.25 25.19 C7.42 24.8, 6.63 24.34, 5.89 23.84 C5.16 23.34, 4.47 22.78, 3.86 22.18 C3.25 21.58, 2.69 20.93, 2.21 20.25 C1.73 19.57, 1.32 18.85, 1 18.12 C0.67 17.38, 0.42 16.61, 0.25 15.84 C0.08 15.07, 0 14.28, 0 13.5 C0 12.72, 0.08 11.93, 0.25 11.16 C0.42 10.39, 0.67 9.62, 1 8.88 C1.32 8.15, 1.73 7.43, 2.21 6.75 C2.69 6.07, 3.25 5.42, 3.86 4.82 C4.47 4.22, 5.16 3.66, 5.89 3.16 C6.63 2.66, 7.42 2.2, 8.25 1.81 C9.08 1.42, 9.96 1.08, 10.86 0.81 C11.75 0.55, 12.69 0.34, 13.63 0.21 C14.58 0.07, 15.54 0, 16.5 0 C17.46 0, 18.42 0.07, 19.37 0.21 C20.31 0.34, 21.25 0.55, 22.14 0.81 C23.04 1.08, 23.92 1.42, 24.75 1.81 C25.58 2.2, 26.37 2.66, 27.11 3.16 C27.84 3.66, 28.53 4.22, 29.14 4.82 C29.75 5.42, 30.31 6.07, 30.79 6.75 C31.27 7.43, 31.68 8.15, 32 8.88 C32.33 9.62, 32.58 10.39, 32.75 11.16 C32.92 11.93, 32.96 13.11, 33 13.5 C33.04 13.89, 33.04 13.11, 33 13.5" stroke="none" stroke-width="0" fill="#40c057"></path><path d="M33 13.5 C33 14.28, 32.92 15.07, 32.75 15.84 C32.58 16.61, 32.33 17.38, 32 18.12 C31.68 18.85, 31.27 19.57, 30.79 20.25 C30.31 20.93, 29.75 21.58, 29.14 22.18 C28.53 22.78, 27.84 23.34, 27.11 23.84 C26.37 24.34, 25.58 24.8, 24.75 25.19 C23.92 25.58, 23.04 25.92, 22.14 26.19 C21.25 26.45, 20.31 26.66, 19.37 26.79 C18.42 26.93, 17.46 27, 16.5 27 C15.54 27, 14.58 26.93, 13.63 26.79 C12.69 26.66, 11.75 26.45, 10.86 26.19 C9.96 25.92, 9.08 25.58, 8.25 25.19 C7.42 24.8, 6.63 24.34, 5.89 23.84 C5.16 23.34, 4.47 22.78, 3.86 22.18 C3.25 21.58, 2.69 20.93, 2.21 20.25 C1.73 19.57, 1.32 18.85, 1 18.12 C0.67 17.38, 0.42 16.61, 0.25 15.84 C0.08 15.07, 0 14.28, 0 13.5 C0 12.72, 0.08 11.93, 0.25 11.16 C0.42 10.39, 0.67 9.62, 1 8.88 C1.32 8.15, 1.73 7.43, 2.21 6.75 C2.69 6.07, 3.25 5.42, 3.86 4.82 C4.47 4.22, 5.16 3.66, 5.89 3.16 C6.63 2.66, 7.42 2.2, 8.25 1.81 C9.08 1.42, 9.96 1.08, 10.86 0.81 C11.75 0.55, 12.69 0.34, 13.63 0.21 C14.58 0.07, 15.54 0, 16.5 0 C17.46 0, 18.42 0.07, 19.37 0.21 C20.31 0.34, 21.25 0.55, 22.14 0.81 C23.04 1.08, 23.92 1.42, 24.75 1.81 C25.58 2.2, 26.37 2.66, 27.11 3.16 C27.84 3.66, 28.53 4.22, 29.14 4.82 C29.75 5.42, 30.31 6.07, 30.79 6.75 C31.27 7.43, 31.68 8.15, 32 8.88 C32.33 9.62, 32.58 10.39, 32.75 11.16 C32.92 11.93, 32.96 13.11, 33 13.5 C33.04 13.89, 33.04 13.11, 33 13.5" stroke="#000000" stroke-width="1" fill="none"></path></g><g stroke-linecap="round" transform="translate(319.5 92) rotate(0 16.5 13.5)"><path d="M33 13.5 C33 14.28, 32.92 15.07, 32.75 15.84 C32.58 16.61, 32.33 17.38, 32 18.12 C31.68 18.85, 31.27 19.57, 30.79 20.25 C30.31 20.93, 29.75 21.58, 29.14 22.18 C28.53 22.78, 27.84 23.34, 27.11 23.84 C26.37 24.34, 25.58 24.8, 24.75 25.19 C23.92 25.58, 23.04 25.92, 22.14 26.19 C21.25 26.45, 20.31 26.66, 19.37 26.79 C18.42 26.93, 17.46 27, 16.5 27 C15.54 27, 14.58 26.93, 13.63 26.79 C12.69 26.66, 11.75 26.45, 10.86 26.19 C9.96 25.92, 9.08 25.58, 8.25 25.19 C7.42 24.8, 6.63 24.34, 5.89 23.84 C5.16 23.34, 4.47 22.78, 3.86 22.18 C3.25 21.58, 2.69 20.93, 2.21 20.25 C1.73 19.57, 1.32 18.85, 1 18.12 C0.67 17.38, 0.42 16.61, 0.25 15.84 C0.08 15.07, 0 14.28, 0 13.5 C0 12.72, 0.08 11.93, 0.25 11.16 C0.42 10.39, 0.67 9.62, 1 8.88 C1.32 8.15, 1.73 7.43, 2.21 6.75 C2.69 6.07, 3.25 5.42, 3.86 4.82 C4.47 4.22, 5.16 3.66, 5.89 3.16 C6.63 2.66, 7.42 2.2, 8.25 1.81 C9.08 1.42, 9.96 1.08, 10.86 0.81 C11.75 0.55, 12.69 0.34, 13.63 0.21 C14.58 0.07, 15.54 0, 16.5 0 C17.46 0, 18.42 0.07, 19.37 0.21 C20.31 0.34, 21.25 0.55, 22.14 0.81 C23.04 1.08, 23.92 1.42, 24.75 1.81 C25.58 2.2, 26.37 2.66, 27.11 3.16 C27.84 3.66, 28.53 4.22, 29.14 4.82 C29.75 5.42, 30.31 6.07, 30.79 6.75 C31.27 7.43, 31.68 8.15, 32 8.88 C32.33 9.62, 32.58 10.39, 32.75 11.16 C32.92 11.93, 32.96 13.11, 33 13.5 C33.04 13.89, 33.04 13.11, 33 13.5" stroke="none" stroke-width="0" fill="#40c057"></path><path d="M33 13.5 C33 14.28, 32.92 15.07, 32.75 15.84 C32.58 16.61, 32.33 17.38, 32 18.12 C31.68 18.85, 31.27 19.57, 30.79 20.25 C30.31 20.93, 29.75 21.58, 29.14 22.18 C28.53 22.78, 27.84 23.34, 27.11 23.84 C26.37 24.34, 25.58 24.8, 24.75 25.19 C23.92 25.58, 23.04 25.92, 22.14 26.19 C21.25 26.45, 20.31 26.66, 19.37 26.79 C18.42 26.93, 17.46 27, 16.5 27 C15.54 27, 14.58 26.93, 13.63 26.79 C12.69 26.66, 11.75 26.45, 10.86 26.19 C9.96 25.92, 9.08 25.58, 8.25 25.19 C7.42 24.8, 6.63 24.34, 5.89 23.84 C5.16 23.34, 4.47 22.78, 3.86 22.18 C3.25 21.58, 2.69 20.93, 2.21 20.25 C1.73 19.57, 1.32 18.85, 1 18.12 C0.67 17.38, 0.42 16.61, 0.25 15.84 C0.08 15.07, 0 14.28, 0 13.5 C0 12.72, 0.08 11.93, 0.25 11.16 C0.42 10.39, 0.67 9.62, 1 8.88 C1.32 8.15, 1.73 7.43, 2.21 6.75 C2.69 6.07, 3.25 5.42, 3.86 4.82 C4.47 4.22, 5.16 3.66, 5.89 3.16 C6.63 2.66, 7.42 2.2, 8.25 1.81 C9.08 1.42, 9.96 1.08, 10.86 0.81 C11.75 0.55, 12.69 0.34, 13.63 0.21 C14.58 0.07, 15.54 0, 16.5 0 C17.46 0, 18.42 0.07, 19.37 0.21 C20.31 0.34, 21.25 0.55, 22.14 0.81 C23.04 1.08, 23.92 1.42, 24.75 1.81 C25.58 2.2, 26.37 2.66, 27.11 3.16 C27.84 3.66, 28.53 4.22, 29.14 4.82 C29.75 5.42, 30.31 6.07, 30.79 6.75 C31.27 7.43, 31.68 8.15, 32 8.88 C32.33 9.62, 32.58 10.39, 32.75 11.16 C32.92 11.93, 32.96 13.11, 33 13.5 C33.04 13.89, 33.04 13.11, 33 13.5" stroke="#000000" stroke-width="1" fill="none"></path></g><g stroke-linecap="round" transform="translate(318.5 177) rotate(0 16.5 13.5)"><path d="M33 13.5 C33 14.28, 32.92 15.07, 32.75 15.84 C32.58 16.61, 32.33 17.38, 32 18.12 C31.68 18.85, 31.27 19.57, 30.79 20.25 C30.31 20.93, 29.75 21.58, 29.14 22.18 C28.53 22.78, 27.84 23.34, 27.11 23.84 C26.37 24.34, 25.58 24.8, 24.75 25.19 C23.92 25.58, 23.04 25.92, 22.14 26.19 C21.25 26.45, 20.31 26.66, 19.37 26.79 C18.42 26.93, 17.46 27, 16.5 27 C15.54 27, 14.58 26.93, 13.63 26.79 C12.69 26.66, 11.75 26.45, 10.86 26.19 C9.96 25.92, 9.08 25.58, 8.25 25.19 C7.42 24.8, 6.63 24.34, 5.89 23.84 C5.16 23.34, 4.47 22.78, 3.86 22.18 C3.25 21.58, 2.69 20.93, 2.21 20.25 C1.73 19.57, 1.32 18.85, 1 18.12 C0.67 17.38, 0.42 16.61, 0.25 15.84 C0.08 15.07, 0 14.28, 0 13.5 C0 12.72, 0.08 11.93, 0.25 11.16 C0.42 10.39, 0.67 9.62, 1 8.88 C1.32 8.15, 1.73 7.43, 2.21 6.75 C2.69 6.07, 3.25 5.42, 3.86 4.82 C4.47 4.22, 5.16 3.66, 5.89 3.16 C6.63 2.66, 7.42 2.2, 8.25 1.81 C9.08 1.42, 9.96 1.08, 10.86 0.81 C11.75 0.55, 12.69 0.34, 13.63 0.21 C14.58 0.07, 15.54 0, 16.5 0 C17.46 0, 18.42 0.07, 19.37 0.21 C20.31 0.34, 21.25 0.55, 22.14 0.81 C23.04 1.08, 23.92 1.42, 24.75 1.81 C25.58 2.2, 26.37 2.66, 27.11 3.16 C27.84 3.66, 28.53 4.22, 29.14 4.82 C29.75 5.42, 30.31 6.07, 30.79 6.75 C31.27 7.43, 31.68 8.15, 32 8.88 C32.33 9.62, 32.58 10.39, 32.75 11.16 C32.92 11.93, 32.96 13.11, 33 13.5 C33.04 13.89, 33.04 13.11, 33 13.5" stroke="none" stroke-width="0" fill="#40c057"></path><path d="M33 13.5 C33 14.28, 32.92 15.07, 32.75 15.84 C32.58 16.61, 32.33 17.38, 32 18.12 C31.68 18.85, 31.27 19.57, 30.79 20.25 C30.31 20.93, 29.75 21.58, 29.14 22.18 C28.53 22.78, 27.84 23.34, 27.11 23.84 C26.37 24.34, 25.58 24.8, 24.75 25.19 C23.92 25.58, 23.04 25.92, 22.14 26.19 C21.25 26.45, 20.31 26.66, 19.37 26.79 C18.42 26.93, 17.46 27, 16.5 27 C15.54 27, 14.58 26.93, 13.63 26.79 C12.69 26.66, 11.75 26.45, 10.86 26.19 C9.96 25.92, 9.08 25.58, 8.25 25.19 C7.42 24.8, 6.63 24.34, 5.89 23.84 C5.16 23.34, 4.47 22.78, 3.86 22.18 C3.25 21.58, 2.69 20.93, 2.21 20.25 C1.73 19.57, 1.32 18.85, 1 18.12 C0.67 17.38, 0.42 16.61, 0.25 15.84 C0.08 15.07, 0 14.28, 0 13.5 C0 12.72, 0.08 11.93, 0.25 11.16 C0.42 10.39, 0.67 9.62, 1 8.88 C1.32 8.15, 1.73 7.43, 2.21 6.75 C2.69 6.07, 3.25 5.42, 3.86 4.82 C4.47 4.22, 5.16 3.66, 5.89 3.16 C6.63 2.66, 7.42 2.2, 8.25 1.81 C9.08 1.42, 9.96 1.08, 10.86 0.81 C11.75 0.55, 12.69 0.34, 13.63 0.21 C14.58 0.07, 15.54 0, 16.5 0 C17.46 0, 18.42 0.07, 19.37 0.21 C20.31 0.34, 21.25 0.55, 22.14 0.81 C23.04 1.08, 23.92 1.42, 24.75 1.81 C25.58 2.2, 26.37 2.66, 27.11 3.16 C27.84 3.66, 28.53 4.22, 29.14 4.82 C29.75 5.42, 30.31 6.07, 30.79 6.75 C31.27 7.43, 31.68 8.15, 32 8.88 C32.33 9.62, 32.58 10.39, 32.75 11.16 C32.92 11.93, 32.96 13.11, 33 13.5 C33.04 13.89, 33.04 13.11, 33 13.5" stroke="#000000" stroke-width="1" fill="none"></path></g><g stroke-linecap="round" transform="translate(193.5 179) rotate(0 16.5 13.5)"><path d="M33 13.5 C33 14.28, 32.92 15.07, 32.75 15.84 C32.58 16.61, 32.33 17.38, 32 18.12 C31.68 18.85, 31.27 19.57, 30.79 20.25 C30.31 20.93, 29.75 21.58, 29.14 22.18 C28.53 22.78, 27.84 23.34, 27.11 23.84 C26.37 24.34, 25.58 24.8, 24.75 25.19 C23.92 25.58, 23.04 25.92, 22.14 26.19 C21.25 26.45, 20.31 26.66, 19.37 26.79 C18.42 26.93, 17.46 27, 16.5 27 C15.54 27, 14.58 26.93, 13.63 26.79 C12.69 26.66, 11.75 26.45, 10.86 26.19 C9.96 25.92, 9.08 25.58, 8.25 25.19 C7.42 24.8, 6.63 24.34, 5.89 23.84 C5.16 23.34, 4.47 22.78, 3.86 22.18 C3.25 21.58, 2.69 20.93, 2.21 20.25 C1.73 19.57, 1.32 18.85, 1 18.12 C0.67 17.38, 0.42 16.61, 0.25 15.84 C0.08 15.07, 0 14.28, 0 13.5 C0 12.72, 0.08 11.93, 0.25 11.16 C0.42 10.39, 0.67 9.62, 1 8.88 C1.32 8.15, 1.73 7.43, 2.21 6.75 C2.69 6.07, 3.25 5.42, 3.86 4.82 C4.47 4.22, 5.16 3.66, 5.89 3.16 C6.63 2.66, 7.42 2.2, 8.25 1.81 C9.08 1.42, 9.96 1.08, 10.86 0.81 C11.75 0.55, 12.69 0.34, 13.63 0.21 C14.58 0.07, 15.54 0, 16.5 0 C17.46 0, 18.42 0.07, 19.37 0.21 C20.31 0.34, 21.25 0.55, 22.14 0.81 C23.04 1.08, 23.92 1.42, 24.75 1.81 C25.58 2.2, 26.37 2.66, 27.11 3.16 C27.84 3.66, 28.53 4.22, 29.14 4.82 C29.75 5.42, 30.31 6.07, 30.79 6.75 C31.27 7.43, 31.68 8.15, 32 8.88 C32.33 9.62, 32.58 10.39, 32.75 11.16 C32.92 11.93, 32.96 13.11, 33 13.5 C33.04 13.89, 33.04 13.11, 33 13.5" stroke="none" stroke-width="0" fill="#40c057"></path><path d="M33 13.5 C33 14.28, 32.92 15.07, 32.75 15.84 C32.58 16.61, 32.33 17.38, 32 18.12 C31.68 18.85, 31.27 19.57, 30.79 20.25 C30.31 20.93, 29.75 21.58, 29.14 22.18 C28.53 22.78, 27.84 23.34, 27.11 23.84 C26.37 24.34, 25.58 24.8, 24.75 25.19 C23.92 25.58, 23.04 25.92, 22.14 26.19 C21.25 26.45, 20.31 26.66, 19.37 26.79 C18.42 26.93, 17.46 27, 16.5 27 C15.54 27, 14.58 26.93, 13.63 26.79 C12.69 26.66, 11.75 26.45, 10.86 26.19 C9.96 25.92, 9.08 25.58, 8.25 25.19 C7.42 24.8, 6.63 24.34, 5.89 23.84 C5.16 23.34, 4.47 22.78, 3.86 22.18 C3.25 21.58, 2.69 20.93, 2.21 20.25 C1.73 19.57, 1.32 18.85, 1 18.12 C0.67 17.38, 0.42 16.61, 0.25 15.84 C0.08 15.07, 0 14.28, 0 13.5 C0 12.72, 0.08 11.93, 0.25 11.16 C0.42 10.39, 0.67 9.62, 1 8.88 C1.32 8.15, 1.73 7.43, 2.21 6.75 C2.69 6.07, 3.25 5.42, 3.86 4.82 C4.47 4.22, 5.16 3.66, 5.89 3.16 C6.63 2.66, 7.42 2.2, 8.25 1.81 C9.08 1.42, 9.96 1.08, 10.86 0.81 C11.75 0.55, 12.69 0.34, 13.63 0.21 C14.58 0.07, 15.54 0, 16.5 0 C17.46 0, 18.42 0.07, 19.37 0.21 C20.31 0.34, 21.25 0.55, 22.14 0.81 C23.04 1.08, 23.92 1.42, 24.75 1.81 C25.58 2.2, 26.37 2.66, 27.11 3.16 C27.84 3.66, 28.53 4.22, 29.14 4.82 C29.75 5.42, 30.31 6.07, 30.79 6.75 C31.27 7.43, 31.68 8.15, 32 8.88 C32.33 9.62, 32.58 10.39, 32.75 11.16 C32.92 11.93, 32.96 13.11, 33 13.5 C33.04 13.89, 33.04 13.11, 33 13.5" stroke="#000000" stroke-width="1" fill="none"></path></g><g stroke-linecap="round"><g transform="translate(386 42.5) rotate(0 0 84)"><path d="M0 0 C0 28, 0 140, 0 168 M0 0 C0 28, 0 140, 0 168" stroke="#000000" stroke-width="1" fill="none"></path></g></g></svg>